<?xml version="1.0" encoding="utf-8"?>
<!-- Generator: Adobe Illustrator 28.1.0, SVG Export Plug-In . SVG Version: 6.00 Build 0)  -->
<svg version="1.1" id="arrow-circle-down" xmlns="http://www.w3.org/2000/svg" xmlns:xlink="http://www.w3.org/1999/xlink" x="0px"
	 y="0px" viewBox="0 0 512 512" style="enable-background:new 0 0 512 512;" xml:space="preserve">
<g>
	<path d="M506.3,419.1l-61.4,60.4c-4.2,4.2-10.8,10.2-17.8,16.4c-24.2,21.4-60.6,21.4-84.8,0c-7-6.2-13.7-12.3-17.9-16.6l-61.3-60.2
		c-0.5-0.5-1-1-1.5-1.5c-8-8.7-7.5-22.2,1.2-30.2c8.7-8,22.2-7.5,30.1,1.2l61.4,60.3c2.3,2.3,5.3,5.1,8.6,8.1
		C361.1,388.8,341.9,227,210.1,122C159.3,81.5,96.6,54,28.8,42.6c-11.7-2-19.6-13.1-17.6-24.8C13.2,6.1,24.3-1.8,36,0.2
		c74.9,12.7,144.4,43.2,200.9,88.2c40.3,32.1,74.2,71.5,100.7,117c21.5,37,38.3,78.2,50,122.5c12.8,48.6,17,91.9,18.2,122.2l0,0
		l0.3,7.5c3.4-3.1,6.5-6,8.8-8.3l61.5-60.5c8.4-8.3,21.9-8.2,30.2,0.2C514.9,397.4,514.7,410.9,506.3,419.1z"/>
</g>
</svg>
