<?xml version="1.0" encoding="utf-8"?>
<!-- Generator: Adobe Illustrator 28.1.0, SVG Export Plug-In . SVG Version: 6.00 Build 0)  -->
<svg version="1.1" id="Layer_1" xmlns="http://www.w3.org/2000/svg" xmlns:xlink="http://www.w3.org/1999/xlink" x="0px" y="0px"
	 viewBox="0 0 512 512" style="enable-background:new 0 0 512 512;" xml:space="preserve">
<style type="text/css">
	.st0{fill:#47DDAB;}
</style>
<path d="M469.5,171.2L469.5,171.2c-0.1,0-0.1-0.1-0.2-0.1c-1-0.8-2.1-1.6-3.2-2.4c-0.4-0.3-0.8-0.6-1.3-0.9
	c-6-4.1-12.5-7.6-19.4-10.3c-0.4-0.2-0.7-0.3-1.1-0.4c-11.8-4.8-24.4-7.4-37.2-7.7c-0.7,0-1.3,0-2,0c-0.4,0-0.9,0-1.3,0
	c-34.9,0.4-67.4,17.9-87,46.9c0,0.1-0.1,0.1-0.2,0.2c-0.6-0.6-1.2-1.2-1.8-1.8c-9.8-9.5-21.4-16.2-33.6-20.1c0,0,0-0.1,0.1-0.1
	c-16.4-5.1-34.1-5.1-50.5,0c-0.1,0-0.2,0.1-0.3,0.1c-12.2,3.9-23.8,10.5-33.6,20.1c-0.6,0.6-1.2,1.2-1.8,1.8
	c-0.1-0.1-0.1-0.1-0.2-0.2c-19.6-28.9-52.1-46.4-87-46.9c-0.4,0-0.9,0-1.3,0c-0.7,0-1.3,0-2,0c-12.8,0.3-25.5,2.9-37.2,7.7
	c-0.3,0.1-0.7,0.3-1.1,0.4c-5.1,2.1-10,4.7-14.7,7.6c0.2-0.1,0.4-0.2,0.6-0.3c-1.6,1-3.3,2-4.9,3.1c-0.4,0.3-0.8,0.6-1.3,0.9
	c-1.2,0.8-2.3,1.7-3.4,2.5v0l-0.2-0.1l0,0c-0.1,0-0.1,0.1-0.2,0.1v0C16.8,190.6,0.2,221.4,0.2,256c0,3.7,0.2,7.3,0.5,10.8
	c0.3,2.7,0.6,5.3,1.1,7.9c0.1,0.8,0.3,1.6,0.4,2.3c0.3,1.5,0.6,3,1,4.5c0.2,0.7,0.3,1.3,0.5,2c0.2,0.7,0.4,1.4,0.6,2.1
	c12.9,44.5,53.9,76.9,102.5,76.9c58.9,0,106.7-47.8,106.7-106.7c0-21.2,15.5-38.8,35.7-42.1c2.3-0.4,4.6-0.6,6.9-0.6
	c2.2,0,4.4,0.2,6.6,0.5c0,0,0,0,0,0c20.3,3.3,35.7,20.9,35.7,42.1c0,58.9,47.8,106.7,106.7,106.7c46,0,85.2-29.1,100.1-69.9
	c0.4-1.1,0.8-2.3,1.2-3.5c0.2-0.6,0.4-1.2,0.6-1.8s0.4-1.2,0.5-1.8c0.2-0.7,0.4-1.4,0.6-2.1c0.2-0.7,0.3-1.3,0.5-2
	c0.4-1.5,0.7-3,1-4.5c0.2-0.8,0.3-1.5,0.4-2.3c0.5-2.6,0.8-5.3,1.1-7.9c0.4-3.6,0.5-7.2,0.5-10.8
	C511.8,221.4,495.2,190.6,469.5,171.2z M14.2,308.1c0.8,1.3,1.5,2.7,2.4,4C15.8,310.8,15,309.5,14.2,308.1z M24.6,323.3
	c1,1.2,2,2.3,3,3.5C26.6,325.6,25.6,324.5,24.6,323.3z M35.3,334.5c3,2.7,6.1,5.2,9.3,7.6C41.4,339.8,38.2,337.2,35.3,334.5z
	 M70.5,355.9c4.3,1.6,8.8,2.9,13.4,3.9C79.3,358.8,74.8,357.5,70.5,355.9z M106.8,320c-35.3,0-64-28.7-64-64c0-35.3,28.7-64,64-64
	c35.3,0,64,28.7,64,64C170.8,291.3,142.2,320,106.8,320z M405.5,320c-35.3,0-64-28.7-64-64c0-35.3,28.7-64,64-64
	c35.3,0,64,28.7,64,64C469.5,291.3,440.9,320,405.5,320z"/>
<path d="M97.1,299.5c0.5,0,0.9-0.1,1.4-0.1c-0.6,0-1.2,0.1-1.9,0.2C96.8,299.5,97,299.5,97.1,299.5z"/>
<g>
	<path class="st0" d="M469.2,320.4c0.1,0,0.1,0.1,0.2,0.1v-0.2L469.2,320.4z"/>
</g>
</svg>
