<svg width="43" height="42" viewBox="0 0 43 42" fill="none" xmlns="http://www.w3.org/2000/svg">
<path d="M14.0534 29.8053C13.653 29.6761 13.2654 29.0302 13.02 28.759C12.7487 28.4618 12.3095 28.1518 12.5808 27.7514C12.8262 27.3897 13.2913 27.0925 13.6142 26.7825C14.0793 26.3175 14.5056 25.8266 14.9706 25.3744C15.1127 25.2323 15.2548 25.1032 15.4098 24.9869C15.9653 24.5606 16.4949 24.0697 16.96 23.5401C17.2183 23.2559 17.4509 22.9588 17.7351 22.7004C18.1355 22.3129 18.4972 21.9124 18.8848 21.5249C19.0915 21.3182 19.2981 21.034 19.156 20.7369C19.0656 20.5302 18.8848 20.3752 18.7168 20.2331C18.536 20.0781 18.368 19.9101 18.2001 19.7422C17.9159 19.458 17.6446 19.1738 17.3217 18.9413C16.9987 18.7088 16.7533 18.2695 16.4691 17.9595C16.172 17.6366 15.8232 17.3782 15.5261 17.0682C15.3582 16.9002 15.1902 16.7323 15.0223 16.5514C14.9448 16.4739 14.5314 16.1639 14.5314 16.0606L13.3559 14.885C13.1879 14.7171 13.0071 14.5492 12.8262 14.3941C12.5808 14.1875 12.2837 13.7999 12.4904 13.477C12.6841 13.1669 12.9296 12.9344 13.175 12.676C13.3042 12.5339 13.4592 12.4435 13.6013 12.3143C13.7176 12.211 13.8597 12.0431 14.0276 12.0043C14.2214 11.9656 14.4151 12.1981 14.5314 12.3143C14.6735 12.4694 14.8285 12.6115 14.9577 12.7794C15.0869 12.9473 15.229 13.1023 15.3711 13.2703C15.7586 13.7095 16.2107 14.097 16.637 14.5104L19.7374 17.6107C20.0086 17.882 20.2799 18.1533 20.5512 18.4246C20.7579 18.6442 20.9129 18.8638 21.2617 18.825C21.7784 18.7475 22.0755 18.36 22.4243 18.0112L23.5482 16.8873L26.1188 14.3166C26.1188 14.3166 26.3514 14.0841 26.403 14.0324C26.5064 13.9291 26.6227 13.8128 26.726 13.7095C26.8035 13.632 26.8293 13.5416 26.9068 13.4511C26.9844 13.3607 27.0748 13.309 27.1523 13.2315C27.2556 13.1282 27.359 13.0248 27.4752 12.9344C27.6819 12.7665 27.8757 12.5727 28.0695 12.4048C28.2245 12.2885 28.3407 12.1852 28.5474 12.211C28.78 12.2368 28.9479 12.4435 29.1029 12.5985C29.2579 12.7536 29.4388 12.9086 29.6196 13.0507C29.8005 13.1928 30.0072 13.2703 30.1751 13.3995C30.2655 13.464 30.3689 13.5932 30.3301 13.7224C30.2914 13.8903 30.0588 13.9937 29.9426 14.097C29.7617 14.252 29.6325 14.4458 29.4517 14.6137C28.5733 15.3759 27.7853 16.2543 26.9585 17.0682L24.517 19.5097C24.517 19.5097 24.2587 19.768 24.207 19.8197C24.0907 19.936 23.9745 20.0522 23.8582 20.1685C23.6903 20.3493 23.4577 20.4914 23.2252 20.5689C23.096 20.6077 23.0314 20.6335 23.0185 20.7756C22.9927 21.0211 23.2123 21.1761 23.3802 21.3182C23.5998 21.512 23.8453 21.6799 24.052 21.8995L24.5687 22.4162C24.9046 22.7521 25.2275 23.075 25.5634 23.4109C25.6926 23.5401 25.7959 23.6822 25.938 23.7984C26.0801 23.9147 26.2609 23.9793 26.403 24.0956C26.4935 24.1731 26.5581 24.2764 26.6485 24.3798C26.8552 24.664 27.1135 24.9094 27.359 25.1548C27.6173 25.4261 27.8628 25.7232 28.1211 25.9945C28.3795 26.2658 28.6637 26.4337 28.9091 26.6921C29.0642 26.8471 29.1804 27.0409 29.3354 27.183C29.5292 27.3638 29.7359 27.5834 29.9167 27.7772C30.0588 27.9451 30.1105 28.1776 29.9684 28.3714C29.8651 28.5135 29.6971 28.6169 29.5809 28.759C29.4775 28.8881 29.4129 29.0173 29.3225 29.1594C29.1804 29.4049 29.09 29.6891 28.8445 29.857C28.6766 29.9732 28.5216 30.0766 28.3537 29.9216C28.1986 29.7795 28.0436 29.6503 27.8757 29.5211C27.7078 29.3919 27.5657 29.2369 27.4106 29.1077C27.0619 28.8106 26.7647 28.4748 26.4935 28.1131C26.3126 27.8676 26.093 27.6351 25.8863 27.4026C25.783 27.2863 25.6926 27.183 25.6021 27.0667C25.4342 26.86 25.2275 26.6792 25.0467 26.4854L24.3878 25.8266C23.9615 25.4003 23.5352 24.974 23.096 24.5348C22.8893 24.3281 22.6956 24.1343 22.4889 23.9276C22.3468 23.7855 22.2305 23.6047 22.1013 23.4497C21.9722 23.2946 21.8042 23.1267 21.6234 23.0104C21.4167 22.8683 21.1196 22.8425 20.9 23.0104C20.7062 23.1525 20.5254 23.3205 20.422 23.5401C20.3057 23.7855 20.0345 23.9793 19.8407 24.186L17.3992 26.6275C16.4562 27.5705 15.4227 28.4748 14.6477 29.547C14.4668 29.7924 14.286 29.8441 14.1051 29.7795L14.0534 29.8053Z" fill="#1D1D1D"/>
</svg>
