<svg width="39" height="42" viewBox="0 0 39 42" fill="none" xmlns="http://www.w3.org/2000/svg">
<path d="M7.01964 29.8333C6.97492 29.8333 6.93765 29.8259 6.89293 29.8184C6.48301 29.7811 6.03581 29.9153 6.006 29.3936C5.99109 29.1476 6.006 28.8942 6.02836 28.6483C6.05817 28.2756 6.02836 27.8657 6.44574 27.7017C6.75878 27.575 7.13889 27.6868 7.46683 27.6868C8.71896 27.6868 9.9711 27.6346 11.2232 27.7091C11.7301 27.739 12.222 27.8359 12.7362 27.8359C13.2505 27.8359 13.6902 27.6644 14.1971 27.5973C15.1585 27.4706 16.1722 27.6793 17.1411 27.6793H26.4799C27.0911 27.6793 27.7023 27.7613 28.3209 27.7091C29.2227 27.6346 30.132 27.7688 31.0413 27.7091C31.3618 27.6868 32.0251 27.5154 32.3009 27.7315C32.5543 27.9178 32.4947 28.2756 32.5245 28.5439C32.5617 28.8644 32.6959 29.2221 32.4947 29.5277C32.2934 29.8259 31.9133 29.8408 31.5928 29.8855C31.1307 29.9526 30.6537 29.96 30.1842 29.96C29.26 29.9675 28.3432 29.9227 27.4265 29.9227H21.9857C21.2851 29.9227 20.5323 29.9973 19.8391 29.9227C19.2354 29.8557 18.6317 29.96 18.0206 29.9824C16.7162 30.0345 15.3821 29.96 14.0853 29.9004C13.1611 29.8557 12.2369 29.796 11.3127 29.8109C10.8431 29.8109 10.3736 29.8333 9.91147 29.8855C9.509 29.9302 9.10653 29.8855 8.70406 29.9302C8.13762 29.9824 7.60098 29.9004 7.03454 29.8482L7.01964 29.8333ZM7.01218 22.0969C6.85566 22.0745 6.69915 22.0522 6.54263 22.0149C6.04327 21.8882 6.006 21.5379 6.02836 21.0833C6.05072 20.6882 5.96128 20.2187 6.30413 19.9802C6.73641 19.6821 7.22833 19.764 7.75005 19.764C8.05563 19.764 8.36121 19.7491 8.66679 19.764C9.20342 19.7864 9.7326 19.8609 10.2618 19.846C10.8655 19.8386 11.4617 19.7864 12.0654 19.7864C12.7511 19.7864 13.4294 19.8237 14.1151 19.8535C15.6281 19.928 17.1485 20.0025 18.6615 19.928C19.1013 19.9057 19.541 19.9504 19.9807 19.9355C20.4205 19.9206 20.8304 19.8535 21.2701 19.8535H29.4463C30.0127 19.8535 30.5866 19.8907 31.1531 19.8311C31.3692 19.8088 31.5854 19.7789 31.8015 19.8013C32.04 19.8237 32.122 19.9057 32.2562 20.1143C32.4648 20.4348 32.5841 20.7777 32.5841 21.1727C32.5841 21.6944 32.6884 21.9925 32.0773 22.082C31.5406 22.164 30.9742 22.1565 30.4227 22.1565C29.2525 22.1565 28.0898 22.0894 26.9197 22.0894H23.2974C23.0515 22.0894 22.8428 22.0298 22.6043 22.0075C22.3658 21.9851 22.0974 22.0298 21.844 22.0224C21.2627 22.0075 20.6888 22 20.1074 22C19.6155 22 19.146 22.0745 18.6615 22.082C18.0653 22.0894 17.4616 22.1267 16.8653 22.1267C16.5746 22.1267 16.2914 22.1118 16.0082 22.1043C14.525 22.0745 13.0418 22.082 11.5586 22.082H9.35994C8.59971 22.082 7.77986 22.1789 7.01964 22.082L7.01218 22.0969ZM7.01218 14.3307C6.79604 14.3456 6.55009 14.3605 6.38612 14.2859C6.04327 14.1369 6.09544 13.7419 6.09544 13.4214C6.09544 13.1382 6.04327 12.5941 6.19233 12.363C6.37866 12.0649 6.72151 12.05 7.03454 12.05C8.27922 12.05 9.51645 12.0425 10.7611 12.0351C11.3798 12.0351 11.9984 12.0351 12.6244 12.0351C13.2058 12.0351 13.7797 12.1618 14.361 12.1618C14.8902 12.1618 15.4417 12.1991 15.9709 12.1618C16.761 12.1022 17.5286 12.0351 18.3187 12.0351H30.3705C30.9966 12.0351 31.7493 11.9158 32.3307 12.1171C32.6214 12.214 32.6139 12.5344 32.6512 12.7953C32.7183 13.25 32.9866 14.2561 32.3083 14.3232C31.958 14.353 31.6226 14.2338 31.2723 14.2338C30.8624 14.2338 30.4525 14.2561 30.0426 14.2561C29.26 14.2561 28.4699 14.2561 27.6873 14.2114C27.2253 14.1891 26.7333 14.1592 26.2712 14.2114C24.9595 14.3679 23.6104 14.271 22.2838 14.271H14.4803C13.8617 14.271 13.2058 14.2114 12.5872 14.271C12.0654 14.3232 11.5288 14.2338 10.9922 14.2114C10.6493 14.1965 10.3289 14.0773 9.97855 14.1071C9.06181 14.1741 8.15998 14.3232 7.23578 14.3232C7.1687 14.3232 7.09417 14.3232 7.01218 14.3307Z" fill="#1D1D1D"/>
</svg>
