<svg width="31" height="31" viewBox="0 0 31 31" fill="none" xmlns="http://www.w3.org/2000/svg">
<g clip-path="url(#clip0_932_3831)">
<g clip-path="url(#clip1_932_3831)">
<path d="M15.667 3.18687C19.672 3.18687 20.147 3.20188 21.7282 3.27438C23.3632 3.34938 25.047 3.72187 26.2382 4.91313C27.4407 6.11562 27.802 7.78312 27.877 9.42313C27.9495 11.0044 27.9645 11.4794 27.9645 15.4844C27.9645 19.4894 27.9495 19.9644 27.877 21.5456C27.8032 23.1719 27.422 24.8719 26.2382 26.0556C25.0357 27.2581 23.3695 27.6194 21.7282 27.6944C20.147 27.7669 19.672 27.7819 15.667 27.7819C11.662 27.7819 11.187 27.7669 9.60574 27.6944C7.99199 27.6206 6.26949 27.2306 5.09574 26.0556C3.89949 24.8594 3.53199 23.1756 3.45699 21.5456C3.38449 19.9644 3.36949 19.4894 3.36949 15.4844C3.36949 11.4794 3.38449 11.0044 3.45699 9.42313C3.53074 7.80312 3.91574 6.09312 5.09574 4.91313C6.29574 3.71312 7.96949 3.34938 9.60574 3.27438C11.187 3.20188 11.662 3.18687 15.667 3.18687ZM15.667 0.484375C11.5932 0.484375 11.082 0.501875 9.48199 0.574375C7.16324 0.680625 4.86074 1.32562 3.18449 3.00187C1.50199 4.68437 0.863242 6.98187 0.756992 9.29938C0.684492 10.8994 0.666992 11.4106 0.666992 15.4844C0.666992 19.5581 0.684492 20.0694 0.756992 21.6694C0.863242 23.9856 1.51074 26.2944 3.18449 27.9669C4.86574 29.6481 7.16699 30.2881 9.48199 30.3944C11.082 30.4669 11.5932 30.4844 15.667 30.4844C19.7407 30.4844 20.252 30.4669 21.852 30.3944C24.1695 30.2881 26.4745 29.6419 28.1495 27.9669C29.8332 26.2831 30.4707 23.9869 30.577 21.6694C30.6495 20.0694 30.667 19.5581 30.667 15.4844C30.667 11.4106 30.6495 10.8994 30.577 9.29938C30.4707 6.98063 29.8245 4.67688 28.1495 3.00187C26.4707 1.32312 24.1632 0.679375 21.852 0.574375C20.252 0.501875 19.7407 0.484375 15.667 0.484375Z" fill="black"/>
<path d="M15.6673 7.78174C11.4136 7.78174 7.96484 11.2305 7.96484 15.4842C7.96484 19.738 11.4136 23.1867 15.6673 23.1867C19.9211 23.1867 23.3698 19.738 23.3698 15.4842C23.3698 11.2305 19.9211 7.78174 15.6673 7.78174ZM15.6673 20.4842C12.9061 20.4842 10.6673 18.2455 10.6673 15.4842C10.6673 12.723 12.9061 10.4842 15.6673 10.4842C18.4286 10.4842 20.6673 12.723 20.6673 15.4842C20.6673 18.2455 18.4286 20.4842 15.6673 20.4842Z" fill="black"/>
<path d="M23.674 9.27676C24.6681 9.27676 25.474 8.47087 25.474 7.47676C25.474 6.48265 24.6681 5.67676 23.674 5.67676C22.6799 5.67676 21.874 6.48265 21.874 7.47676C21.874 8.47087 22.6799 9.27676 23.674 9.27676Z" fill="black"/>
</g>
</g>
<defs>
<clipPath id="clip0_932_3831">
<rect width="30" height="30" fill="white" transform="translate(0.666992 0.484375)"/>
</clipPath>
<clipPath id="clip1_932_3831">
<rect width="30" height="30" fill="white" transform="translate(0.666992 0.484375)"/>
</clipPath>
</defs>
</svg>
