<?xml version="1.0" encoding="utf-8"?>
<!-- Generator: Adobe Illustrator 28.1.0, SVG Export Plug-In . SVG Version: 6.00 Build 0)  -->
<svg version="1.1" id="Layer_1" xmlns="http://www.w3.org/2000/svg" xmlns:xlink="http://www.w3.org/1999/xlink" x="0px" y="0px"
	 viewBox="0 0 512 512" style="enable-background:new 0 0 512 512;" xml:space="preserve">
<g>
	<path d="M429.5,69.1c-3-7.3-7.3-13.7-12.9-19.3c-5.6-5.6-12-9.9-19.3-12.9c-7.3-3-14.9-4.5-22.8-4.5c0,0,0,0,0,0
		c-14.4,0-27.1,4.3-37.2,12.4l-0.6-2c-3.6-12.3-12.7-24.3-24.2-32.2c-9.8-6.7-26.1-13.7-47.8-8.7l-0.1,0c-9.9,2.6-19,7.6-26.4,14.6
		c-5.4,5.1-9.8,11.3-13,18l-0.8-1.3c-8.2-14.1-22-23.8-38.7-27.4c-16-3.5-33.4-0.7-47.6,7.5c-13.7,7.9-23.9,22.2-27.8,39.1
		c-3.9,16.5-1.5,33.7,6.6,47.3l50.5,82.6c-41.2,20-72.4,53.2-86,91.8c-6.4,18.2-3,39.2,9,56.1c1.2,1.8,2.6,3.4,4,5.1
		c-6.8,7.6-11.7,16.8-14.2,26.8c-2.8,11.2-2.6,22.9,0.7,34l0,0.1c11.6,34.7,33.8,64,64.3,84.7c30,20.4,65.9,31.2,103.9,31.2h0.5
		c24-0.1,47.4-5.4,69.7-15.6c21.9-10.1,41.7-24.4,58.6-42.6c35.7-38.4,55.4-90.4,55.4-146.3c0-34.9,0.2-71.2,0.4-106.3l0-1.3
		c0.2-36.5,0.4-72.2,0.4-107.8C434,84,432.5,76.3,429.5,69.1z M391.8,199.5v1c-0.2,35.3-0.4,71.7-0.4,106.9
		c0,100-73.8,162.4-142.3,162.8h-0.3c-60.1,0-110.5-34.1-128.4-87c-1.8-6.5-0.5-13.3,3.5-18.6c3.6-4.7,8.8-7.5,14.1-7.6l1.1,0
		c9.5,0.4,17.4,5.7,19.1,10.4c5.8,15.4,17.8,29.6,33.8,40.1c15.4,10.1,33,15.7,49.4,15.7c24.8,0,46.8-9.6,61.9-27.1
		c13.2-15.3,20.7-35.7,20.9-57.4c0.3-21.7-6.7-42.3-19.5-58c-14.9-18.2-36.1-28.3-61.2-29.2h-0.2c-21.6-0.7-42.5,6.7-59,20.7
		c-6.8,5.9-12,12.6-16.1,18.3c-1.4,1.9-2.5,3.6-3.7,5.2l-0.6,0.8c-2.1,3-4.3,6.1-6.5,8.9c-6,7.5-10.3,9.9-17.6,9.9l-0.8,0
		c-5.4-0.3-11-3.8-15-9.4c-4.2-5.9-5.6-12.7-3.7-18.1c3.5-10.1,8.8-19.6,15.2-28.1c11.1-14.9,25.7-27,41.9-36
		c4.3-2.4,8.7-4.6,13.2-6.5c4.5-2,10.3-2.8,13.8-6.7c4.2-4.7,7.2-11,8.3-17.2c1.8-10.4-1.7-18.9-7-27.6c-2.2-3.5-4.3-7.1-6.5-10.6
		c-6.4-10.5-12.8-21-19.3-31.5c-6.4-10.4-12.7-20.9-19.1-31.3c-2.9-4.7-5.8-9.5-8.7-14.2c-2.5-4.3-3.2-10.4-1.8-16.3
		c1.3-5.6,4.4-10.3,8.1-12.5c5.8-3.4,12.4-4.3,18.5-2.7c4.8,1.3,8.9,4.1,10.9,7.6c0.1,0.2,0.2,0.4,0.3,0.6l45.8,73.6l17.3,28.7
		c4.3,7.2,12.7,10,20.5,6.9c7.7-3.1,11.9-11,10-19.1l-16.9-74.5l-0.1-0.3c-1.1-4.4-2.2-12-1.4-18.7c0-0.4,0.1-0.8,0.2-1.2
		c2.4-3.8,6-6.5,10.3-7.8c12.4-2.5,20.6,6.6,22.2,12l17.3,61.8c0.1,0.5,0.3,0.9,0.4,1.4L323,150c2.2,8.1,9.6,13.1,17.9,12.2
		c8.3-0.9,14.4-7.5,14.8-15.8l2-48.9l0-0.4c-0.1-5.3,0.7-10.6,2.1-15.7c0.1-0.1,0.2-0.3,0.2-0.4c2.2-3.4,5.6-6.8,14.3-6.8
		c9.8,0,17.7,8,17.7,17.7C392.2,127,392,162.8,391.8,199.5z M186.8,335.6c1.1-1.3,2.3-2.6,3.4-4c3.1-3.8,6.1-8.1,9.1-12.4
		c0.4-0.6,0.9-1.2,1.3-1.8c0.6-0.9,1.2-1.7,1.8-2.5c3.8-5.3,6.6-8.6,9.4-11l0.1-0.1c8.5-7.2,19.3-10.9,30.4-10.6
		c13,0.5,23.2,5.2,30.4,13.9c6.6,8,10.2,19.3,10.1,31.1c-0.1,11.7-4.1,22.8-10.7,30.6c-7.3,8.4-17.5,12.7-30.3,12.7
		c-8.3,0-18-3.2-26.6-8.8c-8.5-5.6-14.9-12.8-17.5-19.9C195.1,346.4,191.5,340.6,186.8,335.6z"/>
</g>
</svg>
