<svg width="252" height="18" viewBox="0 0 252 18" fill="none" xmlns="http://www.w3.org/2000/svg">
<path d="M249.657 15.7925C249.187 15.8294 248.761 15.8478 248.533 15.8662C246.467 16.0875 244.402 15.9953 242.336 15.9215C240.27 15.8478 238.599 16.1059 236.654 16.5853C232.568 17.5993 228.391 17.2674 224.138 17.2305C215.282 17.1384 206.502 15.3316 197.646 15.3316C190.992 15.3316 184.02 15.9769 177.366 16.6037C168.677 17.4149 160.125 16.2165 151.512 15.7372C141.456 15.1841 131.446 15.4975 121.39 15.4975C108.326 15.4975 95.1104 16.7696 82.0618 15.3685C76.9427 14.8154 71.8083 14.5388 66.917 15.7372C61.1902 17.1384 54.5216 17.0093 48.6582 17.0093C42.3238 17.0093 36.2476 16.9171 29.974 16.4746C25.9941 16.1981 22.0598 15.0919 18.0647 14.9813C14.7684 14.8891 11.3809 15.4975 8.02386 15.4975C5.66935 15.4975 1.85656 15.9584 0.610948 12.9717C0.00333253 11.5337 -0.0726195 9.50564 0.0489037 7.84635C0.185617 6.07644 0.398283 4.19592 1.27933 2.70256C2.78317 0.158319 6.23139 0.619232 8.41881 0.729851C12.2012 0.932653 15.9381 1.15389 19.7053 1.65168C25.5384 2.40758 31.5538 1.63324 37.4173 1.98354C50.1316 2.75787 62.7397 2.68412 75.4388 1.81761C84.0062 1.22764 92.4065 0.785161 101.019 0.785161H117.182C122.164 0.785161 127.147 0.877344 132.129 0.785161C134.135 0.748288 135.881 0.232065 137.917 0.508613C140.135 0.803597 142.307 1.37513 144.525 1.57793C148.489 1.92823 152.53 1.54106 156.464 1.19076C172.733 -0.247284 188.638 1.0064 204.831 2.68412C211.894 3.42158 219.049 3.08973 226.158 3.08973C229.728 3.08973 233.267 2.81318 236.822 2.61038C238.705 2.49976 240.619 2.64725 242.518 2.53663C244.417 2.42601 249.065 1.04327 250.144 3.56908C251.131 5.85521 250.964 8.84192 251.45 11.3309C251.617 12.2158 252.361 14.2438 251.784 15.1103C251.48 15.5528 250.493 15.7187 249.642 15.7925H249.657Z" fill="#E4BCAC"/>
</svg>
