<svg width="30" height="31" viewBox="0 0 30 31" fill="none" xmlns="http://www.w3.org/2000/svg">
<g clip-path="url(#clip0_932_3827)">
<g clip-path="url(#clip1_932_3827)">
<path d="M7.32422 0.484375C6.87305 0.560547 6.41602 0.607422 5.97656 0.724609C2.8125 1.5918 0.878906 3.64258 0.158203 6.83008C0.0820313 7.15234 0.0527344 7.48047 0 7.80859C0 5.36523 0 2.92773 0 0.484375C2.44336 0.484375 4.88086 0.484375 7.32422 0.484375Z" fill="white"/>
<path d="M30 7.80859C29.918 7.35156 29.877 6.88281 29.7539 6.43164C28.8809 3.28516 26.8359 1.36328 23.6543 0.642578C23.332 0.566406 23.0039 0.537109 22.6758 0.484375C25.1191 0.484375 27.5566 0.484375 30 0.484375C30 2.92773 30 5.36523 30 7.80859Z" fill="white"/>
<path d="M0 23.1602C0.0761719 23.6113 0.123047 24.0684 0.240234 24.5078C1.10156 27.6719 3.15234 29.6055 6.33984 30.332C6.66211 30.4023 6.99023 30.4375 7.31836 30.4902C4.88086 30.4902 2.44336 30.4902 -0.00585938 30.4902C0 28.041 0 25.6035 0 23.1602Z" fill="white"/>
<path d="M22.6758 30.4844C23.1328 30.4023 23.6074 30.3613 24.0527 30.2324C27.1992 29.3594 29.1211 27.3145 29.8418 24.1328C29.9121 23.8105 29.9473 23.4824 29.9941 23.1543C29.9941 25.5977 29.9941 28.0352 29.9941 30.4785C27.5566 30.4844 25.1191 30.4844 22.6758 30.4844Z" fill="white"/>
<path d="M13.8336 18.2029C13.6109 19.0349 13.3883 19.8377 13.189 20.6404C12.8492 21.9998 12.1051 23.1365 11.2613 24.2205C11.2144 24.2791 11.1207 24.2967 11.0445 24.3318C11.0094 24.2556 10.9508 24.1853 10.939 24.1092C10.7105 22.6267 10.7515 21.1619 11.1383 19.6971C11.5484 18.1619 11.9058 16.615 12.2691 15.0681C12.3043 14.9099 12.275 14.7224 12.2281 14.5642C11.941 13.6385 11.8883 12.7185 12.3043 11.8221C12.5914 11.201 13.0367 10.7322 13.7457 10.6209C14.8004 10.4568 15.568 11.1658 15.4273 12.2264C15.3394 12.8885 15.1344 13.5389 14.9703 14.1834C14.8297 14.7283 14.6246 15.2615 14.5191 15.8182C14.3316 16.7674 14.9996 17.5818 15.9664 17.658C17.068 17.7459 17.8238 17.1892 18.4156 16.3396C19.0426 15.4373 19.3238 14.406 19.4527 13.3279C19.5406 12.5896 19.5758 11.8455 19.3648 11.1189C18.9254 9.63065 17.8824 8.7869 16.3941 8.49979C14.5543 8.14237 12.8375 8.43534 11.443 9.77128C10.1949 10.9724 9.70858 12.4607 10.107 14.1717C10.1949 14.5525 10.4586 14.9041 10.6754 15.2439C10.7984 15.4373 10.8746 15.6131 10.7926 15.8416C10.7164 16.0642 10.6754 16.2928 10.6109 16.5213C10.5055 16.9021 10.318 16.9842 9.96053 16.8201C9.02889 16.3924 8.44295 15.6541 8.17342 14.6931C7.49373 12.3025 8.17342 10.2752 9.93709 8.60526C11.5015 7.11698 13.4527 6.60721 15.5621 6.63065C17.232 6.64823 18.7613 7.12284 20.0445 8.21854C21.5738 9.51932 22.2359 11.1892 22.066 13.1873C21.9547 14.4881 21.6441 15.7303 20.9351 16.8377C19.8219 18.5779 18.2515 19.4861 16.1597 19.4041C15.2808 19.3806 14.5133 18.9822 13.8336 18.2029Z" fill="black"/>
<path d="M29.9121 9.30273C29.8066 6.98828 29.1562 4.67969 27.4805 3.00977C25.8047 1.32812 23.4961 0.683594 21.1875 0.578125C19.582 0.507812 19.0723 0.490234 15 0.490234C10.9277 0.490234 10.418 0.507812 8.8125 0.578125C6.49805 0.683594 4.19531 1.33398 2.51953 3.00977C0.832031 4.69141 0.193359 6.98828 0.0878906 9.30273C0.0175781 10.9082 0 11.418 0 15.4902C0 19.5625 0.0175781 20.0723 0.0878906 21.6777C0.193359 23.9922 0.84375 26.3008 2.51953 27.9707C4.20117 29.6523 6.50391 30.291 8.81836 30.3965C10.418 30.4668 10.9277 30.4844 15.0059 30.4844C19.084 30.4844 19.5879 30.4668 21.1934 30.3965C23.5078 30.291 25.8164 29.6465 27.4922 27.9707C29.1738 26.2891 29.8125 23.9922 29.918 21.6719C29.9883 20.0723 30.0059 19.5625 30.0059 15.4844C30.0059 11.4062 29.9824 10.9082 29.9121 9.30273ZM27.2109 21.5547C27.1406 23.1836 26.7539 24.8828 25.5703 26.0664C24.3691 27.2676 22.6992 27.6309 21.0586 27.707C19.4766 27.7773 19.002 27.7949 14.9941 27.7949C10.9863 27.7949 10.5117 27.7773 8.92969 27.707C7.31836 27.6367 5.5957 27.2441 4.41797 26.0664C3.22266 24.8711 2.85352 23.1836 2.77734 21.5547C2.70703 19.9727 2.68945 19.498 2.68945 15.4902C2.68945 11.4824 2.70703 11.0078 2.77734 9.42578C2.84766 7.80859 3.23438 6.09766 4.41797 4.91406C5.61914 3.71289 7.28906 3.34961 8.92969 3.27344C10.5117 3.20312 10.9863 3.18555 14.9941 3.18555C19.002 3.18555 19.4766 3.20312 21.0586 3.27344C22.6934 3.34961 24.375 3.71875 25.5703 4.91406C26.7715 6.11523 27.1348 7.78516 27.2109 9.42578C27.2812 11.0078 27.2988 11.4824 27.2988 15.4902C27.2988 19.498 27.2812 19.9727 27.2109 21.5547Z" fill="black"/>
</g>
</g>
<defs>
<clipPath id="clip0_932_3827">
<rect width="30" height="30" fill="white" transform="translate(0 0.484375)"/>
</clipPath>
<clipPath id="clip1_932_3827">
<rect width="30" height="30" fill="white" transform="translate(0 0.484375)"/>
</clipPath>
</defs>
</svg>
