<svg width="30" height="31" viewBox="0 0 30 31" fill="none" xmlns="http://www.w3.org/2000/svg">
<g clip-path="url(#clip0_932_3833)">
<g clip-path="url(#clip1_932_3833)">
<path d="M29.9121 9.29688C29.8066 6.98242 29.1563 4.67383 27.4805 3.00391C25.8047 1.32227 23.4961 0.677734 21.1875 0.572266C19.582 0.501953 19.0723 0.484375 15 0.484375C10.9277 0.484375 10.418 0.501953 8.8125 0.572266C6.49805 0.677734 4.19531 1.32812 2.51953 3.00391C0.832031 4.68555 0.193359 6.98242 0.0878906 9.29688C0.0175781 10.9023 0 11.4121 0 15.4844C0 19.5566 0.0175781 20.0664 0.0878906 21.6719C0.193359 23.9863 0.84375 26.2949 2.51953 27.9648C4.20117 29.6465 6.50391 30.2852 8.81836 30.3906C10.418 30.4609 10.9277 30.4785 15.0059 30.4785C19.084 30.4785 19.5879 30.4609 21.1934 30.3906C23.5078 30.2852 25.8164 29.6406 27.4922 27.9648C29.1738 26.2832 29.8125 23.9863 29.918 21.666C29.9883 20.0664 30.0059 19.5566 30.0059 15.4785C30.0059 11.4004 29.9824 10.9023 29.9121 9.29688ZM27.2109 21.5488C27.1406 23.1777 26.7539 24.877 25.5703 26.0605C24.3691 27.2617 22.6992 27.625 21.0586 27.7012C19.4766 27.7715 19.002 27.7891 14.9941 27.7891C10.9863 27.7891 10.5117 27.7715 8.92969 27.7012C7.31836 27.6309 5.5957 27.2383 4.41797 26.0605C3.22266 24.8652 2.85352 23.1777 2.77734 21.5488C2.70703 19.9668 2.68945 19.4922 2.68945 15.4844C2.68945 11.4766 2.70703 11.002 2.77734 9.41992C2.84766 7.80273 3.23438 6.0918 4.41797 4.9082C5.61914 3.70703 7.28906 3.34375 8.92969 3.26758C10.5117 3.19727 10.9863 3.17969 14.9941 3.17969C19.002 3.17969 19.4766 3.19727 21.0586 3.26758C22.6934 3.34375 24.375 3.71289 25.5703 4.9082C26.7715 6.10938 27.1348 7.7793 27.2109 9.41992C27.2813 11.002 27.2988 11.4766 27.2988 15.4844C27.2988 19.4922 27.2813 19.9668 27.2109 21.5488Z" fill="black"/>
<path fill-rule="evenodd" clip-rule="evenodd" d="M23.8242 11.0018C23.8242 11.7518 23.2148 12.3554 22.4707 12.3554C20.4023 12.3554 18.8672 11.535 17.8535 10.7089V19.9608C17.8535 21.121 17.5137 22.2401 16.8691 23.2011C16.2246 24.162 15.3164 24.9061 14.25 25.3514C13.5352 25.6444 12.7793 25.7968 12.0234 25.7968C11.6426 25.7968 11.2617 25.7616 10.8809 25.6854C9.74414 25.4569 8.71289 24.9061 7.89258 24.0858C7.07227 23.2655 6.52148 22.2343 6.29297 21.0975C6.2168 20.7167 6.18164 20.3358 6.18164 19.955C6.18164 19.1932 6.33398 18.4374 6.62695 17.7284C7.07227 16.6561 7.81641 15.7538 8.77734 15.1093C9.73828 14.4647 10.8633 14.1249 12.0176 14.1249C12.7676 14.1249 13.3711 14.7343 13.3711 15.4784C13.3711 16.2225 12.7617 16.8319 12.0176 16.8319C11.3965 16.8319 10.7988 17.0136 10.2832 17.3593C9.76758 17.705 9.36914 18.1854 9.13477 18.7597C8.97656 19.1405 8.89453 19.5448 8.89453 19.9491C8.89453 20.1542 8.91211 20.3593 8.95313 20.5643C9.07617 21.1737 9.36914 21.7245 9.80859 22.1639C10.248 22.6034 10.7988 22.8964 11.4082 23.0194C12.0176 23.1425 12.6387 23.078 13.2129 22.8436C13.7871 22.6093 14.2734 22.2108 14.6133 21.6952C14.959 21.1796 15.1406 20.5761 15.1406 19.9608V6.52528C15.1406 5.85731 15.6211 5.29481 16.2773 5.18934C16.9395 5.08387 17.5723 5.46473 17.7832 6.09754C17.9824 6.6952 18.4746 7.59754 19.2598 8.34168C20.1738 9.20887 21.252 9.64832 22.4707 9.64832C23.2148 9.64832 23.8242 10.2577 23.8242 11.0018Z" fill="black"/>
</g>
</g>
<defs>
<clipPath id="clip0_932_3833">
<rect width="30" height="30" fill="white" transform="translate(0 0.484375)"/>
</clipPath>
<clipPath id="clip1_932_3833">
<rect width="30" height="30" fill="white" transform="translate(0 0.484375)"/>
</clipPath>
</defs>
</svg>
