<svg width="31" height="31" viewBox="0 0 31 31" fill="none" xmlns="http://www.w3.org/2000/svg">
<g clip-path="url(#clip0_932_3829)">
<path d="M20.2134 14.5925L13.7848 10.3068C13.6234 10.1991 13.4358 10.1373 13.242 10.1279C13.0482 10.1185 12.8555 10.1619 12.6845 10.2535C12.5134 10.345 12.3704 10.4813 12.2708 10.6478C12.1712 10.8143 12.1186 11.0047 12.1187 11.1987V19.7702C12.1186 19.9642 12.1712 20.1546 12.2708 20.3211C12.3704 20.4876 12.5134 20.6239 12.6845 20.7154C12.8555 20.807 13.0482 20.8504 13.242 20.841C13.4358 20.8316 13.6234 20.7698 13.7848 20.6621L20.2134 16.3764C20.3603 16.2786 20.4809 16.146 20.5642 15.9904C20.6476 15.8348 20.6912 15.661 20.6912 15.4845C20.6912 15.3079 20.6476 15.1341 20.5642 14.9785C20.4809 14.8229 20.3603 14.6903 20.2134 14.5925ZM14.2616 17.7679V13.2077L17.6875 15.4845L14.2616 17.7679ZM29.5736 7.65231C29.4474 7.15858 29.2057 6.70192 28.8682 6.32003C28.5308 5.93813 28.1074 5.64194 27.633 5.45588C23.0419 3.68266 15.7348 3.69874 15.333 3.69874C14.9312 3.69874 7.62408 3.68266 3.03301 5.45588C2.55858 5.64194 2.1352 5.93813 1.79778 6.32003C1.46036 6.70192 1.21858 7.15858 1.09238 7.65231C0.745508 8.98891 0.333008 11.4318 0.333008 15.4845C0.333008 19.5371 0.745508 21.98 1.09238 23.3166C1.21839 23.8106 1.46008 24.2675 1.79751 24.6496C2.13494 25.0318 2.55843 25.3282 3.03301 25.5144C7.43122 27.2112 14.3151 27.2702 15.2446 27.2702H15.4214C16.3509 27.2702 23.2388 27.2112 27.633 25.5144C28.1076 25.3282 28.5311 25.0318 28.8685 24.6496C29.2059 24.2675 29.4476 23.8106 29.5736 23.3166C29.9205 21.9773 30.333 19.5371 30.333 15.4845C30.333 11.4318 29.9205 8.98891 29.5736 7.65231ZM27.4991 22.7862C27.4583 22.9506 27.3791 23.1029 27.268 23.2307C27.157 23.3585 27.0172 23.4581 26.8602 23.5215C22.6214 25.1581 15.412 25.1286 15.3424 25.1286H15.333C15.2607 25.1286 8.05667 25.1554 3.81515 23.5215C3.65815 23.4581 3.51839 23.3585 3.40735 23.2307C3.2963 23.1029 3.21713 22.9506 3.17631 22.7862C2.85086 21.5635 2.47586 19.3108 2.47586 15.4845C2.47586 11.6581 2.85086 9.40543 3.16694 8.18936C3.20699 8.02407 3.28583 7.87068 3.39691 7.7419C3.508 7.61311 3.64815 7.51262 3.80578 7.44874C7.89328 5.86972 14.7424 5.84159 15.3035 5.84159H15.3397C15.412 5.84159 22.6227 5.81749 26.8576 7.44874C27.0146 7.5121 27.1543 7.61177 27.2654 7.73958C27.3764 7.86738 27.4556 8.01969 27.4964 8.184C27.8152 9.40543 28.1901 11.6581 28.1901 15.4845C28.1901 19.3108 27.8151 21.5635 27.4991 22.7795V22.7862Z" fill="#1D1D1D"/>
</g>
<defs>
<clipPath id="clip0_932_3829">
<rect width="30" height="30" fill="white" transform="translate(0.333008 0.484375)"/>
</clipPath>
</defs>
</svg>
