<?xml version="1.0" encoding="UTF-8"?>
<svg id="Calque_2" data-name="Calque 2" xmlns="http://www.w3.org/2000/svg" viewBox="0 0 256.72 245.24">
  <defs>
    <style>
      .cls-1 {
        fill: #386641;
      }

      .cls-1, .cls-2 {
        stroke-width: 0px;
      }

      .cls-2 {
        fill: #f8f4e8;
      }
    </style>
  </defs>
  <g id="Calque_2-2" data-name="Calque 2">
    <g>
      <path class="cls-2" d="M171.94,16.47c13.09-.44,26.14,7.06,32.35,18.59,3.8,7.06,5.1,15.22,5.2,23.24.02,1.78,0,3.63.76,5.24.86,1.84,2.58,3.09,4.16,4.36,3.3,2.66,6.37,5.94,7.44,10.04s-.44,9.11-4.28,10.9c9.08-.27,16.94,7.18,20.13,15.69,3.19,8.51,2.72,17.89,2.21,26.96,14.16,13.41,20.15,34.85,14.98,53.66-.9,3.29-2.21,6.64-4.76,8.91-2.55,2.27-6.63,3.13-9.42,1.15-12.14,7.77-24.66,14.95-37.48,21.53-24.21,12.4-51.52,22.82-78.11,17.07,1.04,4.25-3.54,7.98-7.88,8.48s-8.7-.91-13.07-.73c-7.08.3-13.86,4.78-20.82,3.42-7.7-1.5-12.21-9.39-15.25-16.62-.63-1.49-1.28-3.05-2.52-4.1-1.28-1.07-2.99-1.44-4.62-1.76-17.14-3.34-36.66-6.78-46.09-21.48-7.82-12.2-5.78-28.2-1.56-42.07,1.34-4.41,2.86-9.28.95-13.48-2.74-6-11.26-7.77-13.71-13.9-1.75-4.38.88-9.96,5.36-11.41-3.23-3.84-3.15-9.64-1.12-14.23,2.03-4.59,5.67-8.24,9.23-11.78,4.69-4.66,9.37-9.31,14.06-13.97C55.62,52.81,83.49,23.91,118.66,7.46,127.86,3.16,137.75-.37,147.89.03c6.73.27,14.61,3.69,15.31,10.39.15,1.47,0,3.15,1.02,4.22,1.93,2,6.04-.39,7.72,1.83h0Z"/>
      <g>
        <g>
          <path class="cls-1" d="M112.53,219.3c2.87.18,5.72.16,8.59.3,6.73.37,14.62,1.01,21.28.53,7.72-.37,15.55-1.52,22.94-3.83,3.32-1.09,6.76-2.37,9.92-3.86,11.56-5.51,22.77-11.59,34.43-17.1,10.36-4.89,20.24-10.61,30.29-16.1.15-.09.3.15.15.25-4.69,3.33-9.33,6.65-14.12,9.84-15.79,9.96-31.79,19.91-49.76,25.64-5.43,1.79-11.05,3.56-16.59,4.98-3.41.95-7.13,1.68-10.63,2.24-9.33,1.43-18.82.29-28.05-1.2-2.4-.37-6.13-.83-8.5-1.39-.16-.03-.13-.3.04-.29h0Z"/>
          <path class="cls-1" d="M193.65,73.61c1.59-5.93,1.61-12.13-.75-17.82-3.21-8.36-8.71-15.69-17.44-18.66-2.69-.95-5.52-1.37-8.31-1.15-4.86.34-12.61,3.14-17.47,4.5-20.96,5.81-31,14.08-46.81,28.22-9.1,8.09-18.48,16.93-27.27,25.3-11.2,10.6-22.37,21.37-32.79,32.74-10.92,11.7-19.66,22.85-21.06,39.44-.93,10.1-1.79,22.46,6.84,29.56,1.19,1.07,2.58,1.4,3.65,2.71.07.08.02.21-.08.23-.91.2-1.71-.09-2.4-.5-2.15-1.14-3.99-2.81-5.5-4.7-4.12-5.04-5.19-11.82-5.26-18.12-.05-6.31.36-12.62,1.81-18.79,2.13-9.32,7.43-17.68,13.29-25.02,18.48-23.22,40.85-42.88,63.83-61.46,8.41-6.89,16.43-14.38,25.23-20.81,10.1-7.64,22.17-12.05,34.15-15.65,10.16-3.49,19.75-2.43,28.03,4.87,3.74,3.23,6.46,7.43,8.25,12,1.83,4.41,3.13,9.24,2.71,14.06-.24,3.21-1.18,6.26-2.36,9.14-.06.16-.32.07-.27-.09h-.02Z"/>
          <path class="cls-1" d="M246.02,180.7c-.21,3.03-1.7,6.69-5.01,7.4-1.31.31-2.83-.04-3.38-1.38-.73-2.08.08-4.14.76-6,.04-.1.07-.21.11-.31.07-.16.14-.32.19-.47,2.39-6.18-3.94-6.33-7.97-8.99-5.7-3.3-1.38-11.73-7.24-12.65-3.42-.17-6.59,2.27-10.22,2.13-.95-.06-1.99-.32-2.78-.83-.79-.47-1.44-.88-2.07-.79-.64.04-1.26.56-1.79,1.16-2.63,3.6-5.68,7.14-9.66,9.35-3.01,1.74-6.43,2.76-9.08,4.86-5.43,3.99-2.04,13.04-10.25,14.65-5.25.93-8.91,5.09-13.62,7.36-9.01,4.36-19.36,3.65-28.97,2.24-5.02-.73-10.46-1.54-15.33-.19-6.9,1.88-9.47,8.56-7.57,15.16.55,2.13,1.47,4.17,2.66,6,.15.25.31.49.49.72.42.61.88,1.19,1.36,1.74,1.82,1.96,2.06,5.31.19,7.4-.85,1.08-2.63,1.77-3.96,1.61-1.26-.07-2.18-.4-3.04-.63-1.56-.44-2.4-.79-3.88-.24-1.48.58-3.13,1.61-4.78,2.19-8.35,2.99-18.36-.38-22.99-7.93-1.56-2.72-2.34-6.33-.38-9.1.22-.29.47-.54.75-.76.28-.23.57-.42.88-.58.43-.22.86-.38,1.26-.47.96-.23,1.7-.34,2.14-.65,1.15-.75,1.38-2.46,1.4-3.83-.03-3.33-1.87-6.45-3.9-9.06-.71-.93-1.51-1.82-2.32-2.71-.17-.19-.34-.39-.51-.58-1.19-1.34-2.33-2.72-3.1-4.32-.14-.28-.26-.57-.37-.87-.05-.15.17-.26.26-.14.23.37.48.72.74,1.07,2.88,3.94,7.04,6.78,9.39,11.18,1.72,3.25,2.98,8.23-.26,11.08-1.44,1.09-2.7.85-3.83,1.72-1.84,1.82-.38,5.49,1.22,7.26,4.81,5.86,13.9,7.64,20.38,3.92,1.76-.97,3.86-1.99,6.1-1.73,1.81.17,3.55,1,5.05,1.16,1.25.15,1.49-1.55.67-2.48-1.25-1.48-2.24-3.13-3.06-4.84-4.45-8.99-2.5-20.87,8.49-23.31,7.22-1.57,14.24.7,21.28,1.42,3.47.38,6.96.55,10.41.29,5.12-.35,10.23-1.75,14.53-4.6,2.96-1.95,5.63-4.43,9.04-5.8,3.9-1.37,5.82-1.04,6.94-5.43.46-1.59.74-3.37,1.41-5.19.65-1.85,1.96-3.56,3.47-4.73,2.9-2.31,6.34-3.46,9.5-5.06,3.03-1.5,5.87-3.48,8.17-5.99,1.42-1.65,3.29-4.5,5.94-3.27,1.17.58,2.12,1.3,3.44,1.3,1.59.04,3.23-.52,4.88-1.1,2.44-.87,5.85-2.08,8.23-.07,3.58,3,1.09,9.03,5.33,11.36,3.85,2.19,10.42,2.98,9.64,9.04-.22,2.41-2.08,5.28-1.53,7.33.04,0,.19,0,.18,0,.77-.03,1.38-.39,1.92-1.03,1.94-2.55,1.42-6,.96-9.16-.74-5.18.37-10.47-1.17-15.47-1.47-4.9-4.43-9.22-7.15-13.53-1.83-2.88-3.82-5.56-6.25-7.9-.83-.87-1.77-1.46-2.82-1.95-.45-.22-.92-.42-1.4-.61-.14-.04-.11-.27.03-.29.49-.11.98-.15,1.46-.15,3.29.02,6.25,2.43,8.28,4.87,2.32,2.81,4.18,5.77,6.14,8.82,1.9,3.02,3.67,6.27,4.68,9.88,1.06,3.52.98,7.35.84,10.92-.26,3.69.61,6.82.45,10.59h0Z"/>
          <path class="cls-1" d="M73.05,150.6c-.89,1.29-1.36,2.72-1.22,4.3.1,1.56.22,3.24-.19,4.79-1.06,4.62-4.36,8.35-3.92,13.07.72,4.5,2.02,9.14,2.9,13.66.43,3.46,2.58,4.23,5.87,4.22,3.08-.06,6.24-.2,9.36-.37,12.5-.65,24.96-1.99,37.4-3.41,4.47-.55,9.17-.88,12.23-4.29.91-1.04,1.55-2.3,1.74-3.58.23-1.45-.4-3.03-.33-4.47-.04-1.64.07-3.2.03-4.68-.27-2.95-.85-6.07-1.9-8.84-1.11-2.79-2.87-5.38-4.58-8.01-1.62-2.64-3.52-5.47-3.79-8.63-.03-.13.18-.18.21-.05.25,1.55,1.04,2.89,1.82,4.23,2.49,4.06,5.85,7.34,7.91,11.79,2,4.58,2.64,9.22,2.51,14.11.02,1.69.67,3.17.39,4.87-.54,3.58-3.32,6.41-6.52,7.71-3.14,1.31-6.42,1.53-9.51,1.84-10.83,1.13-26.51,2.04-37.53,2.78l-9.42.6c-3.9.2-7.11-1.09-7.75-5.44-.95-4.7-2.28-9.14-2.82-13.94-.36-5,3.45-9.08,4.77-13.45.82-2.24.11-4.68.9-6.94.31-.76.77-1.41,1.27-2.03.08-.11.25.02.17.13h0v.03Z"/>
          <path class="cls-1" d="M132.96,155.46c-15.7,7.23-33.41,4.37-50.07,6.05-2.2.39-4.82.19-6.15,1.95-.33.5-.52,1.23-.76,2.05-.97,3.23-2.03,6.43-3.15,9.62-1.11,3.19-2.29,6.36-3.59,9.49-.02.06-.09.08-.14.06.36-3.31,1.37-6.73,2.1-10.03.8-3.28,1.65-6.54,2.6-9.78.24-.79.48-1.71,1.09-2.63.62-.95,1.62-1.57,2.55-1.88,1.8-.58,3.45-.6,5.24-.82,3.39-.33,6.78-.57,10.16-.74,6.73-.34,13.47-.28,20.18-.67,6.67-.33,13.32-1.16,19.75-3.16.14-.04.29.03.33.17.04.13-.02.27-.14.32h0Z"/>
          <path class="cls-1" d="M138.24,171.92c3.02,2.75,5.86,5.89,9.34,8,1.71.96,3.71.67,5.65.62,10.1-.52,21.25-2.28,28.04-10.55,2.29-3.42,1.87-8.21,1.83-12.45-.02-4.42-.03-8.8-.65-13.06-.35-2.18-.46-4.45-1.25-6.14-.83-1.9-2.7-2.86-4.42-4.03-2.76-1.84-5.51-3.71-8.21-5.65-.89-.64-1.85-1.26-2.62-2.08-.09-.08.04-.25.14-.16.88.65,1.87,1.12,2.85,1.64,3.97,2.13,7.83,4.12,11.68,6.52,2.05,1.34,3.24,3.94,3.57,6.26,1.16,5.52,1.17,11.23.91,16.73-.09,4.41-.05,9.45-3.03,13.11-3.03,3-6.59,5.35-10.41,7.19-6.66,3.27-14.14,4.96-21.59,4.55-3.47-.21-5.89-3.08-8.09-5.41-1.4-1.58-2.67-3.25-3.91-4.94-.08-.1.07-.23.16-.14h0Z"/>
          <path class="cls-1" d="M150.44,181.42c-1.5-8.8-2.88-17.6-3.89-26.46-.34-2.96-.53-5.89-.67-8.9-.03-.78-.04-1.66.23-2.59.76-2.67,3.79-3.75,6.05-4.33,5.1-1.24,12.31-3,17.46-3.7,2.93-.48,5.89-.87,8.85-1.17.06,0,.11.03.12.09-2.36,1.11-6,1.95-8.61,2.75-2.87.79-5.74,1.53-8.64,2.16l-4.37.86c-2.69.6-5.76.75-7.9,2.56-.97.9-.89,1.89-.73,3.17.42,2.91.81,5.88,1.04,8.83.72,8.89,1.06,17.79,1.28,26.71,0,.12-.2.15-.22.02h0Z"/>
          <path class="cls-1" d="M177.24,76.74c-.06.06-.12.12-.17.18-1.34-1.7-2.91-3.2-4.64-4.44l.42-.57c.08-.11-.06-.25-.17-.18-.24.14-.48.27-.71.43-.09-.07-.19-.14-.28-.2-.85-.54-2.06-1.37-3.02-1.35-.83.06-1.83.98-2.84,1.7-2,1.51-3.97,3.05-5.88,4.66-.93.81-1.93,1.64-2.8,2.43-.48.47-.92.96-.73,1.42h-.02s-.08-.05-.12-.07c-.02-.03-.05-.04-.08-.06l.07.06c-.5-.26-1.01-.57-1.55-.85-.07-.03-.13.05-.1.11.37.66.84,1.31,1.42,1.83-.17-.11-.34-.21-.51-.31-.1-.06-.21.05-.17.15.3.64.64,1.25,1.02,1.84-.13.09-.28.17-.45.24-23.81,9.37-43.98,25.61-63.34,42-7.28,6.13-14.48,12.47-20.84,19.55,0-.39,0-.79.06-1.18.02-.13-.2-.17-.22-.04-.11.52-.16,1.04-.16,1.57h0c-.85.95-1.67,1.91-2.48,2.88-4.47,5.47-9.29,10.92-11.73,17.58-3.49,9.38,1.22,15.85,7.9,22.27,3.59,3.48,7.76,6.17,12.39,8.13.17.19.34.39.51.58-9.03-1.71-17.14-7.51-22.49-14.95-4.9-6.7-3.69-15.99.71-22.54,3.04-4.78,7.13-8.65,11.14-12.56,5.38-5.04,10.87-9.88,16.34-14.76,11.02-9.67,21.62-19.78,33.17-28.84,11.26-8.97,23.48-16.94,37.11-21.77-.22-.67-.17-1.43.06-2.07.96-2.15,2.9-2.96,4.52-4.36,2.57-1.91,5.17-3.71,7.91-5.36,2.23-1.47,4-.28,5.82,1.22,1.95,1.6,3.65,3.49,4.93,5.63h0Z"/>
          <path class="cls-1" d="M71.81,144.13c-.05.39-.07.79-.06,1.18-.11.12-.21.23-.32.35,0-.53.05-1.05.16-1.57.02-.13.24-.09.22.04Z"/>
          <path class="cls-1" d="M78.63,197.21c-.2-.03-.41-.07-.61-.11-.17-.19-.34-.39-.51-.58.39.17.78.33,1.17.48.12.03.07.24-.05.21h0Z"/>
          <path class="cls-1" d="M157.1,82.55s0,.03-.01.04c-.04.17-.13.33-.25.49-.15.19-.3.33-.46.44-.38-.59-.72-1.2-1.02-1.84-.04-.1.07-.21.17-.15.17.1.34.2.51.31-.58-.52-1.05-1.17-1.42-1.83-.03-.06.03-.14.1-.11.54.28,1.05.59,1.55.85l-.07-.06s.06.03.08.06c.04.02.08.04.12.07h.02v.02c.53.41.85,1.08.68,1.71h0Z"/>
          <path class="cls-1" d="M172.85,71.91l-.42.57c-.15-.12-.3-.22-.46-.32.23-.16.47-.29.71-.43.11-.07.25.07.17.18Z"/>
          <path class="cls-1" d="M177.13,77s-.04-.05-.06-.08c.05-.06.11-.12.17-.18.02.05.05.09.08.14.07.11-.11.23-.19.12Z"/>
          <path class="cls-1" d="M113.24,112.06c-3.32.65-5.05,2.87-4,6.2,1.25,4.06,4.5,7.32,8.37,9.03,5.33,2.22,12.2.76,16.4-3.07,1.87-1.88,2.13-4.72-.11-6.41-2.27-1.63-5.04-2.88-7.64-3.94-4.1-1.62-8.56-2.88-13.01-1.81h0ZM113.19,111.85c6.88-1.75,14.02-.89,20.14,2.85,4.55,2.19,5.82,7.35,1.87,10.79-1.28,1.11-2.8,1.72-4.27,2.19-5.85,1.72-12.72,2.29-18.05-1.18-5.46-3.43-8.04-13.27.31-14.65h0Z"/>
          <path class="cls-1" d="M203.79,76.66c-2.78-2.15-6.01-3.5-9.4-4.17-.15-.03-.3-.06-.45-.09-1.92-.35-3.89-.49-5.84-.43-4.04.26-8.01,1.91-10.86,4.77-.06.06-.12.12-.17.18-.35.36-.68.73-.99,1.13-2.39,2.84-1.58,6.56.54,9.33.15.21.31.4.49.59,1.02,1.18,2.28,2.14,3.61,2.72,3.13,1.47,6.65,1.56,9.99,1.27,3.15-.27,6.64-.63,9.56-2.01.24-.11.47-.23.7-.36,1.3-.71,2.46-1.65,3.39-2.92,2.2-2.85,2.46-7.57-.57-10.01h0ZM203.36,86.03c-.78,1.4-1.9,2.42-3.2,3.16,0,0-.01,0-.02,0-2.76,1.54-6.36,1.81-9.44,1.57-4.61-.32-9.56-1.07-13.03-4.25-2.32-1.99-3.75-5.79-1.42-8.33,5.1-6.28,15.49-4.51,22.18-2.06,1.44.57,2.93,1.22,4.03,2.09,2.41,1.83,2.29,5.3.9,7.81h0Z"/>
          <path class="cls-1" d="M123.84,111.05c1.3-4.33,4.59-8.01,8.47-10.28,3.01-1.55,6.22-2.83,9.61-3.12,3.73-.32,7.78,2.18,7.53,6.31-.1,3.89-3,6.74-6.08,8.49-2.89,1.68-5.79,3.21-8.87,4.53-.11.05-.21-.1-.12-.18,1.66-1.49,3.4-2.84,5.17-4.17,3.19-2.48,7.26-4.54,7.86-8.79.39-3.05-2.56-5.44-5.47-5.46-3.3-.11-6.12,2.02-8.64,3.9-1.71,1.28-3.41,2.54-4.95,4.02-1.57,1.45-2.95,3.08-4.3,4.84-.06.1-.23.02-.19-.1h-.02Z"/>
          <path class="cls-1" d="M131.01,109.97c-.34.75-.1,1.28.78.96,1.13-.32,2.22-.71,3.35-.86,1.32-.17,2.96-.4,3.62-1.74.33-.55.49-1.71-.08-1.98-1.33-.37-2.93.62-4.2,1.19-1.24.6-2.82,1.07-3.47,2.42h0ZM130.81,109.88c.45-.89.85-1.86,1.42-2.81,1.2-1.92,3.57-3.07,5.83-2.84.98.01,2.33.88,2.31,2.1,0,1.49-1.18,2.68-2.11,3.57-.81.68-1.59,1.42-2.58,1.9-1.23.61-2.68.57-3.95.08-1.11-.28-1.46-.96-.92-2h0Z"/>
          <path class="cls-1" d="M184.75,135.96c-.75-10.05,3.04-11.31,10.08-16.89,5.35-4.19,10.83-8.19,16.39-12.08l4.21-2.89c2.43-1.82,6.16-3.03,8.61-.44,2.16,2.06,2.25,5.53,2.18,8.08l-.14,10.22c-.08,3.03-.09,7.22-.27,10.2-.44,10.83-.99,11.08-9.49,17.6-4.01,3.16-8.04,6.29-12.2,9.25-4.26,2.89-8.94,6.59-14.35,6.5-2.1-.02-4.32-1.72-4.63-3.91-.44-2.25.05-4.33-.12-6.5-.39-6.36.09-12.76-.27-19.12h0v-.02ZM185.85,135.92c.27,6.56,1.39,13.07,1.61,19.64.19,2.15-.59,4.46.25,6.42,1.35,2.25,4.67,1.19,6.66.35,4.6-1.98,8.48-5.22,12.6-8.1,2.75-1.98,5.47-3.99,8.16-6.04,2.41-2.01,5.57-3.89,7.05-6.64,1.22-2.3.84-6.9,1.05-9.54l.54-10.15c.17-3.38.22-6.76.15-10.14.19-4.9-1.62-9.38-6.85-5.3-6.77,5.04-13.77,9.99-20.84,14.58-7.01,4.83-10.84,5.21-10.37,14.91h0Z"/>
          <path class="cls-1" d="M168.87,121.07c3.87.71,7.57,2.05,11.22,3.49,2.24.72,4.39,1.57,6.38,2.91.27.18.35.55.16.82-.13.19-.35.28-.57.26-1.59-.19-3.11-.62-4.58-1.17-4.29-1.93-8.59-3.77-12.69-6.11-.1-.06-.04-.23.08-.2h0Z"/>
          <path class="cls-1" d="M209.39,98.52c2.29.31,4.38,1.15,6.6,1.68,2.2.54,4.35,1.24,6.36,2.3.93.48.38,1.93-.63,1.69-3.36-.69-6.28-2.54-9.4-3.85-1.03-.48-2.03-1.01-3.01-1.61-.1-.06-.04-.23.08-.2h0Z"/>
          <path class="cls-1" d="M208.93,104.2c-2.32.53-4.06-.58-6.24-.34-1.05.12-2.81.3-3.53,1.05-.24.64.15,1.56.27,2.4.44,2.99-1.48,5.86-4.03,7.25-2.95,1.59-6.58,1.37-9.65.64-1.99-.46-3.84-.86-5.21.1-.82.54-1.76,1.29-2.72,1.68-2.07.91-4.44,1.07-6.61.41-.51-.16-.91-.26-1.06-.21-.54.16-.44,1.13-.43,1.72.11.79.09,1.57-.02,2.34-.03.16-.06.32-.1.48-.4,1.93-1.45,3.72-2.88,5.11-.08.09-.17.17-.26.24-.6.57-1.27,1.06-1.97,1.46-3.81,2.18-8.41,2.04-12.51,1.03-.98-.19-1.23-.47-1.81.38-.25.36-.49.87-.96,1.37-.45.5-1.18.82-1.82.9-1.02.17-1.91-.03-2.77.4-.73.35-1.42,1.09-2.36,1.74-2.6,1.93-6.21.59-8.76,2.26-1.61,1.13-1,2.97-.75,4.76.14,1.13.15,2.34-.45,3.56-1.29,2.22-3.25,1.94-4.98,1-.16-.09-.32-.18-.47-.28-.4-.25-.78-.53-1.13-.81-.71-.48-1.46-.99-2.27-1.05-.68-.05-1.5.31-2.32.81-1.67.98-3.33,2.35-5.49,3.11-2.26.76-5.09.61-6.74-1.41-1.16-1.47-1.3-3.2-3.04-1.09-2.1,2.4-4.74,4.32-7.65,5.62-2.8,1.34-5.84,2.6-9,2.68-4.2.26-8.24-.52-12.21.11-2.69.46-3.54-.27-4.32-2.43-.04-.11-.08-.22-.11-.33-.08-.21-.15-.43-.22-.66-.49-1.44-.92-2.98-.92-4.53h0c0-.54.05-1.06.16-1.58.02-.13.24-.09.22.04-.05.39-.07.79-.06,1.18.03,1.6.55,3.18,1.16,4.68.35.72.72,2.04,1.34,2.53.62.52,1.62.38,2.6.19,4.12-.82,8.31-.25,12.25-.61,3.99-.31,7.59-2.22,10.96-4.25,1.64-1.09,3.11-2.39,4.39-3.88.67-.88,1.48-1.44,2.29-1.6.36-.09.73-.08,1.08.02.67.17,1.29.65,1.8,1.49.31.47.55.9.8,1.19.91,1.16,2.95,1.37,4.58.79,2.21-.65,4.49-3.03,6.96-3.75.28-.09.56-.15.84-.18.83-.11,1.7.01,2.59.48,1.58.62,3.99,3.72,5.27,1.65.86-1.74-.2-3.64-.02-5.67.01-.65.18-1.23.47-1.74.22-.37.49-.7.81-1,1.02-.96,2.49-1.53,3.82-1.63.69-.09,1.39-.12,2.07-.16.42-.03.84-.06,1.25-.12.8-.11,1.55-.33,2.24-.8.75-.49,1.48-1.28,2.59-1.84,1-.54,2.27-.4,3.25-.52.41-.07.67-.18.88-.41.43-.44.81-1.39,1.44-1.89.3-.31.73-.46,1.18-.5.17-.02.35-.02.53,0,.46.02.9.11,1.2.22,3.72.94,7.94,1.11,11.34-.82,1.4-.8,2.62-1.99,3.42-3.39.12-.21.24-.43.34-.65.39-.84.63-1.75.67-2.69.09-1.05-.48-3.04.54-4.24.28-.34.68-.56,1.09-.67.86-.18,1.47.11,1.93.22.53.16,1.06.25,1.6.28.25.02.51.02.76.01,1.99-.09,3.89-1.01,5.46-2.32.13-.09.26-.18.4-.26.24-.13.49-.25.74-.34,1.75-.61,3.84-.25,5.51.16,1.64.38,3.28.6,4.86.49.29-.02.57-.06.86-.1.11-.01.22-.03.33-.06,2.3-.38,4.27-1.85,5.05-3.82.11-.24.19-.49.24-.74.22-.92.19-1.93-.17-2.97-.11-.66-.08-1.45.32-2.09.3-.5.77-.81,1.26-1.03.15-.06.3-.12.45-.17.09-.03.19-.06.29-.08,1.98-.64,4.2-.7,6.2-.2,1.3.22,2.63.75,3.4-.29.51-1.16-.43-2.49-1.09-3.49-1.11-1.65-2.34-3.23-3.68-4.71l-.39-.42c-.61-.66-1.24-1.3-1.89-1.92-.23-.21-.46-.43-.69-.63-.41-.38-.82-.74-1.25-1.1-.06-.06-.13-.11-.2-.17-.23-.18-.13-.47.07-.58.01,0,.02,0,.02,0,.11-.04.23-.04.34.04.16.12.32.23.47.36,3.14,2.35,5.94,5.2,8.26,8.4.15.18.3.37.43.58.13.18.25.37.36.57,1.03,1.81,1.42,4.19-1.09,5.06h0Z"/>
          <path class="cls-1" d="M31.48,198.18c4.48,1.24,9.36-.32,13.76,1.65,4.07,1.71,7.79,3.29,11.92,4.74,3.9,1.5,8.21,3.12,12.06,4.69,3.92,1.7,7.71,3.59,11.71,5.17.06.02.08.09.06.14-.02.04-.06.07-.1.07-.56.03-1.1-.06-1.64-.13-1.62-.23-3.21-.59-4.78-1.04-4.18-1.12-8.07-2.99-11.99-4.74-3.96-1.7-8.1-2.68-12.15-4.18-2.06-.74-4.06-1.65-5.96-2.41-3.91-1.89-8.37-1.12-12.26-3.23-.26-.16-.49-.37-.72-.55-.05-.04-.06-.11-.02-.15.03-.04.08-.05.12-.04h0Z"/>
          <path class="cls-1" d="M186.27,82.36c-.69.52-.61,1.2.34,1.07.61-.08,1.2-.21,2.04-.14,1.21.14,2.43.51,3.64.18.86-.18.8-1.16.06-1.41-.65-.26-1.89-.31-2.71-.32-1.11,0-2.45-.1-3.37.62h0ZM186.14,82.19c.65-.48,1.17-1.16,1.87-1.79,1.08-.99,2.7-1.15,4.07-.75,1.03.29,2.26,1.06,2.39,2.31.14.91-.48,1.85-1.34,2.13-.68.19-1.29.05-1.95.21-1.24.24-2.29,1.04-3.63.93-1.64-.09-3.27-1.87-1.4-3.04h-.01Z"/>
          <path class="cls-1" d="M119.23,118.25c-.21.82.66,1.29,1.3,1.56,1.52.55,2.08,2.01,3.57,2.38.55.12,1.55-.14,1.65-.71-.01-.18-.14-.17-.3-.36-.93-.91-2.28-1.38-3.45-2.03-.74-.32-2.14-2-2.76-.85h0ZM119.02,118.19c.11-.46.56-.75,1-.88,1.29-.42,2.68-.35,3.89.17,1.53.62,4.22,2.82,2.81,4.67-.84.76-1.71.66-2.67.74-.84.02-1.82.04-2.67-.32-1.64-.7-2.59-2.69-2.36-4.38h0Z"/>
          <path class="cls-1" d="M177.24,87.84s-.09.08-.13.13c-2.8,2.73-6.64,6.97-10.93,5.11-1.68-.81-2.82-2.38-4.11-3.58-.82-.8-1.8-1.45-2.65-2.22-1.16-1.13-2.19-2.39-3.04-3.76-.38-.59-.72-1.2-1.02-1.84-.04-.1.07-.21.17-.15.17.1.34.2.51.31.37.23.72.46,1.06.71.07.05.14.1.21.16,1.29.95,2.44,2.04,3.48,3.28,1.67,2.57,3.98,5.73,7.35,5.53.86-.08,1.71-.55,2.64-1.08,1.84-1.1,3.73-2.23,5.84-3.06.07-.03.15-.06.22-.09.32-.16.65.29.4.55h0Z"/>
          <path class="cls-1" d="M156.52,89.6c1.08.13,1.77.92,2.59,1.49.75.57,1.54,1.1,2.31,1.65,1.88,1.31,4.04,3.62,3.89,6.32-.05.82-.29,1.84-1.03,2.38-.26.19-.53.3-.77.38-2.26.65-4.41,1.65-6.46,2.77-1.8,1.11-3.51.7-4.55-1.18-1.1-2.03-2.44-4.17-3.33-6.34-.87-2.08-.78-4.98,1.62-6.07,1.86-.88,3.68-1.39,5.74-1.4h-.01ZM156.46,90.25c-1.69-.02-3.53,1-4.78,2.08-2.01,1.78-.13,4.36.73,6.37l1.19,2.54c.41.86.75,1.74,1.12,2.16.19.2.35.32.67.34,2.62-.49,5.33-1.55,7.71-2.8.78-.42.73-1.07.64-1.83-.4-2.09-2.03-3.61-3.39-5.23-.62-.7-1.22-1.42-1.86-2.11-.64-.67-1.27-1.45-2.04-1.52h0Z"/>
          <path class="cls-1" d="M85.57,148.95c.93.78,1.99,1.69,3.21,1.79.18-.02.29-.1.43-.24,1.52-1.97,3.07-4.1,4.76-5.94.43-.54,1.59-1.65,1.86-2.17.36-.39-.7-1.37-1.31-2.1-.7-.77-1.43-1.5-2.19-2.22-.76-.7-1.53-1.47-2.33-1.83-.79-.38-1.58-.16-2.6.07-1.18.29-2.52.48-3.68.77-.14.07-.08.04-.17.13-.88,1.2-1.84,2.5-2.77,3.65l-.93,1.14c-.12.15-.25.4-.3.52-.06.04.21.42.57.75,1.86,1.83,3.43,4.02,5.44,5.68h0ZM85.43,149.11c-1.57-1.36-3.35-2.48-5.12-3.6-1.35-.85-3.39-1.78-2.77-3.78.18-.63.57-1.18.96-1.69.77-1.03,1.58-2.08,2.41-3.06.38-.42.64-.81,1.07-1.26.45-.55,1.44-.79,2.06-.82,1.03-.12,2.07-.24,3.1-.32,2.93-.44,4.06.98,5.73,2.97,1,1.13,2.18,2.3,3.32,3.3,1.33,1.07.83,2.23.06,3.47-1.32,2.29-3.04,4.36-5.14,5.98-.44.3-.85.72-1.35.99-1.58.85-3.18-1.36-4.32-2.17h-.01Z"/>
          <path class="cls-1" d="M90.47,135.79c-.4,1.75-1.76,2.9-3.22,3.77-1.97,1.93-3.3,4.19-5.6,5.86-.05.04-.14,0-.13-.07.28-3.17,3.12-4.51,5.25-6.32.97-1.34,2.07-2.57,3.58-3.33.06-.03.13.02.12.09h0Z"/>
          <path class="cls-1" d="M107.96,143.64c-1.22-1.23-2.33-2.34-3.09-3.9-.41-.88.16-2.19.93-2.66,1.37-.95,2.94-1.3,4.38-2.08,1.11-.59,2.16-1.28,3.18-2.03.61-.4.97-.82,1.73-1.15.49-.26,1.45-.05,1.81.36.4.39.52.6.73.85,2.45,2.95,4.41,6.21,5.52,9.95.03.1-.1.19-.18.11-3.03-2.79-5.31-6.08-7.41-9.52-.03-.04,0-.02.06-.01.06,0,.07-.03.01-.02-.11,0-.41.15-.7.27-1.43.63-2.89,1.29-4.21,2.14-1.06.67-2.01,1.53-3.06,2.24-.53.34-.93.65-1.01.79-.04.06-.08.09-.05.27.46,1.39,1.23,2.79,1.54,4.3.03.1-.11.19-.19.11h0v-.02Z"/>
          <path class="cls-1" d="M172.88,96.67c.19-.37.38-.79.76-1.13.38-.35.92-.47,1.38-.5,3.44.04,6.86.3,9.95,1.96.6.37,1.46.64,1.7,1.46.08.36-.04.65-.12.85-.35.81-.8,1.53-1.22,2.27-1.17,2.11-2.29,4.5-5.18,3.96-2.57-.39-10.38-.26-10.53-3.78,0-.89.57-1.54,1.14-2.08.86-.88,1.55-1.92,2.12-3.02h0ZM173.36,96.91c-.58,1.32-1.59,3.23-2.04,4.45-.03.28.08.31.16.37.11.07.34.19.67.32,1.14.42,3.35.68,4.61.93,1.18.2,3.54.64,4.71.87,1.04.08,1.8-.98,2.47-1.7.84-.94,1.87-2.17,1.91-3.45-.03-.05-.11-.12-.25-.19-1.86-.67-3.94-.75-5.88-1.21-1.18-.26-2.46-.7-3.6-1.1-1.2-.47-2.2-.7-2.77.71h.01Z"/>
          <path class="cls-1" d="M176.91,103.99c.86,0,.77-.73,1.31-1.28,1.34-1.01,1.72-2.69,2.55-4.07.46-.65,1.02-1.25,1.82-1.72.04-.02.09,0,.11.03.04,1.38-.51,2.51-1.35,3.49-.48.66-1.14,1.19-1.55,1.9-.39.79-.64,1.67-1.51,2.1-.46.28-1.29.22-1.48-.35-.02-.06.04-.12.1-.1h0Z"/>
          <path class="cls-1" d="M151.14,128.52c-1.64-2.3-2.86-4.82-3.89-7.42-.73-1.81-1.86-4.56.14-6,.76-.58,1.81-.91,2.64-1.3,1.68-.77,3.28-1.69,4.87-2.64,2.13-1.22,5.07-3.75,7.36-1.45,1.1,1.16,1.58,2.56,2.23,3.91,1.45,3.43,2.61,6.98,3.2,10.7.02.11-.14.18-.2.07-1.9-3.23-3.51-6.52-5.1-9.82-.38-.81-.78-1.7-1.12-2.46-.28-.58-.57-1.14-1.13-1.31-.44-.13-1.23.15-2.06.52-2.55,1.07-5.17,2.03-7.6,3.37-2.51,1.38-3.05,1.71-1.87,4.45,1.03,3.07,2.02,6.09,2.73,9.28.03.11-.14.19-.2.09h0Z"/>
          <path class="cls-1" d="M163.72,114.88c-2.2,2.3-5.45,3.05-8.35,4.05-1.42.42-3.15,1.25-4.7,1.14-1.82-.16-3.39-1.57-3.64-3.2-.01-.07.08-.12.13-.06,2.25,2.44,5.11,1.85,7.86.98,2.93-.81,5.6-2.15,8.39-3.35.27-.14.54.24.32.45h0Z"/>
          <path class="cls-1" d="M117.85,135.35c-1.18,2.14-3.44,2.77-5.3,4.06-1.47.92-2.97,2.28-4.86,1.89-.63-.13-1.27-.49-1.56-1.05-.02-.04,0-.09.03-.11,1.14.23,2-.03,2.9-.43,1.39-.54,3.05-1.22,4.38-2.05,1.31-1.08,2.6-1.98,4.32-2.43.06-.02.13.06.09.12h0Z"/>
          <path class="cls-1" d="M172.85,71.91l-.42.57c-1.02,1.33-2.19,2.49-3.47,3.53-1.55,1.07-3.1,2.13-4.47,3.44-1.51,1.19-2.86,2.89-4.73,3.53-.9.2-1.72.07-2.45-.27-.08-.03-.15-.07-.22-.12-.38-.19-.73-.45-1.05-.75-.58-.52-1.05-1.17-1.42-1.83-.03-.06.03-.14.1-.11.54.28,1.05.59,1.55.85h.01s.08.04.12.07h.02c.25.13.49.24.74.33,1.78.7,2.82.08,4.37-.96l2.34-1.55c1.6-.99,2.95-2.28,4.26-3.61,1.2-1.07,2.47-2.04,3.84-2.87.23-.16.47-.29.71-.43.11-.07.25.07.17.18h0Z"/>
          <path class="cls-1" d="M160.34,92.94c-.68.83-1.49,1.4-2.37,1.82-.94.3-1.88.59-2.69,1.19-.99.56-1.6,1.23-2.87,1.41-1.35.03-2.22-1.01-2.56-2.14-.01-.04.01-.09.05-.1.82.24,1.62.84,2.4.71,1.19-.25,2.71-.87,3.86-1.41,1.23-.9,2.48-1.57,4.11-1.6.07,0,.11.08.07.13h0Z"/>
          <path class="cls-1" d="M97.55,125.77c.19-.34.4-.72.8-1.02.38-.3.97-.31,1.42-.21,2.66.83,5.48,1.34,7.74,3.04,1.36,1.22.38,2.61-.38,3.79-.79,1.34-1.34,2.8-2.04,4.19-.56,1.37-1.58,2.33-3.15,1.58-1.28-.45-2.45-1.13-3.66-1.72-1.5-.84-3.79-1-4.27-3.04-.1-.66.22-1.23.43-1.62.91-1.78,2.18-3.3,3.11-5h0ZM98.05,126.07c-1,1.61-2.2,3.18-2.6,5.02-.03.33.24.58.41.64,2.04,1.83,4.94,2.52,7.23,3.99.03.03,0,.05.05.06.38-.06.61-.45.92-.82,1.14-1.52,2.24-3.15,2.79-4.99.14-.37.25-.69.2-.86-.05-.34-.63-.65-1.28-.89-1.45-.49-2.84-1.11-4.21-1.82-.68-.34-1.39-.73-2.04-1.03-.32-.14-.57-.16-.81-.04-.25.13-.46.43-.67.74h0Z"/>
          <path class="cls-1" d="M100.6,135.43c.23-1.39.99-2.22,1.89-3.1,1.09-1.74,1.06-3.62,2.15-5.45.03-.06.11-.06.14,0,1.04,1.64.23,3.54-.84,4.91-.88.94-1.01,2.34-2.11,3.09-.33.26-.69.5-1.13.66-.06.02-.12-.03-.11-.09h0v-.02Z"/>
          <path class="cls-1" d="M127.3,128.44c.88.34,1.54.87,1.89,1.68.12.38.1.84.25,1.21.52,1.07,1.64,1.78,2.17,2.85.35.82.42,1.65.22,2.59-.02.08-.09.13-.17.11-1.3-.45-2.19-1.41-2.51-2.69-.32-.72-.31-1.63-.78-2.28-.23-.33-.63-.56-.88-.88s-.35-.71-.43-1.12c-.06-.42-.09-.85.06-1.37.02-.08.11-.13.19-.1h-.01Z"/>
          <path class="cls-1" d="M134.71,124.97c.87.49,1.48,1.14,1.8,2.03.11.42.08.9.22,1.3.47,1.2,1.53,2.11,2.06,3.28.33.88.4,1.78.18,2.76-.02.08-.09.12-.17.11-1.35-.6-2.23-1.71-2.52-3.12-.31-.81-.3-1.75-.74-2.51-.21-.38-.59-.68-.82-1.06-.43-.84-.48-1.75-.21-2.72.03-.08.12-.12.2-.08h0Z"/>
          <path class="cls-1" d="M128.44,130.51c.7.26.99-.06,1.62-.24.66-.13,1.38-.3,1.94-.72.27-.28,4.68-2.36,4.09-1.27-1.02,1.04-2.22,1.9-3.62,2.31-.74.16-1.3.57-1.96.93-.71.37-2.19.07-2.2-.94,0-.06.07-.1.13-.07h0Z"/>
          <path class="cls-1" d="M199.61,103.53c-1.77-1.3-2.69-3.18-3.42-5.17-.54-.93-1.39-2.54-.46-3.69,1.68-1.83,4.11-2.85,6.35-3.87.35-.15.67.32.41.6-1.6,1.72-3.42,3.26-5.4,4.47-.16.12-.3.19-.4.4-.49,1.16.92,2.38,1.59,3.27.78,1.17,1.29,2.47,1.51,3.89.02.1-.11.17-.19.11h0Z"/>
          <path class="cls-1" d="M204.75,93.67c-.5.79-1.15,1.38-1.95,1.8-.82.3-1.65.58-2.31,1.19-.61.51-1.34.98-1.84,1.53-.51.5-.93.97-.89,1.8,0,.05-.03.09-.07.09-1.08-.5-.89-2.2-.15-2.94.71-.71,1.57-1.01,2.44-1.37,1.3-.38,2.03-1.64,3.35-1.98.42-.13.86-.25,1.35-.25.06,0,.11.07.07.12h0Z"/>
          <path class="cls-1" d="M192.5,114.48c-1.17-.38-2.13-1.1-2.98-1.94-.45-.45-1.06-1.16-.94-1.97.14-.79.8-1.1,1.2-1.65.9-1.02,1.24-2.48,2.09-3.55.11-.13.32-.45.86-.65,1.32-.34,2.12.64,2.82,1.46.95,1.28,1.79,2.52,2.55,3.91.06.1-.07.21-.16.15-1.73-1.06-3.06-2.64-4.76-3.58-.07-.03-.02.02.15-.03.17-.08.11-.1-.03.05-.41.4-.88.72-1.36,1.05-.94.63-1.77,1.52-2.12,2.59-.08.27.03.32.17.45.97,1.03,1.91,2.25,2.64,3.54.05.09-.04.2-.14.17h.01Z"/>
          <path class="cls-1" d="M190.61,112.58c.1-.68.36-1.25.83-1.7.23-.19.54-.32.76-.52.62-.65.91-1.58,1.47-2.27.41-.43.91-.79,1.64-1.01.05-.01.1.01.11.06.03,1.12-.42,1.92-1.2,2.56-.42.44-1.01.74-1.37,1.24-.18.25-.28.57-.46.82-.42.51-.99.81-1.68.92-.06,0-.11-.04-.1-.1h0Z"/>
          <path class="cls-1" d="M173.8,116.82c-.95-1.33-1.64-2.93-1.42-4.59.14-.72.94-1.18,1.46-1.4,1.08-.5,1.9-1.42,2.91-2.05.46-.27.78-.53,1.51-.49,1.87.19,2.54,4.29,2.44,5.83,0,.1-.15.15-.21.06-1.06-1.34-1.88-2.65-2.74-3.99-.04-.02.11.11.27.12.15,0,.13-.04.04,0-.23.09-.61.28-.88.37-1.09.43-2.72.57-3.4,1.58-.05.15.06.35.08.48.24,1.32.29,2.63.15,4.01,0,.1-.15.14-.21.06h0Z"/>
          <path class="cls-1" d="M173.57,114.28c.41-.86,1.13-1.29,2.01-1.47.74-.34,1.33-.96,2.01-1.39.49-.23,1.04-.35,1.75-.25.05,0,.09.05.08.11-.32,1-.94,1.52-1.83,1.79-.79.3-1.58.58-2.21,1.16-.54.27-1.12.33-1.75.18-.06-.02-.09-.08-.06-.13h0Z"/>
        </g>
        <g>
          <path class="cls-1" d="M6.2,128.95c.05-1.63,1.28-2.65,2.82-2.61,1.56.05,2.7,1.14,2.65,2.77-.05,1.58-1.26,2.68-2.81,2.63-1.54-.05-2.7-1.21-2.66-2.79Z"/>
          <path class="cls-1" d="M147.17,15.88c.05-1.63,1.28-2.65,2.82-2.61,1.56.05,2.7,1.14,2.65,2.77-.05,1.58-1.26,2.68-2.81,2.63-1.54-.05-2.7-1.21-2.66-2.79h0Z"/>
          <g>
            <path class="cls-1" d="M19.44,124.77l-1.65-3.46c1.71-.49,3.6-1.67,4.86-3.14,1.28-1.5,1.36-2.44.73-2.97-2.03-1.73-6.75,6.8-11.5,2.75-2.28-1.95-2.56-5.4.68-9.2,1.42-1.66,3.27-3.05,5.07-3.69l1.73,3.4c-1.7.66-3.06,1.59-4.01,2.7-1.29,1.52-1.25,2.5-.61,3.05,1.95,1.67,6.68-6.83,11.39-2.81,2.23,1.9,2.54,5.38-.7,9.18-1.79,2.1-4.13,3.7-6,4.19h0Z"/>
            <path class="cls-1" d="M37.01,103.01l-5.01,5.04,1.38,3.24-3.42,3.44-6.68-17.1,3.3-3.32,17.16,6.57-3.49,3.5-3.25-1.37h0ZM33.55,101.53l-5.33-2.26,2.29,5.32,3.05-3.06h0Z"/>
            <path class="cls-1" d="M44.84,76.85l11.53,12.22-2.85,2.68-11.54-1.42,6.14,6.51-3.39,3.19-11.52-12.22,2.84-2.68,11.54,1.42-6.14-6.51,3.39-3.19h0Z"/>
            <path class="cls-1" d="M47.49,74.4l5.84-5.39c4.09-3.78,9.09-3.98,12.59-.19s2.89,8.76-1.2,12.54l-5.84,5.39-11.4-12.35h0ZM62.01,78.7c2.1-1.94,2.35-4.49.38-6.63s-4.54-2.08-6.64-.15l-2.2,2.04,6.25,6.77,2.2-2.04h0Z"/>
            <path class="cls-1" d="M81.45,43.51l7.13,16.16-3.79,3.39-9.21-5.48,4.31,9.86-3.79,3.39-15.26-8.9,3.65-3.26,9.67,5.75-4.5-10.37,3.26-2.91,9.74,5.82-4.58-10.42,3.38-3.02h-.01Z"/>
            <path class="cls-1" d="M83.49,42.1l3.7-2.98,10.52,13.1-3.7,2.98-10.52-13.09h0Z"/>
            <path class="cls-1" d="M94.64,43.77c-2.95-4.18-1.85-9.4,2.51-12.47,2.53-1.79,5.22-2.31,7.73-1.58l-.89,3.98c-1.6-.43-3.06-.25-4.37.68-2.25,1.59-2.71,4.27-1.05,6.62,1.66,2.35,4.34,2.81,6.59,1.22,1.31-.93,1.97-2.25,2.1-3.89l4.05.49c-.16,2.61-1.54,4.97-4.07,6.76-4.35,3.08-9.64,2.37-12.59-1.8h-.01Z"/>
            <path class="cls-1" d="M120.58,17.85l7.9,14.83-4.19,2.24-3.08-5.78-5.72,3.05,3.08,5.78-4.19,2.24-7.9-14.83,4.19-2.24,2.97,5.57,5.72-3.05-2.97-5.57,4.19-2.24Z"/>
            <path class="cls-1" d="M129.56,30.58l.33-3.82c1.73.44,3.94.39,5.78-.25,1.86-.64,2.41-1.42,2.14-2.19-.87-2.52-9.27,2.44-11.3-3.46-.98-2.84.53-5.95,5.25-7.58,2.06-.71,4.36-.97,6.24-.61l-.23,3.81c-1.8-.29-3.44-.18-4.83.3-1.88.65-2.34,1.52-2.07,2.32.84,2.43,9.22-2.5,11.24,3.35.96,2.77-.54,5.93-5.26,7.56-2.61.9-5.44,1.09-7.3.57h.01Z"/>
          </g>
        </g>
      </g>
    </g>
  </g>
</svg>