<?xml version="1.0" encoding="UTF-8"?>
<svg id="Calque_2" data-name="Calque 2" xmlns="http://www.w3.org/2000/svg" viewBox="0 0 268.05 172.68">
  <defs>
    <style>
      .cls-1 {
        fill: #e4bcac;
      }

      .cls-1, .cls-2 {
        stroke-width: 0px;
      }

      .cls-2 {
        fill: #f8f4e8;
      }
    </style>
  </defs>
  <g id="Calque_2-2" data-name="Calque 2">
    <g>
      <path class="cls-2" d="M168.98.03c4.89-.31,9.7,1.87,13.4,5.1,2.14,1.87,4,4.11,6.43,5.59,2.55,1.55,5.54,2.14,8.47,2.68,9.7,1.77,19.97,3.32,27.71,9.43,7.13,5.63,11.09,14.38,17.58,20.74,7.7,7.55,19.06,11.95,23.41,21.82,2.21,5,2.21,10.66,1.95,16.12-.58,12.17-2.77,25.3-11.61,33.69-3.34,3.17-7.42,5.44-11.55,7.49-11.01,5.47-22.67,9.62-34.66,12.33,4.59,1.88,7.21,7.59,5.64,12.3s-7.09,7.7-11.89,6.45c1.01,5.45-5.62,8.86-10.99,10.21-39.68,9.99-81.5,11.4-121.76,4.11-4.37-.79-9.7-2.71-10.06-7.14-6.39.98-12.78-5.33-11.9-11.73.88-6.4,8.74-10.74,14.63-8.07.54-2.68-1.74-5.26-4.34-6.12s-5.41-.52-8.15-.37c-20.37,1.06-40.79-11.43-49.11-30.06-1.54-3.45-2.71-7.27-1.94-10.96.89-4.26,4.19-7.61,5.77-11.67,2.21-5.69.84-12.05.63-18.16s1.51-13.24,7.1-15.7c3.12-1.37,7.15-1.13,9.35-3.73,1.09-1.28,1.47-3.01,2.24-4.5,1.89-3.68,5.9-5.63,9.41-7.82,5.21-3.26,9.78-7.51,15.23-10.34,5.45-2.83,12.32-4.03,17.62-.92,6.62-10.37,19.99-15.92,32-13.28,2.27.5,4.51,1.26,6.83,1.27,2.25.02,4.44-.68,6.61-1.28,10.79-3,22.13-4,33.28-2.98,4.05.37,8.52,2.02,12.42.63S164.31.33,169.01.04h-.03Z"/>
      <g>
        <g>
          <path class="cls-1" d="M74.98,26.33c-.59.59-1.21.64-1.84.68l-1.86.19c-12.94,1.27-16.43,4.82-25.14,13.67-3.61,3.32-9.17,3.81-11.59,8.32-.63,1-1.25,2.24-2.34,3.39-3.46,3.67-9.47,4.57-13.04,7.57-5.69,5.42-1.24,13.05-1.59,20.01-.17,4.83-2.54,8.35-2.8,12.83-.29,10.1,9.79,17.16,17.24,22.89,5.92,4.32,12.09,8.52,19.35,9.69,3.69.68,7.24-.14,10.97-.45,3.92-.25,7.85.89,11.48,1.95,22.13,6.57,34.99,11.12,57.47,1.79,5.8-2.22,11.85-4.73,18.03-6.43,6.41-1.78,13.47-2.45,20.03-1.61,4.9.51,9.67,1.4,14.41,1.36,7.08-.14,13.36-2.61,20.29-5.11,4.72-1.69,9.44-3.41,14.18-5.06l7.1-2.49c6.4-2.23,13.95-4.47,18.48-9.09,2.89-2.84,4.48-7.01,5.42-11.63,1.75-8.58,1.99-19.25-4.36-25.76-1.65-1.63-3.54-2.66-5.64-3.85-2.3-1.25-4.68-3.04-6.48-5-3.71-3.97-6.14-8.45-9.06-12.31-6.67-8.81-16.6-14.77-26.99-18.36l-1.77-.59c-2.97-1.02-6.05-.64-9.13-.59-.17,0-.2-.26-.05-.31,2.43-.85,5.05-.89,7.6-.66,12.5,2.52,24.62,8.53,33.13,18.26,4.23,4.88,7.09,10.07,12.1,13.52,1.96,1.37,4.27,2.2,6.46,3.47,11.42,6.53,12.79,21.72,10.84,33.39-.85,5.47-2.7,11.22-6.62,15.49-5.59,6.21-13.59,8.95-21.01,11.9-6.88,2.62-14.24,5.54-21.09,8.07-10.34,4.03-19.98,6.95-31.42,4.92-7.67-1.18-13.97-2.51-21.24-1.35-7.33.98-14.15,3.23-21.42,5.24-24.2,7.41-37.08,2.06-59.92-4.92-3.55-1.05-7.02-2-10.67-1.77-3.75.39-7.62,1.33-11.49.71-2.63-.33-5.18-1.03-7.61-1.97-4.87-1.89-9.26-4.64-13.45-7.48-8.32-5.74-18.56-12.8-19.58-23.92-.65-5.07,2.48-10.28,2.83-14.97.13-2.15-.28-4.5-.68-7.01-1.47-7.33.03-14.79,7.66-18.08,4.36-2.01,9.12-2.86,11.45-7.52,2.69-4.87,8.84-5.64,12.75-8.65,7.45-6.95,12.24-11.63,23-12.66,1.8-.25,3.86-.32,5.68-.44.63-.05,1.26-.08,1.92.42.1.08.11.23.02.31h-.01Z"/>
          <path class="cls-1" d="M105.41,19.4c.74-1.16,1.98-1.59,3.12-2.09,1.16-.47,2.33-.82,3.53-1.12,4.76-1.25,9.64-.59,14.43-.29,11.29.13,22.65-.33,33.81,1.69.59.09,1.18.26,1.77.74.08.07.1.19.03.28-.59.46-1.23.58-1.83.62-6.54.57-13.14.41-19.65-.34-4.72-.39-9.4-1.41-14.15-1.31-2.37.03-4.74.33-7.07.54-4.67.42-9.2.54-13.83,1.56-.15.04-.26-.16-.15-.27h-.01Z"/>
          <path class="cls-1" d="M56.79,89.12c1.87.56,3.28,1.05,4.84,1.99.67.48,1.38,1.2,2.24,1.42,1.54.46,2.81-.62,4.42-.37,3.19.68,5.31,5.52,5.61,8.6.02.14-.14.24-.26.18-1.87-.94-3.21-2.25-4.36-3.68-.83-1.01-1-1.99-1.77-2.7-.98-.77-2.5-.96-3.78-1.03-1.42,0-3.19.39-4.49-.54-1.33-.82-2.41-2.05-2.69-3.66-.02-.13.11-.25.24-.21h0Z"/>
          <path class="cls-1" d="M106.37,101.29c1.31-.26,3.17-.66,4.42-.99,3.61-.92,7.47-2.85,11.33-2.12.87.23,1.61.69,2.28.98,1.38.59,2.19.19,3.57-.22,4.22-1.74,6.61-.68,9.37,2.74.94.93,2,1.87,3.47,1.6.14-.04.26.15.17.27-1.23,1.47-3.64.97-5.11.12-1.26-.69-2.36-1.71-3.56-2.08-1.12-.31-2.33.02-3.62.23-1.67.41-4.01.2-5.26-1.25-1.05-1.16-2.11-1.99-3.67-1.53-2.11.65-3.78,2.96-6.16,3.34-2.41.6-5.1.48-7.28-.78-.13-.07-.1-.28.05-.31h0Z"/>
          <path class="cls-1" d="M161.93,100.49c4.07-3.48,9.59-5.33,14.94-5.26,5.08-.02,10.28,3,15.12,1.37,4.57-1.74,7.25-6.69,10.61-10.15,3.57-3.82,7.31-7.43,11.49-10.61.13-.1.33.07.24.21-1.33,2.29-2.83,4.43-4.37,6.53-2.33,3.14-4.78,6.16-7.5,8.96-2.81,2.89-5.67,6.31-9.84,7.26-2.7.65-5.54.13-8.2-.29-2.6-.45-5.06-.55-7.53-.43-3.72.09-7.46.58-11.09,1.57-1.23.34-2.45.73-3.71,1.13-.15.06-.29-.17-.16-.27h0v-.02Z"/>
          <path class="cls-1" d="M51.55,77.16c7.38-1.83,14.62-3.01,22.07-4.04,3.69-.42,7.37-.6,11.13-1.23,3.91-.6,8.3-1.23,11.97,1.01,1.91,1.15,3.1,2.74,4.42,3.62,1.28.88,2.91,1.3,4.71,1.56,1.79.28,3.75.4,5.79,1.03,2.96.8,5.16,3.33,7.21,5.36,1.86,1.77,4.09,2.7,6.7,3.03,3.49.46,7.23-.09,10.98-.52.17-.03.25.24.08.3-5.78,2.45-12.95,4.31-18.66.56-1.97-1.31-3.47-3.28-5.27-4.65-3.82-2.77-9.1-1.47-13.13-4.42-1.75-1.29-2.86-2.82-4.2-3.61-5.96-3.4-14.59,1.83-20.96,2.75-7.54,1.34-15.33,1.34-22.82-.44-.15-.03-.16-.28,0-.31h-.02Z"/>
          <path class="cls-1" d="M148.91,57.63c2.71-1.16,5.92-.29,8.5.79,2.63,1.07,5.06,2.36,7.45,2.91,7.65,1.79,15.1-4.94,21.41-8.63,6.78-4.44,14.53-11.04,23.22-8.73.16.05.13.31-.04.31-5.6.43-9.91,3.62-14.51,6.57-4.74,2.88-9.52,5.67-14.17,8.73-6.27,4.11-13.67,7.45-20.77,2.94-3.57-1.91-6.77-4.87-11.04-4.59-.17.02-.24-.24-.07-.31h.02Z"/>
          <path class="cls-1" d="M61.46,51.47c6.15-2.78,12.13,3.51,18.29,2.54,4.66-.76,8.01-4.76,11.8-7.36,4.03-2.83,9.28-3.11,13.79-4.51,3.12-.96,5.09-3.28,8.24-4.61,6.65-2.73,13.83.97,19.04,4.92.14.1.02.34-.15.28-5.69-1.82-11.79-4.61-17.56-2.12-2.69,1.29-5.58,3.74-8.73,4.38-4.94,1.38-9.69.14-14.07,2.56-4.41,2.39-6.76,7.41-11.76,9-6.95,2.01-12.13-5.18-18.8-4.79-.17.02-.24-.23-.09-.3h0Z"/>
          <path class="cls-1" d="M123.43,25.09c2.66-1.96,6.6-.84,9.17.62,1.9,1.07,3.44,2.41,5.55,2.69,3.5.59,6.72-1.14,9.97-2.35,2.86-.92,6.42-1.44,9.23.05.08.04.11.15.07.23-4.47,1.04-8,3.15-12.53,4.1-5.02,1.55-9.32.42-13.73-2.12-2.43-1.41-4.62-2.97-7.61-2.91-.15,0-.24-.21-.11-.3h-.01Z"/>
          <path class="cls-1" d="M98.59,75.83c1.89-3.33,4.32-6.27,6.96-9.02,2.69-2.62,6.08-6.13,10.25-5.23,4.98,1.21,10.07,1.85,14.79,3.93.57.25,1.34.53,2.08,1.26.76.77,1.08,1.78,1.2,2.56.47,6.44-.39,12.86-2.25,19.03-.08.25-.34.38-.59.3-.2-.06-.32-.25-.33-.44-.05-5.05.05-9.99-.02-14.92-.04-.93.03-2.69-.04-3.52-.13-1.06-.34-.99-1.33-1.58-1.97-.98-4.64-2.41-6.61-3.34-2.23-1.06-4.65-1.93-7.05-2.27-.59-.06-1.17-.03-1.69.13-1.7.56-2.64,2.01-3.85,3.37-1.64,1.87-3.43,3.58-5.2,5.33-1.79,1.73-3.57,3.47-5.52,5.09-.42.38-1.1-.18-.8-.67h0Z"/>
          <path class="cls-1" d="M180.16,96.96c-7.45-1.94-17.29-7.02-8.72-14.95,1.03-1,2.11-1.89,3.13-2.81,2.72-2.25,4.8-5,7.4-7.41,1.9-1.62,4.93-1.52,7.05-.66,2.68.96,4.75,2.9,7.19,3.89,2.1.91,4.72,1.01,6.95,1.9.44.2.95.52,1.36,1.04.69.9.68,1.79.73,2.7.09,2.01.2,4.24.2,6.24,0,1.14-1.66,1.3-1.88.18-.45-2.26-.77-4.77-1.15-7.03-.07-.24-.11-.29-.13-.29-.02-.17-1.73-.47-3-.68-1.36-.23-2.81-.51-4.27-1.07-4.15-1.64-6.27-4.96-10.35-4.85-1.18.08-2.15.71-3.14,1.44-2.2,1.64-4.35,3.36-6.26,5.31-1.8,1.95-5.52,6.69-3.95,9.29,2.2,3.01,5.99,4.99,8.97,7.46.14.09.02.33-.13.28h0v.02Z"/>
          <path class="cls-1" d="M163.8,62.84c-1.6-2.06-2.88-4.27-4.13-6.5-1.94-3.42-4.17-7.94-1.68-11.72.74-1.22,1.71-2.17,2.68-3.05,2.97-2.57,6.46-4.83,10.39-5.64,9.54-1.81,18.68,4.94,23.35,12.61.18.29.1.67-.19.85-.24.15-.54.12-.74-.06-7.12-6.6-15.69-12.6-25.7-10.49-4.4.84-9.49,4.77-8.29,9.72,1.28,4.72,3.74,9.22,4.59,14.15.04.16-.19.27-.29.13h.01Z"/>
          <path class="cls-1" d="M169.04,26.32c-6.59-.55-10.98-4.8-6.53-11.13,1.72-2.47,4.03-5.16,7.33-5.45,3.86-.32,6.94,3.08,9.75,5.12,2.26,1.7,4.67,3.3,6.57,5.44,1.22,1.25,2.72,2.98,3.22,4.94.45,1.6-.8,3.21-2.37,3.37-1.82.4-3.73.5-5.54.42-4.27-.31-8.26-1.97-12.43-2.71h0ZM169.22,25.34c5.62.94,11.99.98,17.35.07-.23.08-.38.41-.31.61-.74-2.58-3.27-4.68-4.93-6.86-2.44-3.02-5.91-5.8-9.58-6.97-2.49-.62-4.22,1.19-5.69,3.05-1.63,2.1-3.27,4.22-2.75,6.15.64,2.43,3.54,3.51,5.92,3.94h-.01Z"/>
          <path class="cls-1" d="M82.12,18.35c-1.28.75-2.5,1.64-3.67,2.63-1.17.97-2.33,1.99-2.46,3.19-.14,1.2.54,2.29,1.29,3.19,2.89,3.19,7.61,2.7,11.76,2.16,4.49-.71,8.48-3.25,12.03-5.97.96-.82,2.23-1.48,3-2.45.12-.17.16-.3.15-.3,0,0-.02.12.02.14-.15-.19-1.42-.54-1.83-.66-6.5-1.9-13.79-5.38-20.28-1.92h-.01ZM81.35,17.12c5.46-3.77,12.71-2.77,18.69-1.21.71.18,2.65.67,3.34.84,1.56.41,3.22.76,4.14,2.4,2.74,6.14-9.61,9.17-13.76,10.2-4.66,1.02-9.12,3.06-14.02,2.44-3.74-.45-7-4.32-5.49-8.11.64-1.7,2.07-2.71,3.37-3.72,1.22-.93,2.41-1.95,3.73-2.83h0Z"/>
          <path class="cls-1" d="M61.76,51.79c-1.28-.34-2.34-1.82-2.19-3.27.27-1.89,1.96-3.34,3.27-4.44,3.67-3.02,8.21-4.64,12.32-6.96,2.79-1.41,6.06-1.63,9.09-.92,2.95.7,5.21,2.84,7.4,4.78,1.37,1.3,2.68,2.67,3.79,4.26.09.13-.05.31-.2.24-2.63-1.13-5-2.46-7.45-3.83-2.21-1.25-4.22-2.73-6.8-2.91-3.51-.41-6.81,1.28-9.79,2.93-2.96,1.94-5.92,4.18-8.87,6.09-.42.35-.79.69-1.05,1.14-.36.82-.04,1.86.64,2.64.12.11-.02.32-.16.26h0Z"/>
        </g>
        <g>
          <path class="cls-1" d="M57.87,150.4c-.1-1.63,1.03-2.76,2.57-2.85,1.56-.1,2.8.89,2.89,2.52.1,1.58-1.01,2.78-2.56,2.87-1.53.09-2.8-.96-2.9-2.54h0Z"/>
          <path class="cls-1" d="M203.55,145.47c-.1-1.63,1.03-2.76,2.57-2.85,1.56-.1,2.8.89,2.89,2.52.1,1.58-1.01,2.78-2.56,2.87-1.53.09-2.8-.96-2.9-2.54h0Z"/>
          <g>
            <path class="cls-1" d="M71.14,143.26l7.82,1.37c5.48.96,8.68,4.81,7.79,9.9-.89,5.08-5.21,7.61-10.69,6.65l-7.82-1.37,2.91-16.55h-.01ZM76.53,157.41c2.81.49,5-.85,5.5-3.71s-1.09-4.87-3.91-5.36l-2.95-.52-1.59,9.08,2.95.52h0Z"/>
            <path class="cls-1" d="M102.4,160.9l-.38,3.65-13.41-1.39,1.73-16.71,13.1,1.36-.38,3.65-8.42-.87-.29,2.82,7.42.77-.37,3.53-7.42-.77-.32,3.05,8.73.91h.01Z"/>
            <path class="cls-1" d="M104.27,163.21l1.7-3.44c1.45,1.04,3.53,1.8,5.47,1.88,1.97.08,2.76-.44,2.79-1.26.11-2.66-9.52-1.11-9.26-7.34.12-3,2.67-5.35,7.66-5.14,2.18.09,4.42.68,6.03,1.71l-1.61,3.47c-1.57-.93-3.14-1.42-4.6-1.48-1.99-.08-2.74.56-2.77,1.4-.1,2.57,9.5,1.04,9.24,7.22-.12,2.93-2.67,5.32-7.66,5.12-2.76-.11-5.46-.97-7-2.13h0Z"/>
            <path class="cls-1" d="M120.4,163.82l1.49-3.54c1.51.95,3.64,1.58,5.58,1.54,1.97-.04,2.72-.61,2.71-1.43-.06-2.66-9.57-.52-9.7-6.76-.06-3,2.33-5.5,7.33-5.6,2.18-.05,4.45.41,6.13,1.34l-1.39,3.56c-1.63-.83-3.22-1.23-4.68-1.2-1.99.04-2.7.73-2.68,1.57.05,2.57,9.54.45,9.67,6.64.06,2.93-2.33,5.48-7.33,5.58-2.76.06-5.51-.63-7.12-1.7h0Z"/>
            <path class="cls-1" d="M150.99,160.07l.3,3.66-13.44,1.12-1.39-16.74,13.13-1.09.3,3.66-8.44.7.23,2.82,7.44-.62.29,3.54-7.44.62.25,3.06,8.75-.73h.02Z"/>
            <path class="cls-1" d="M160.97,158.01l-2.57.33.57,4.43-4.71.6-2.14-16.66,7.62-.98c4.55-.58,7.71,1.41,8.19,5.22.31,2.45-.64,4.41-2.59,5.68l4.27,4.78-5.05.65-3.59-4.04h0ZM159.93,149.48l-2.62.33.63,4.88,2.62-.33c1.95-.25,2.81-1.28,2.62-2.8-.2-1.55-1.29-2.33-3.24-2.08h-.01Z"/>
            <path class="cls-1" d="M173.32,147.65l-5.11.74-.54-3.73,14.9-2.16.54,3.73-5.08.74,1.87,12.9-4.7.68-1.87-12.9h-.01Z"/>
            <path class="cls-1" d="M185.44,157.6l.94-3.72c1.63.72,3.83,1.02,5.74.69,1.94-.33,2.6-1.01,2.46-1.81-.45-2.62-9.54.91-10.59-5.24-.51-2.96,1.49-5.78,6.41-6.63,2.15-.37,4.46-.26,6.26.41l-.84,3.72c-1.73-.58-3.37-.74-4.81-.49-1.96.34-2.56,1.12-2.42,1.95.44,2.53,9.5-.98,10.55,5.12.5,2.89-1.49,5.76-6.41,6.61-2.72.47-5.54.2-7.29-.62h0Z"/>
          </g>
        </g>
      </g>
    </g>
  </g>
</svg>