<svg width="180" height="247" viewBox="0 0 180 247" fill="none" xmlns="http://www.w3.org/2000/svg">
<g clip-path="url(#clip0_967_3997)">
<path d="M67.3259 28.5427C72.2358 26.9971 77.9091 29.061 82.2819 32.0484C87.173 35.394 91.329 39.8704 96.7102 42.3584C103.213 45.3552 110.78 45.1102 117.49 47.617C123.267 49.7751 128.564 55.7029 127.819 61.3668C127.602 62.9877 126.434 64.3259 124.907 64.9291C121.816 66.1448 118.621 67.0778 115.36 67.7092C114.069 67.9636 113.494 69.4809 114.314 70.5175L157.015 124.169C169.059 139.304 181.829 156.955 178.794 176.058C175.09 199.382 153.547 219.286 130.062 221.718C129.421 221.784 129.157 222.575 129.619 223.027C133.474 226.769 134.293 233.469 131.108 237.88C127.885 242.347 121.137 243.647 116.359 241.027C115.615 240.622 114.672 240.83 114.182 241.527C110.507 246.786 102.082 246.955 95.5133 245.391C77.1175 240.999 60.8421 229.775 48.0442 215.846C35.2463 201.918 25.6808 185.331 17.3688 168.34C12.7604 158.906 8.4819 149.256 5.76776 139.106C3.71331 131.407 2.573 123.49 1.44211 115.602C0.678759 110.268 0.0661996 104.293 3.28924 99.9772C5.96568 96.3867 11.1489 95.0013 15.3144 96.5469C15.7856 96.7259 16.2662 96.2641 16.1154 95.7835C14.3625 90.1573 17.906 83.2401 23.5981 81.5626C23.9939 81.4495 24.2955 81.1196 24.3426 80.705L26.2651 63.9113C26.5573 61.3479 26.8494 58.7751 26.9343 56.1929C27.217 47.2495 24.9552 38.4191 24.6159 29.4757C24.2484 19.7783 26.7081 9.05368 35.1898 3.77619C40.5426 0.449493 47.4976 0.609694 52.3039 4.6809C58.4013 9.8453 55.5269 16.5081 56.8086 22.5584C57.7887 27.2139 62.7458 30.0034 67.2882 28.571L67.3259 28.5427Z" fill="#F8F4E8"/>
<path d="M151.256 199.599C150.021 200.673 148.193 201.993 146.883 202.992C144.697 204.65 142.237 206.253 139.711 207.459C137.12 208.74 134.434 209.843 131.493 210.286C127.554 210.917 123.662 210.446 120.024 209.768C116.368 209.08 112.777 208.241 109.243 207.11C89.4621 200.636 79.1333 188.611 67.5699 172.156C65.4684 169.131 63.9322 165.701 62.3678 162.402C60.8223 159.132 59.2673 155.862 57.7029 152.601C54.3856 146.127 52.1521 139.106 49.9469 132.179C46.7333 121.803 43.9532 111.314 40.994 100.872C40.2024 97.9981 39.194 95.218 38.6191 92.2682C38.8642 92.0515 39.0903 91.8065 39.3071 91.552C40.8055 94.351 41.6254 97.4044 42.6055 100.382C43.6987 103.841 44.7353 107.309 45.7814 110.768C49.4757 122.821 52.6422 135.072 57.5521 146.692C60.6526 153.138 63.9699 159.641 67.2589 166.002C69.7751 170.705 73.3563 174.72 76.7019 178.857C83.4401 187.037 91.2526 194.397 100.856 199.043C106.359 201.795 112.221 203.765 118.234 205.056C122.39 205.998 126.857 206.846 130.928 206.319C133.378 206.036 135.8 205.112 138.09 204.047C141.247 202.69 144.216 200.589 147.043 198.581C158.644 190.769 164.779 175.794 161.848 162.063C158.72 147.192 148.212 134.856 139.155 123.028C133.143 115.131 127.017 107.319 120.251 100.062C114.851 93.9457 109.837 87.462 104.984 80.9122L98.5186 72.2044C96.5019 69.5656 94.5699 66.8703 92.949 63.9018C93.0715 63.7604 93.2034 63.619 93.3259 63.4683C98.0851 67.5206 102.986 74.796 106.802 79.5363C111.741 85.9636 116.66 92.419 121.994 98.5258C129.778 106.828 140.512 121.087 147.628 130.2C155.063 139.907 162.329 150.603 164.647 162.892C167.051 176.35 161.726 190.778 151.265 199.59L151.256 199.599Z" fill="#386641"/>
<path d="M47.6947 18.5627C50.6539 16.414 50.5408 11.7585 46.3283 10.3732C43.3879 9.42134 40.2968 9.4873 37.5167 10.9292C35.6696 12.0789 35.123 13.3041 35.3869 14.4632C35.2644 15.2925 34.944 16.0842 34.8309 16.9135C34.2749 19.8161 33.8885 22.6904 33.2194 25.5742C29.8173 40.681 40.3063 42.302 39.6654 53.2904C39.4958 56.0423 37.9126 58.7187 36.5555 61.0842C35.1042 63.77 34.2937 66.8705 34.0864 69.8957C33.8131 73.9575 34.3408 77.9438 34.9628 81.8266C35.2173 83.1648 35.4152 84.6632 35.3869 86.0203C35.3869 87.0758 35.434 88.9417 34.878 89.658C33.078 91.6559 29.8173 89.5543 27.3858 89.8936C26.2832 89.9407 25.1335 90.5344 24.2476 91.0245C23.4937 91.4297 22.7586 91.5428 22.4382 91.3543C22.1743 91.2035 21.8445 91.1564 21.5241 91.2695C20.968 91.4768 20.6759 92.0894 20.8832 92.6548C21.5146 94.4077 23.3712 94.6716 24.5115 94.3606C25.6895 94.0496 26.4811 93.4559 27.1691 93.2108C27.9136 92.9187 28.4696 93.0695 29.2801 93.2391C30.1565 93.437 31.0801 93.6632 32.0508 93.814C34.0675 94.1438 36.3576 94.0307 38.101 92.7208C38.2801 92.5794 38.4591 92.4287 38.6288 92.259C38.8738 92.0423 39.1 91.7972 39.3167 91.5428C40.8623 89.6957 41.5597 87.1983 42.0309 84.9836C42.455 83.702 43.8968 82.1941 43.7084 80.526C42.9262 76.5962 43.8874 72.8266 44.5094 68.9156C45.0277 71.6297 45.612 74.3344 46.3 77.0203C47.6382 82.2506 49.4476 87.3585 51.879 92.1836C54.1125 96.6035 56.9115 100.675 59.5691 104.84C60.1063 105.67 60.568 106.555 61.2183 107.3C61.8686 108.044 62.7638 108.648 63.7534 108.695C64.7429 108.742 65.789 108.082 65.9492 107.093C66.034 106.565 65.855 106.018 65.6194 105.538C64.9974 104.209 63.9607 103.05 63.6591 101.617C63.2727 99.7889 64.1775 97.9135 64.0455 96.0381C63.8947 93.8988 62.4811 92.2308 61.3691 90.4967C60.4361 89.036 60.7188 87.1606 61.8403 85.8129C63.1408 84.2486 65.1481 82.6747 65.3743 80.3658C65.8172 77.237 63.8759 74.0517 64.1115 71.2056C64.2246 69.3585 64.9879 67.4266 65.2235 65.1742C65.3837 63.4779 65.2235 61.8004 64.856 60.1889C65.2989 60.2831 65.7701 60.4433 66.2319 60.6412C69.2382 62.102 72.3387 63.8266 75.3921 65.2496C77.5031 66.2486 79.6329 67.3417 82.0078 67.6339C85.9565 68.1711 90.2162 66.8046 92.9586 63.8925C93.0811 63.7512 93.2131 63.6098 93.3356 63.459C93.5618 63.1951 93.7785 62.9218 93.967 62.6391C94.6361 61.5648 95.456 60.6412 96.7942 60.2266C97.8026 59.8967 98.9523 59.859 100.046 60.0381C102.279 60.4622 104.597 61.97 106.972 61.0842C108.65 60.5941 109.95 59.6705 111.562 59.8779C111.986 59.9438 112.287 60.1135 112.457 60.3396C112.787 60.6883 113.305 60.6789 113.72 60.4433C116.038 59.237 115.02 56.2119 112.853 55.6936C111.552 55.2883 110.158 55.5522 108.989 56.0234C107.142 56.7114 105.785 57.814 103.9 57.3805C100.649 56.504 97.6801 54.2234 94.2874 56.7302C93.4204 57.258 93.0811 57.3616 92.4026 57.1732C90.0183 56.2779 87.9262 53.3564 86.2864 51.3868C81.5178 46.0716 74.9869 39.7292 67.1555 41.7648C65.5534 42.1889 64.3942 43.0936 62.9241 43.4705C61.435 43.8004 60.2288 43.1878 58.5324 43.2349C56.8361 43.2632 55.7712 44.0737 54.433 43.3763C47.167 37.948 42.3796 27.1292 47.4215 18.7606C47.5063 18.7135 47.5817 18.6569 47.6571 18.6004M38.1953 12.1449C41.0602 10.6559 49.033 11.259 47.8832 15.9145C47.0539 19.637 42.389 17.9124 40.0895 16.659C39.0717 16.1219 37.8089 15.2831 37.0738 14.4915C36.4047 13.6716 37.4036 12.6067 38.1953 12.1449ZM105.059 60.3679C103.372 60.4904 101.827 59.6705 100.112 59.4726C98.9618 59.2936 97.7932 59.1616 96.5586 59.2747C95.2958 59.4067 93.9953 60.0004 93.2036 61.0653C92.8172 61.5648 92.5911 61.9417 92.1953 62.3847C91.1586 63.6098 89.8675 64.5993 88.4256 65.3156C86.5031 66.258 84.2885 66.7009 82.1492 66.3993C80.0194 66.1449 78.0497 64.9857 76.0141 63.9679C73.9974 62.9313 72.0183 61.8098 70.0675 60.6412C67.9 59.4161 65.7607 57.5878 62.9523 57.9459C62.3492 58.125 62.0288 58.7847 62.2455 59.3784C62.8487 61.2255 63.2068 63.1386 63.0654 65.014C62.9429 66.88 62.2078 68.859 62.0948 71.1302C61.878 74.2684 63.8288 77.1239 63.6026 80.1491C63.1973 83.2308 59.2204 84.6915 59.3335 88.1501C59.2581 91.3449 61.6518 93.9082 61.0487 97.0653C60.8885 98.0172 60.5492 99.0726 60.6434 100.27C60.7754 102.079 61.9722 103.521 62.2644 105.142C61.8874 104.802 61.5104 104.35 61.1241 103.935C59.2581 101.862 57.59 99.6098 56.101 97.2632C52.0864 90.9585 49.523 83.8622 47.4591 76.7187C46.4319 73.1187 45.5932 69.4622 44.8487 65.7868C44.8015 65.5983 44.6508 65.4475 44.4529 65.4192C44.1984 65.391 43.9534 65.57 43.9251 65.8339C43.2937 70.5271 41.3523 75.4465 42.0591 80.3941C42.2194 81.9585 40.9094 82.8255 40.3817 84.437C40.0235 85.436 39.9199 86.3407 39.6372 87.1229C38.7419 89.592 37.6298 90.9585 36.1974 91.5711C37.5167 90.28 37.7052 88.1596 37.5921 86.0297C37.6204 84.5784 37.3942 82.9198 37.1021 81.4779C36.4518 77.6517 35.9146 73.8161 36.1408 70.0465C36.3199 67.2192 36.923 64.4863 38.2141 61.97C39.6277 59.3878 41.2016 56.4664 41.3241 53.4412C41.4843 51.3679 41.1544 49.2475 40.4005 47.3344C38.9115 43.48 36.2162 40.502 34.7366 37.0056C32.7481 32.5292 33.7283 27.5062 34.6235 22.8601C34.9345 20.9187 35.1607 18.9774 35.5 17.0548C35.6225 16.5554 35.679 16.0276 35.7921 15.5281C36.4707 16.6119 37.7712 17.592 39.1942 18.3459C41.2581 19.3543 43.4916 19.7973 45.7911 19.458C45.9136 19.4297 46.0267 19.392 46.1304 19.3543C43.9345 23.614 43.9063 28.7784 45.3481 33.2925C46.9785 37.7595 49.8529 41.8119 53.6319 44.7051C55.0267 45.704 57.2508 44.903 58.523 44.8653C59.3806 44.8559 60.3513 45.1386 61.4822 45.2517C63.6309 45.5815 65.6947 44.0266 67.589 43.5365C69.3701 43.0653 71.3115 43.2255 73.1115 43.791C77.7953 45.3082 81.2822 49.2192 84.4958 52.8381C85.6644 54.3365 87.2005 56.3627 88.6329 57.6255C90.5272 59.3878 93.0152 60.613 95.5314 58.8883C96.4738 58.3041 96.9356 58.0967 97.6895 58.1344C99.5178 58.2758 101.318 59.5198 103.306 59.9344C104.503 60.2925 105.785 60.0852 107.01 59.6894C106.397 60.0287 105.747 60.2925 105.031 60.3585L105.059 60.3679Z" fill="#386641"/>
<path d="M59.8234 60.7733C60.1344 62.5544 59.9647 64.2602 59.6914 65.9754C59.4935 67.5775 58.7962 69.0759 59.1449 70.7157C59.4935 72.7324 61.0768 74.6078 60.9354 76.7942C60.8883 80.8937 57.5805 83.3722 56.6098 87.1042C56.5815 87.2173 56.4119 87.2455 56.3647 87.1324C54.7815 83.768 57.3825 80.2057 58.5229 77.2277C59.2108 75.1921 59.1448 72.9681 58.3626 70.923C57.6747 69.2644 56.9113 67.3419 57.4956 65.5324C57.948 63.7984 58.5323 62.234 59.5784 60.7167C59.6443 60.6225 59.8045 60.6508 59.8234 60.7733Z" fill="#386641"/>
<path d="M81.1412 54.4213C81.98 54.8171 82.7151 55.3825 83.1203 56.193C83.2899 56.5888 83.3465 57.1166 83.6103 57.4653C84.1381 58.2192 85.2124 58.238 85.9287 58.6621C87.2103 59.1899 88.0491 59.8684 89.0104 61.0653C89.0575 61.1218 89.0292 61.2255 88.9538 61.2443C87.9172 61.5459 86.9276 61.3668 86.0606 60.971C85.4292 60.6412 84.892 60.1417 84.4302 59.5951C84.025 59.0297 83.7517 58.2852 83.1862 57.8799C82.8376 57.5972 82.3004 57.4558 81.9046 57.1637C81.5182 56.8715 81.3014 56.438 81.1224 55.9951C80.9622 55.5427 80.8773 55.0433 80.981 54.4873C80.9904 54.4119 81.0752 54.3647 81.1506 54.4024L81.1412 54.4213Z" fill="#386641"/>
<path d="M65.563 143.017C73.8656 154.383 82.8185 165.23 92.9022 175.003C95.4279 177.396 98.0666 179.667 100.913 181.628C103.778 183.569 106.897 185.039 109.913 186.5C112.919 187.979 115.906 189.412 119.073 190.543C122.23 191.683 125.528 192.494 129.119 193.134C129.194 193.144 129.242 193.21 129.223 193.285C125.887 194.821 121.853 194.934 118.14 194.51C114.455 194.02 110.789 192.871 107.538 191.061C104.277 189.261 101.478 186.83 98.7169 184.511C90.4143 177.66 83.0541 169.819 76.5892 161.243C72.3483 155.523 68.541 149.491 65.3462 143.159C65.2803 143.027 65.4782 142.904 65.563 143.027V143.017Z" fill="#386641"/>
<path d="M153.188 175.153C153.329 172.354 153.584 169.659 153.97 166.907C154.187 165.559 154.545 164.174 154.517 162.779C154.432 159.961 152.915 157.511 151.84 155.004C150.267 151.989 148.636 149.058 146.855 146.146C145.225 143.714 145.234 143.611 147.788 145.26C152.764 148.832 154.903 154.637 155.063 160.583C155.167 162.76 155.846 164.843 156.062 167.02C156.119 168.49 155.836 169.941 155.44 171.346C154.969 172.75 154.338 174.079 153.414 175.238C153.339 175.332 153.169 175.276 153.179 175.144L153.188 175.153Z" fill="#386641"/>
<path d="M11.7986 106.979C11.7138 105.443 12.7882 104.388 14.2395 104.312C15.7096 104.228 16.8688 105.161 16.9536 106.697C17.0384 108.186 15.9829 109.307 14.5222 109.392C13.0803 109.467 11.8929 108.468 11.8081 106.979H11.7986Z" fill="#386641"/>
<path d="M117.867 231.632C117.754 230.096 118.809 229.021 120.251 228.918C121.721 228.814 122.899 229.719 123.003 231.255C123.116 232.744 122.079 233.884 120.619 233.988C119.177 234.092 117.971 233.111 117.857 231.622L117.867 231.632Z" fill="#386641"/>
<path d="M32.1168 128.024L14.9272 126.798L13.4854 122.633L26.2361 111.051L27.8194 115.621L19.4791 123.066L30.6655 123.83L32.1168 128.024Z" fill="#386641"/>
<path d="M24.9453 144.968L21.6845 146.118L17.4531 134.13L32.3809 128.862L36.518 140.576L33.2573 141.726L30.5997 134.196L28.0835 135.082L30.4207 141.717L27.2636 142.829L24.9264 136.194L22.1934 137.155L24.9453 144.959V144.968ZM35.9526 135.11L34.9254 132.208L39.1756 133.923L40.6081 137.975L35.9526 135.11Z" fill="#386641"/>
<path d="M34.0579 155.344L35.4998 159.029L29.393 161.413C27.5081 160.188 25.9343 158.105 25.0956 155.947C23.2579 151.244 25.0956 146.57 29.5909 144.817C34.0767 143.064 38.6003 145.26 40.4663 150.038C41.5406 152.799 41.4652 155.4 40.2872 157.54L36.8474 155.825C37.5731 154.373 37.639 153.016 37.0924 151.603C36.1029 149.077 33.7846 148.04 31.2307 149.039C28.7427 150.01 27.6778 152.366 28.6484 154.854C28.95 155.636 29.3835 156.315 30.015 156.918L34.0579 155.335V155.344Z" fill="#386641"/>
<path d="M37.7053 175.361L34.567 176.822L29.1953 165.305L43.5482 158.614L48.7974 169.867L45.6592 171.327L42.2854 164.09L39.8634 165.221L42.8414 171.591L39.8068 173.005L36.8288 166.634L34.2089 167.859L37.7053 175.361ZM47.7042 164.485L46.4037 161.696L50.8047 162.987L52.6236 166.879L47.7136 164.476L47.7042 164.485Z" fill="#386641"/>
<path d="M48.4868 176.623L46.0459 172.42L49.1182 170.639L56.224 182.909L53.1517 184.69L50.7297 180.506L40.0994 186.66L37.8564 182.787L48.4868 176.633V176.623Z" fill="#386641"/>
<path d="M52.4912 199.279L48.4671 193.926L45.2629 194.784L42.5205 191.137L59.3708 187.207L62.0189 190.732L53.5844 205.848L50.7854 202.125L52.4912 199.279ZM54.3383 196.245L57.1655 191.57L51.8975 192.993L54.3478 196.245H54.3383Z" fill="#386641"/>
<path d="M63.687 209.693L61.8964 208.025L59.0315 211.106L55.752 208.053L66.5425 196.471L71.8389 201.4C74.9959 204.34 75.4577 207.836 72.9886 210.484C71.3959 212.19 69.398 212.671 67.3153 212.03L66.42 217.995L62.9143 214.725L63.6776 209.693H63.687ZM69.2378 203.803L67.419 202.106L64.2619 205.499L66.0807 207.195C67.4378 208.458 68.7007 208.458 69.6902 207.403C70.6891 206.328 70.6043 205.065 69.2472 203.803H69.2378Z" fill="#386641"/>
<path d="M78.4929 206.913L82.1871 209.448L73.2343 222.5L69.54 219.965L78.4929 206.913Z" fill="#386641"/>
<path d="M90.0181 227.645L88.4725 230.746L77.0977 225.073L84.1657 210.908L95.2767 216.45L93.7312 219.55L86.5877 215.988L85.4003 218.372L91.6956 221.51L90.1971 224.507L83.9018 221.369L82.6108 223.961L90.0181 227.655V227.645Z" fill="#386641"/>
<path d="M111.326 221.086L107.189 236.363L103.636 235.401L99.0939 225.431L96.8886 233.573L92.6572 232.423L96.7944 217.147L100.347 218.108L104.89 228.069L107.095 219.927L111.326 221.077V221.086Z" fill="#386641"/>
</g>
<defs>
<clipPath id="clip0_967_3997">
<rect width="180" height="245.969" fill="white" transform="translate(0 0.515625)"/>
</clipPath>
</defs>
</svg>
