<?xml version="1.0" encoding="UTF-8"?>
<svg id="Calque_2" data-name="Calque 2" xmlns="http://www.w3.org/2000/svg" viewBox="0 0 208.93 257.03">
  <defs>
    <style>
      .cls-1 {
        fill: #7fae69;
      }

      .cls-1, .cls-2 {
        stroke-width: 0px;
      }

      .cls-2 {
        fill: #f8f4e8;
      }
    </style>
  </defs>
  <g id="Calque_2-2" data-name="Calque 2">
    <g>
      <path class="cls-2" d="M5.32,122.14c.51-6.98,1.1-14.21,4.49-20.34,3.46-6.25,9.53-10.74,13.03-16.97,4.88-8.69,4.07-19.32,3.31-29.26-.53-6.92-.74-14.59,3.67-19.94,3.97-4.81,10.63-6.38,16.84-6.95,16.8-1.56,33.73,1.95,50.56.8,11.32-.77,22.54-3.66,33.86-2.87,11.32.78,23.39,6.41,27.23,17.09-1.11-8.21.83-16.8,5.37-23.73,1.12-1.72,2.42-3.37,3.06-5.32.64-1.94.59-4.04,1.07-6.02,1.38-5.62,7.58-9.57,13.25-8.44,5.67,1.13,9.89,7.15,9.01,12.87,5.71,7.45,6.29,17.64,5.15,26.95-1.14,9.31-3.75,18.51-3.52,27.89.24,9.74,3.52,19.11,6.11,28.51,8.77,31.8,9.84,65.14,10.86,98.1.49,16.04.91,32.57-4.76,47.58-2.27,6.01-5.99,12.09-12.04,14.25-7.44,2.65-16.62-2.75-17.91-10.54-.33-1.96-.22-3.98-.63-5.93-1.13-5.31-5.79-9.02-10.14-12.26-3.62,4.38-9.72,5.63-15.34,6.53-39.21,6.28-80.52,9.07-117.64-5.03C14.46,223.13-1.18,212.21.07,193.9c1.63-23.93,3.52-47.85,5.27-71.77h-.02Z"/>
      <g>
        <g>
          <path class="cls-1" d="M145.21,82.91c.73.93.66,1.99,1.08,3.01,1.06,3.01,2.93,5.58,4.98,8.03,9.72,10.74,11.47,15.3,12.21,29.84,1.48,23.61,2.62,47.64,3.13,71.31.06,4.47.51,9.09-1.08,13.51-1.66,4.51-5.14,7.81-9,10.41-11.24,7.49-25.17,8.01-38.18,8.9-8.67.48-17.35.85-26.05.75-18.43-.24-66.4-2.53-74.32-21.82-1.39-3.7-1-7.05-.87-10.62.06-1.9.66-13.99.75-16.21.92-17.3,1.96-34.55,3.39-51.82.88-10.85,2.89-22.51,10.19-31.08,3.05-3.77,6.63-7.11,8.89-11.4.51-.93.9-1.91,1.23-2.91.16-.5.25-1.02.61-1.5.52-.49.28,1.54.16,1.71-.92,3.76-3.16,7.08-5.46,10.11-2.63,3.48-5.41,6.75-7.14,10.56-1.82,3.77-2.87,7.87-3.53,12.04-.63,4.21-.92,8.45-1.06,12.71-.44,17.27-1.15,34.58-2.05,51.86l-.75,12.96c-.05,3.08-.96,9.1.19,11.89,4.46,10.24,21.44,13.94,31.5,16.1,21.06,4.33,42.72,5.09,64.17,3.98,12.64-.76,26.05-1.2,36.63-8.66,3.34-2.39,6.29-5.47,7.46-9.09,1.18-3.64.68-7.89.47-12.24-1.59-25.78-2.12-51.97-2.75-77.75-.24-4.22-.88-8.38-2.72-12.07-3.21-6.64-9.87-11.83-12.04-19.17-.23-1.08-.72-2.16-.3-3.32.04-.12.21-.13.27-.03h-.01Z"/>
          <path class="cls-1" d="M90.75,75.74c14.14.17,28.28-.1,42.42.02,2.13.02,8.49.08,10.6.12,2.67-.04,6.68.04,7.32,3.39.26,1.84-.85,3.38-2.34,4.21-2.37,1.2-5.24.55-7.64.54-4.7-.22-9.4-.38-14.1-.49-4.7-.1-9.41-.15-14.11-.32-4.71-.13-9.42-.22-14.12-.03-9.43.39-18.79,1.92-28.27,1.83-7.11.09-14.33-.15-21.38-1.29l-3.53-.58c-1.85-.34-3.95-.46-5.68-1.65-1.31-.94-2.32-2.71-1.75-4.34,1.31-3.26,7.37-2.25,10.14-2.41,3.54,0,10.62.12,14.16.24,8.03.2,20.35.59,28.29.75h-.01ZM90.73,76.94c-14.01-.15-28.37.17-42.39.49-1.98.12-6.01-.16-7.45.73.02-.03,0-.07.02-.05h0s.02.04.03.06c.03.05,0,.08.06.17.37.76.96.97,1.79,1.22.93.26,2.18.38,3.31.55,3.34.5,7.05.98,10.4,1.2,9.36.7,18.69.22,28.08.32,4.71.04,9.45.16,14.16.05,4.72-.08,9.43-.33,14.15-.5,9.44-.36,18.89-.05,28.33.27l3.52.15c1.72.08,3.68-.12,3.82-1.91-.44-1.52-3.53-1.18-4.83-1.27-17.64-.21-35.38-1.11-53.01-1.46h0v-.02Z"/>
          <path class="cls-1" d="M43.1,76.08c-.69-.81-.64-1.65-.59-2.58-.02-1.29,0-2.62.13-3.9,0-.26.39-.63.69-.4.22.15.22.3.24.44.04.43-.03.85,0,1.28,0,.6,0,1.98.02,2.56.07.92.18,1.71-.41,2.59-.02.02-.05.03-.07,0h-.01Z"/>
          <path class="cls-1" d="M144.23,77.35c-.37-1.18-.07-2.4-.28-3.59-.11-1.19-.29-2.63.61-3.57.02-.02.05-.02.07,0,.25.31.39.61.48.91.11.87.16,1.75.06,2.63-.13,1.17.34,2.31.23,3.49,0,.33-.28.59-.61.58-.27,0-.5-.2-.56-.45h0Z"/>
          <path class="cls-1" d="M81.74,42.38c1.11-1.2,2.23-1.33,3.35-1.36l3.37-.18c6.54-.35,13.69-.65,20.2-.68,8.98-.03,17.96.06,26.93.45,10.5-.46,16.82,3.88,15.91,15.65-.16,4.9-.83,9.78-1.97,14.54-.04.21-.22.35-.43.36-9.26.13-18.52.08-27.77.04-18.26-.1-37.23-.23-55.44-.83-9.24-.26-18.47-.67-27.72-1.02-.08,0-.14-.07-.13-.14,0-.07.06-.13.13-.13,9.23-.69,18.49-.81,27.74-1,18.5-.34,36.99.04,55.47.74,9.24.35,18.48.76,27.71,1.42,0,0-.47.36-.47.35,1.15-4.67,1.45-9.52,1.23-14.31-.12-9.78-4.58-12.95-14.16-11.74-4.53.11-9.06.16-13.59.17-11.13.05-22.48-.11-33.62-.62l-3.36-.13c-1.12,0-2.24-.12-3.38-1.29-.07-.08-.07-.2,0-.28h0Z"/>
          <path class="cls-1" d="M83.73,43.98c-5.76-.34-11.53-.44-17.3-.24-4.33.24-8.65.56-12.98.35-2.79-.08-5.58-.49-8.28.02-7.56,1.34-7.45,10.21-7.18,16.38.1,2.85.32,5.73.33,8.65,0,.08-.06.14-.14.14-.06,0-.11-.04-.13-.09-.94-2.76-1.68-5.58-2.22-8.46-1.25-5.98-1.03-13.08,4.37-17.11,5.11-3.58,11.69-3.11,17.6-3.14,8.64.55,17.29,1.07,25.96.58,2.02-.04,2.04,2.99-.02,2.93h-.01Z"/>
          <path class="cls-1" d="M24.08,118.51c28.57-6.11,58.24-7.64,87.26-3.99,17.36,2.81,34.51,6.34,51.09,12.37,1.21.47.72,2.38-.65,2.06-5.6-1.51-11.22-2.94-16.87-4.24l-16.99-3.87c-5.02-1.16-11.98-2.99-16.97-3.81-5.67-.96-11.45-1.28-17.25-1.42-11.6-.26-23.2-.11-34.78.52-11.59.57-23.16,1.65-34.72,3.05-.19.02-.36-.11-.38-.3-.02-.18.1-.34.27-.38h-.01Z"/>
          <path class="cls-1" d="M110.5,186.05c-2.83-1.6-6.15-2.72-9.28-1.66-3.94,1.43-6.15,5.75-6.46,9.76-.3,7.84,4.59,14.99,9.75,20.53,2.34,2.25,4.79,4.83,7.91,5.87,5.06,1.44,10.41-2.2,11.76-7.15.6-1.97.82-4.1.59-6.19-1.04-8.64-6.67-16.77-14.27-21.16h0ZM111.09,185.01c6.04,3.45,11.71,8.39,14.6,14.92.99,2.2,1.61,4.55,1.92,6.99.55,4.94-1.02,10.35-5.05,13.55-4.06,3.34-9.96,3.43-13.89-.14-3.52-3.13-6.28-6.75-9.26-10.33-2.9-3.67-5.7-7.58-6.74-12.29-1.48-5.99,1.73-13.44,8.06-15.02,3.61-.88,7.33.61,10.36,2.33h0Z"/>
          <path class="cls-1" d="M111.89,186.2c-1-4.77-1.91-9.57-2.42-14.48-.22-2.55-.55-5.07.13-7.65,1.41-5.6,7.96-7.12,12.84-7.62,4.53-.73,8.06.39,9.61,5.06,4.34,12.89,4.17,26.68,4.11,40.11-.05,2.44-.14,4.87-.27,7.31-.21,2.33,0,5.31-.97,7.61-2.21,4.71-9.63,5.16-14.06,4.13-.16-.03-.12-.29.04-.27,3.53.15,7.18-.56,10.14-2.39,2.03-1.3,2.26-3.19,2.19-5.49v-3.64c-.03-2.43-.01-4.86,0-7.29.07-12.04,1.07-24.29-1.66-36.1-1.23-5.34-2.65-8.56-8.85-7.18-4.23.82-9.45,1.8-10.73,6.44-.59,2.02-.56,4.47-.58,6.87.02,4.82.53,9.66.92,14.52.03.27-.4.33-.44.06h0Z"/>
          <path class="cls-1" d="M102.12,133.13c4.9-4.77,11.16-6.18,17.71-6.69,3.2-.35,7.73-.73,9.76,2.56.75,1.24.86,2.34,1.28,3.52.41,1.14,1.09,1.74,1.61,3.1,1.61,4.83-3.52,7.88-6.65,10.35-4.77,3.82-9.03,8.28-12.87,13.01-1.89,2.36-3.51,4.99-4.84,7.79-1.36,2.78-2.46,5.71-3.83,8.57-.74,1.5-1.41,2.98-2.62,4.25-2.61,2.86-7.29,2.44-10.2.32-7.16-5.22-7.16-15.35-4.7-22.98,3.02-9.04,8.29-17.4,15.37-23.79h-.02ZM103.43,134.62c-8.8,7.61-15.09,20.21-15.4,31.86.02,5.27,2.75,12.02,8.58,12.59,2.99.21,4.38-2.37,5.82-4.73,3.29-5.32,5.38-11.29,8.74-16.64,3.51-5.32,8.06-9.82,12.98-13.81,2.29-2.1,6.72-3.85,5.93-7.41-.29-.82-1.26-2.09-1.57-3.13-.74-2.56-.88-4.35-4.06-4.7-1.38-.18-2.85-.05-4.42.08-6.17.38-12.01,1.54-16.6,5.9h0Z"/>
          <path class="cls-1" d="M26.83,212.2c1.73-2.02,3.84-3.72,6.14-5.08,2.06-1.34,4.82-2.01,6.78-3.29,1.95-1.4,3.83-3.64,6.09-4.79,5.23-3.06,11.43-3.27,14.99,2.34,3.74,5.9,2.99,16.75,1.73,23.35-.06.3-.36.49-.66.43-.29-.06-.48-.33-.44-.62.86-7.53,1.31-23.48-7.98-25.62-2.22-.4-4.75.29-6.8,1.55-2.31,1.35-3.44,3.48-5.53,5.24-2.24,1.72-4.69,2.14-7,3.51-2.17,1.16-4.18,2.61-6.05,4.25-.83.72-2.01-.42-1.28-1.27h.01Z"/>
          <path class="cls-1" d="M73.17,225.94c.17-2.46-1.25-4.87-3.35-5.84-1.09-.55-2.46-.86-3.79-1.82-2.14-1.44-1.89-4.29-1.41-6.45.33-1.94.72-4.06.98-6,.26-2.02.47-4.01.63-6.05.05-1.47.86-3.26,2.47-3.63,2.14-.53,4.23,0,6.35.22,5.46.73,10.77,2.55,15.52,5.29,2.38,1.33,4.68,2.77,6.87,4.41.17.13.21.38.08.55-.1.14-.28.19-.44.14-2.59-.86-5.08-1.92-7.55-2.94-3.47-1.27-19.65-9.09-21.8-5.64-.63,1.03-.65,2.49-.83,3.71-.16,1.34-.3,2.68-.42,4.03-.2,2.61-.32,5.44-.41,8.04-.22,2.94,2.28,3.32,4.59,4.49,2.79,1.43,4.26,4.77,3.55,7.66-.15.61-1.1.47-1.04-.17h0Z"/>
          <path class="cls-1" d="M49.96,156.87c-5.76-2.1-10.07-.24-12.41,5.45-1.75,4.77-.72,10.43,2.36,14.45,1.66,2.18,3.9,4.03,5.19,6.6.69,1.32.95,2.99.66,4.44-.26,1.4-.58,2.66.09,3.68,1.51,2.07,4.64,2.68,7.04,3.34,3.95.89,8.07,1.07,11.97.06,6.15-1.63,11.76-6.56,12.09-13.2.78-14.4-15.4-21.13-26.98-24.82h0ZM50.34,155.65c7.89,2.48,16.46,4.69,22.84,10.43,9.75,8.55,8.86,24.22-3.76,29.4-5.36,2.22-11.36,1.84-16.77.24-1.34-.39-2.66-.83-3.97-1.31-1.29-.5-2.7-1.08-3.63-2.39-.93-1.26-.66-2.98-.49-4.36.13-1.29-.17-2.46-.84-3.53-1.34-2.16-3.61-3.74-5.55-5.93-1.94-2.25-3.24-5.04-3.69-7.98-1.04-5.79,1.62-12.56,7.29-14.93,2.77-1.16,5.87-.54,8.57.36h0Z"/>
          <path class="cls-1" d="M134.83,176.6c2.93-.87,5.9-1.49,8.87-2.05,7.05-1.56,9.18,1.96,9.35,8.53l.33,4.57c.46,6.07,1.49,12.18,1.02,18.29-.15,2.29-.23,5.18-1.76,7.25-1.53,2.01-3.39,3.42-5.42,4.85-4.19,2.96-9.7,1.58-13.84-.73-.14-.07-.06-.29.09-.26,2.99.54,6.01,1.11,8.67.52,2.77-.55,4.77-2.77,6.77-4.61,2.25-1.88,2.55-4.38,2.89-7.25.89-7.42,1.9-15.07-.22-22.37-.8-2.42-.94-5.58-3.56-6.52-1.09-.32-2.51-.17-4,0-3.01.33-6.03.6-9.08.63-.47.02-.58-.7-.12-.82h0v-.03Z"/>
          <path class="cls-1" d="M90.54,177.07c-1.81,1.59-2.77,3.81-3.46,6.02-1.73,5.82,2.47,11.34,4.29,16.66.43,1.12.89,2.25,1.27,3.5.04.12-.11.24-.22.17-4.49-2.79-6.44-8.05-7.03-13.08-.26-2.51-.52-5.13.19-7.69.67-2.49,2.66-4.52,4.8-5.81.14-.08.28.11.16.22h0Z"/>
          <path class="cls-1" d="M104.05,173.43c.95-1.22,3.04-.57,3.75.61.4.59.55,1.24.73,1.82.94,2.85,2.03,5.84.92,8.82-.54.92-1.35-3.06-1.43-3.35-.16-.97-.32-2.39-.49-3.38-.23-1.76-1.15-4.54-3.34-4.3-.12.03-.22-.13-.14-.23h0Z"/>
          <path class="cls-1" d="M21.78,207.99c-.13-1.57.26-3.18,1.15-4.46.47-.6,1.17-1.07,1.5-1.68.34-.61.37-1.33.07-1.86-.63-1.15-1.59-1.87-2.51-2.85-.95-1.14-1.77-2.45-2.18-4.13-.02-.09.03-.17.12-.19,3.2.82,6.39,3.5,6.23,6.97-.09.96-.43,1.74-.65,2.51-.36,1.6-.44,3.02-1.64,4.26-.53.62-1.1,1.16-1.85,1.56-.1.06-.23-.01-.24-.13h0Z"/>
          <path class="cls-1" d="M25.44,200.08c2.68-.69,5.25-.9,7.9-1.43,2.81-.26,5.06-1.65,5.37-4.67.28-2.66-.02-5.24-.16-7.93-.04-2.8.06-5.51.48-8.33.4-.82,1.7,3.66,1.76,3.99.99,4.14,1.31,8.81-.7,12.72-2.19,4.06-5.46,7.47-10.43,7.13-.61.03-5.87-.41-4.22-1.48h0Z"/>
          <path class="cls-1" d="M22.43,147.5c6.99-5.42,16.07-.21,16.1,8.3,0,1.04-.06,2.07-.33,3.12-.04.16-.2.25-.35.21-2.33-3.19-2.43-7.34-4.73-10.44-.51-.73-1.23-1.32-2.01-1.47-.75-.14-1.68.31-2.64.5-1.99.34-3.91.36-5.96.04-.12-.02-.17-.19-.07-.27h0Z"/>
          <path class="cls-1" d="M22.43,147.5c6.99-5.42,16.07-.21,16.1,8.3,0,1.04-.06,2.07-.33,3.12-.04.16-.2.25-.35.21-2.33-3.19-2.43-7.34-4.73-10.44-.51-.73-1.23-1.32-2.01-1.47-.75-.14-1.68.31-2.64.5-1.99.34-3.91.36-5.96.04-.12-.02-.17-.19-.07-.27h0Z"/>
          <path class="cls-1" d="M77.99,175.08c2.72-1.2,5.52-1.8,8.13-3.21.34-.18.76-.05.94.29.15.29.08.64-.16.84-1.2,1.04-2.61,1.9-4.15,2.36-1.56.44-3.21.62-4.75,0-.12-.04-.13-.23,0-.28h-.01Z"/>
          <path class="cls-1" d="M64.27,161.39c.82-5.03-2.71-9.14-3.83-13.83-.98-4.34,1.07-8.09,5.08-9.87,3.72-1.86,8.31-3.34,11.38.56,5.18,5.68,6.04,13.79,10.87,19.48.12.14.1.35-.04.47-.11.1-.27.1-.39.03-2.2-1.35-3.93-3.42-5.31-5.57-3.04-4.53-4.49-10.02-8.17-13.95-2.14-1.8-5.48-1.11-7.96-.21-2.19.8-4.03,2.76-3.9,5.16.2,3.61,2.38,6.72,3.29,10.2.65,2.5.95,5.42-.38,7.76-.18.33-.72.13-.63-.24h0Z"/>
          <path class="cls-1" d="M145.27,174.74c-1.91-3.28-3.05-6.97-3.7-10.7-.49-2.37-.51-5.39,1.36-7.23,2.2-2.36,4.89-3.89,7.61-5.23.69-.33,1.42-.63,2.22-.79,2.7-.67,4.3,2.15,5.33,4.16,2.07,4.05,2.63,8.8,3.54,13.12.58,3.01,1.18,6.23.4,9.33-1.04,4.61-4.63,8.79-9.09,10.13-.15.04-.25-.16-.12-.25,3.59-2.52,5.96-6.19,6.59-10.39.42-2.79-.26-5.55-.62-8.37l-.59-4.4c-.54-3.59-.72-7.28-2.3-10.58-.97-2.4-2.95-2.35-4.95-1.17-2.55,1.42-4.61,3.65-6.22,5.87-.37.54-.65,1.07-.8,1.59-.46,1.91.02,4.11.18,6.09.34,2.9.87,5.78,1.41,8.74.04.15-.19.23-.26.1h0v-.02Z"/>
          <path class="cls-1" d="M99.65,227.02c.02-1.16.31-2.28.99-3.19.34-.39.83-.7,1.13-1.13,1.09-1.81.63-4.21,2.03-5.88.34-.45.69-.91,1.25-1.36.08-.07.22-.05.27.05.64,1.14.76,2.36.49,3.57-.5,1.66-1.81,2.92-2.57,4.44-.23.51-.28,1.14-.52,1.66-.25.52-.68.92-1.14,1.28-.48.34-1.02.63-1.72.76-.11.02-.21-.07-.21-.18h0v-.02Z"/>
          <path class="cls-1" d="M150.31,213.81c.6.23,1.16.45,1.54.93.13.2.19.49.35.7.33.4.88.53,1.31.77.82.33,1.32.7,2.14,1.31.09.07.09.21,0,.28-1.67,1.11-3.31-.02-4.53-1.19-.63-.35-1.19-.74-1.26-1.55-.03-.37-.02-.75.19-1.15.05-.1.16-.13.26-.1h0Z"/>
          <path class="cls-1" d="M153.43,193.4c.06-1.19,1.33-2.07,2.46-2.12,1.09.03,2.06.43,3.12.49l1.47.13c.49.02,1.04-.06,1.48.03,1.05.24,1.34.81,2.42,1.28.09.04.14.15.1.24-.25.69-.94,1.08-1.55,1.23-1.22.35-2.11-.15-3.03-.8-.74-.35-1.84-1.01-2.63-1.13-.44-.07-.88.02-1.27.08-.77.1-1.51.14-2.35.7-.1.07-.24-.01-.24-.13h.02Z"/>
          <path class="cls-1" d="M137.11,176.42c-.57-3.77-.65-7.59-.6-11.38.07-1.84.3-3.74-.2-5.55-.48-1.9-1.97-3.43-2.37-5.39-.92-3.87,1.73-8.14,5.57-9.19,2.21-.54,4.75-.41,6.6,1.13,1.84,1.83,2.83,4.1,4.04,6.32.06.13-.1.26-.21.17-1.5-1.17-2.89-2.61-4.27-3.86-.68-.62-1.24-.91-1.94-1.07-1.41-.26-3.15-.05-4.5.55-2.16,1.02-3.61,3.41-3.78,5.8-.15,1.71,1.03,3.42,1.71,5.27.72,1.82,1.43,3.75,1.69,5.72.36,3.9-.2,7.81-1.46,11.52-.04.13-.26.12-.27-.03h-.01Z"/>
          <path class="cls-1" d="M125.11,134.3c-3.64-.73-7.05,1.02-8.39,3.76-.39.71-.75,1.53-1.17,2.39-1.16,2.64-3.45,4.98-5.44,6.85-2.72,2.46-4.35,5.43-5.44,8.85-1.29,3.4-2.22,6.96-3.63,10.39-.05.13-.27.1-.27-.04-.18-1.9-.14-3.79.02-5.68.31-4.86,2.38-9.56,5.66-13.18,1.83-2.02,4.24-3.74,5.72-5.89,1.39-2.07,1.86-5.75,4.38-7.39,2.44-1.87,6.26-2.14,8.67-.31.12.09.03.28-.12.25h.01Z"/>
          <path class="cls-1" d="M70.34,148.27c1.45,1.25,2.39,2.78,2.8,4.58.15.89.01,1.87.3,2.65.28.8.93,1.38,1.69,1.8,3.34,1.59,6.14,4.73,6.11,8.65,0,.12-.15.2-.25.12-3.74-2.83-6.18-6.15-8.35-10.18-1.1-1.55-2.3-2.74-2.51-4.73-.16-.88-.23-1.79-.05-2.8.02-.12.17-.17.26-.1h0Z"/>
          <path class="cls-1" d="M67,174.36c.15,3.54-5.59,2.52-7.81,2.3-2.82-.29-5.38-1.69-8.08-2.32-1.26-.23-2.67-.65-3.75.08-.91.65-.56,1.53.34,2.15,2.19,1.5,5.1.87,7.6,1.92,3.94,1.51,6.8,5.34,6.86,9.26,0,.14-.2.2-.27.07-1.72-3.13-4.28-5.46-7.59-6.56-1.46-.52-3.3-.67-5.3-1.34-2.08-.59-4.75-2.88-3.57-5.33,1.4-2.23,3.86-1.33,5.82-1.13,2.77.32,5.61.14,8.34.78l2.68.55c1.56.21,3.56,1.28,4.45-.45.04-.13.25-.11.27.02h0Z"/>
          <path class="cls-1" d="M28.78,158.25c.87,2.69,1.29,5.43,1.46,8.22,0,2.75-.08,5.52.15,8.26.15,3.99,1.09,7.8,2.25,11.58.41,1.24.94,2.44,1.57,3.74.06.12-.08.26-.2.19-2.63-1.36-4.42-4.11-5.21-6.91-.66-2.8-.63-5.68-.72-8.51.03-2.77-.25-5.51-.45-8.26-.04-2.79.19-5.56.86-8.3.03-.13.24-.14.28,0h0Z"/>
          <path class="cls-1" d="M46.88,208.25c.9-.12,1.71.04,2.29.64.37.62.64,1.29,1.26,1.72.78.79,1.88,1.34,1.82,2.61.01.41-.07.86-.29,1.38-.04.1-.14.15-.24.13-.91-.14-1.61-.38-2.15-.98-.31-.56-.52-1.19-.85-1.76-.3-.71-.82-.96-1.41-1.34-.53-.59-.64-1.31-.62-2.19,0-.1.08-.19.18-.21h0Z"/>
          <path class="cls-1" d="M89.8,218.88c-1.23.11-2.45-.05-3.53-.61-.48-.29-.9-.75-1.43-.98-1.04-.48-2.27-.27-3.37-.38-.48-.01-1.2.04-1.66-.04-1.09-.2-2.16-.56-3.38-1.36-.08-.05-.1-.16-.05-.24,1.1-.99,2.44-1.32,3.7-1.31,1.89.14,3.52,1.24,5.29,1.77.59.15,1.26.1,1.87.27.6.18,1.11.56,1.58.98.46.45.87.97,1.13,1.67.04.11-.04.22-.15.23h0Z"/>
          <path class="cls-1" d="M85.45,206.95c1.59-.43,3.34-.15,4.77.65,1.55,1.27,3.1,2.52,4.71,3.72l.87.84c1.2,1.1,2.18,2.51,2.44,4.14.14.84.18,1.68-.03,2.52-.03.12-.18.16-.26.08-1.7-1.45-3.04-3.17-4.11-5.11l-.63-.85c-.85-1.13-1.83-2.26-3.21-2.74-1.39-.45-2.55-1.29-3.69-2.2-.31-.23-.62-.49-.93-.81-.08-.08-.04-.23.07-.26h0v.02Z"/>
          <path class="cls-1" d="M102.27,194.76c1.69.75,3.04,2.08,3.56,3.84.24,1.88-.06,3.43,1.01,5.11.8,1.42,1.34,2.83,2.04,4.2.64,1.47,1.52,3.26,1.19,5.02-.02.12-.17.17-.26.08-1.35-1.27-2.55-2.13-3.53-3.73-.88-1.63-1.12-3.49-.91-5.28.09-.87.08-1.71-.22-2.47-.28-.78-.95-1.4-1.41-2-.48-.63-.75-1.34-1.06-2.07-.29-.76-.57-1.57-.63-2.55,0-.12.12-.21.22-.16h0Z"/>
          <path class="cls-1" d="M111.92,193.48c1.21.48,2.07,1.15,2.47,2.31.13.56.04,1.26.24,1.77.39,1.09,1.81,1.59,2.31,2.62,1.1,1.55,1.24,3.7-.14,5.28-.07.08-.21.07-.27-.01-.81-1.12-1.29-1.92-1.66-2.82-.3-.99-.49-1.97-.5-3.07,0-.59-.16-1.13-.51-1.55-.35-.42-1.01-.66-1.44-1.03-.44-.38-.63-.92-.78-1.46-.14-.57-.19-1.18.03-1.91.03-.1.14-.16.25-.12h0Z"/>
          <path class="cls-1" d="M125.03,167.08c-.35.28-.18.79-.15,1.2.11,1.6.15,3.19-.16,4.76-.23,1.03-.69,2.09-.74,3.17-.07,1.07.18,2.14.55,3.17.77,2.07,1.31,4.17,1.53,6.37.11,2.25-.15,4.64-1.31,6.65-.04.07-.13.09-.21.05-.7-2.14-1.03-4.22-1.41-6.4-.24-2.14-.38-4.32-.1-6.51.14-1.12.2-2.22.06-3.3-.12-1.09-.55-2.19-.67-3.32-.14-1.69.31-3.37,1-4.91.24-.57.87-1.5,1.62-1.2.12.06.1.22-.01.28h0Z"/>
          <path class="cls-1" d="M92.33,182.31c-.22.17,0,.35.04.46.16.29.3.46.29.8.09.56-.32.96-.48,1.45-.2,1,.16,2.04-.02,3.04-.16.67-.41,1.36-.97,2.13-.06.08-.17.1-.26.04-1.37-1.21-1.5-2.85-1.01-4.43.12-.37.22-.73.24-1.11,0-.57-.2-1.18.15-1.7.11-.2.25-.4.38-.58.32-.47,1.37-1.04,1.76-.35.04.11-.04.19-.12.25h0Z"/>
          <path class="cls-1" d="M144.49,182.7c1.52,2.21,2,5.07,1.43,7.66-.34,1.3-1.04,2.48-1.5,3.67-.74,2.12-1.67,4.97-1.98,7.04-.06.97.21,2.03.41,3.23.4,2.52.6,5.06.25,7.64-.02.13-.2.17-.27.06-1.37-2.24-2.21-4.61-2.86-7.11-.77-2.71-.11-5.75,1.94-7.85.78-.96,1.4-2.06,1.66-3.27.39-1.82-.12-3.66.12-5.47.15-1.83.22-3.63.52-5.53.02-.13.2-.17.27-.07h.01Z"/>
          <path class="cls-1" d="M161.57,201.05c-1.89.16-4.51.44-3.34,2.96.93,1.55,1.6,4.02,0,5.45-.53.48-1.12.75-1.78.84-.09.01-.17-.05-.18-.14.15-.63.46-1.19.54-1.65.17-.94.04-1.56.04-2.56-.16-.93.17-2.62.33-3.6.1-1.64,1.14-2.83,2.83-2.46.34.02,2.13.87,1.55,1.16h.01Z"/>
          <path class="cls-1" d="M150.19,165.46c-.27-2.09-.67-4.09-.18-6.2.35-1.44,2.14-3.06,3.7-2.13.93.74.64,1.89.85,2.85.63,3.97,1.84,7.91,1.76,11.98-.09,2.7-.52,5.4-1.6,7.98-.03.07-.12.11-.19.08-.84-2.59-.96-5.35-1.14-8.04-.15-3.94.49-7.92.05-11.85-.12-.48-.16-1.61-.5-1.82-.62.21-1.14.75-1.41,1.46-.38.38-.77,6.62-1.34,5.68h0Z"/>
          <path class="cls-1" d="M143.68,150.9c-.98.82-1.66,1.32-2.49,2.11-.42.55-.34,1.33-.42,1.96-.07,1.11.16,2.35-.49,3.41-.05.07-.15.09-.23.04-1.98-2.26-1.88-3.97.1-6.18.68-1.2,2.08-2.07,3.48-1.61.12.03.14.2.04.27h0Z"/>
          <path class="cls-1" d="M43.52,131.32c-2.15.9-3.32,3.08-3.11,5.29.11,1.09.96,2.14,2.06,2.53,1.1.43,2.33.23,3.21-.27l-.18.13c2.1-2.57.74-6.56-2.34-7.67-.07-.02-.05-.14.02-.14.91-.04,1.87.25,2.66.8,2.69,1.7,2.82,6,.34,7.95-2.99,1.14-7.42-1.74-6.9-5.12.31-1.97,2.2-3.83,4.22-3.63.07,0,.09.11.02.14h0Z"/>
          <path class="cls-1" d="M86.76,125.27c-.06,1.03.1,1.69.23,2.43.03.34.15.84.52,1.04,1.21.54,1.36-1.5,1-2.2-.2-.58-1.22-.93-1.86-1.21-.04-.02-.06-.06-.04-.1.44-.3,1.03-.35,1.58-.31,2.17.11,2.59,3.18.82,4.17-1.08.57-2.31-.09-3.03-.95-.61-.98-.28-2.4.68-2.95.05-.03.12.01.12.07h-.02Z"/>
          <path class="cls-1" d="M150.19,133.52c-1.75-.16-2,1.44-2.42,2.79-.25.73-.59,1.46-.48,2.21.29,1.67,1.94,1.93,2.88.65.8-1.19.43-2.58.21-3.95-.16-.72-.28-1.47-.98-1.85-.03-.02-.05-.06-.03-.1.43-.18.98.17,1.29.49,1.77,1.94,2.29,6.06-.78,7.04-3.97.94-4.44-7.33-.91-7.82.47-.07,1.01.07,1.29.42.05.05,0,.13-.07.12h0Z"/>
        </g>
        <g>
          <path class="cls-1" d="M184.06,245.94c-.12-1.63,1-2.77,2.53-2.88,1.56-.11,2.81.85,2.92,2.48.12,1.58-.98,2.79-2.53,2.9-1.53.11-2.81-.93-2.93-2.51h0Z"/>
          <path class="cls-1" d="M175.39,11.52c-.12-1.63,1-2.77,2.53-2.88,1.56-.11,2.81.85,2.92,2.48.12,1.58-.98,2.79-2.53,2.9-1.53.11-2.81-.93-2.93-2.51h0Z"/>
          <g>
            <path class="cls-1" d="M183.31,231.41l3.69.22.43-7.4,3.67.21-.43,7.4,5.75.34-.28,4.74-16.77-.98.77-13.15,3.67.21-.49,8.41h-.01Z"/>
            <path class="cls-1" d="M193.89,207.88l3.67.15-.54,13.48-16.79-.67.53-13.17,3.67.15-.34,8.47,2.83.11.3-7.46,3.55.14-.3,7.46,3.07.12.35-8.78h0Z"/>
            <path class="cls-1" d="M193.29,197.99l-.04,2.59,4.46.07-.07,4.75-16.8-.25.11-7.68c.07-4.58,2.49-7.43,6.33-7.37,2.47.04,4.28,1.26,5.26,3.37l5.33-3.55-.07,5.09-4.51,2.98h0ZM184.7,197.82l-.04,2.64,4.92.07.04-2.64c.03-1.97-.87-2.97-2.41-2.99-1.56-.02-2.49.95-2.52,2.92h0Z"/>
            <path class="cls-1" d="M197.53,172.55l-8.9.27,7.35,4.14.05,2.11-6.9,4.47,8.66-.21.11,4.39-16.79.42-.1-3.91,9.54-6.14-9.83-5.52-.1-3.91,16.79-.46.11,4.37v-.02Z"/>
            <path class="cls-1" d="M192.56,151.54l3.66-.26.96,13.46-16.76,1.2-.94-13.14,3.66-.26.6,8.45,2.83-.2-.53-7.45,3.54-.25.53,7.45,3.06-.22-.63-8.76.02-.02Z"/>
            <path class="cls-1" d="M177.34,134.22l16.67-2.03.47,3.88-7.99,8.44,8.88-1.08.56,4.62-16.67,2.03-.47-3.88,7.99-8.44-8.88,1.08-.56-4.62Z"/>
            <path class="cls-1" d="M179.91,126.97l.9,5.08-3.71.66-2.63-14.82,3.71-.66.9,5.06,12.83-2.28.83,4.68-12.83,2.28h0Z"/>
            <path class="cls-1" d="M185,103.21l1.55,6.93,3.47.58,1.06,4.73-18.01-3.57-1.02-4.57,14.77-10.92,1.08,4.83-2.9,2h0ZM181.88,105.33l-4.78,3.28,5.72.94-.94-4.22Z"/>
            <path class="cls-1" d="M172.35,95.18l1.17,5.03-3.67.86-3.43-14.66,3.67-.86,1.17,5,12.69-2.97,1.08,4.63-12.69,2.97h0Z"/>
            <path class="cls-1" d="M165.99,82.68l-.39-4.74,16.75-1.37.39,4.74-16.75,1.37Z"/>
            <path class="cls-1" d="M173.73,74.02c-5.03-.31-8.48-4.49-8.14-9.86.34-5.37,4.26-9.09,9.3-8.78,5.03.31,8.48,4.49,8.14,9.86-.33,5.37-4.27,9.09-9.3,8.78ZM174.59,60.17c-2.9-.18-4.91,1.69-5.07,4.23s1.61,4.64,4.51,4.82c2.9.18,4.91-1.69,5.07-4.23s-1.61-4.64-4.51-4.82Z"/>
            <path class="cls-1" d="M167.88,36.23l16.76,1.17-.27,3.9-9.45,6.77,8.93.63-.33,4.64-16.76-1.17.27-3.9,9.45-6.77-8.93-.63.33-4.64Z"/>
            <path class="cls-1" d="M183.29,35.02l-3.39-1.8c1.09-1.42,1.9-3.47,2.04-5.41.14-1.96-.36-2.77-1.17-2.83-2.66-.19-1.39,9.48-7.61,9.04-2.99-.21-5.26-2.82-4.91-7.8.15-2.18.81-4.39,1.89-5.98l3.42,1.71c-.97,1.54-1.52,3.09-1.62,4.55-.14,1.99.48,2.75,1.32,2.81,2.56.18,1.31-9.46,7.49-9.03,2.92.21,5.24,2.82,4.89,7.8-.19,2.75-1.13,5.43-2.34,6.93h-.01Z"/>
          </g>
        </g>
      </g>
    </g>
  </g>
</svg>