<?xml version="1.0" encoding="UTF-8"?>
<svg id="Calque_2" data-name="Calque 2" xmlns="http://www.w3.org/2000/svg" viewBox="0 0 402.22 195.67">
  <defs>
    <style>
      .cls-1 {
        fill: #175676;
      }

      .cls-1, .cls-2 {
        stroke-width: 0px;
      }

      .cls-2 {
        fill: #f8f4e8;
      }
    </style>
  </defs>
  <g id="Calque_2-2" data-name="Calque 2">
    <g>
      <path class="cls-2" d="M105.71,3.66c9.78-3.16,21.01-5.49,29.89-.32,4.29-4.44,12.31-4.46,16.62-.04s4.1,12.43-.44,16.62c11.85-.92,23.92,1.21,34.74,6.13-2.91-7.28.18-16.45,6.91-20.47,7.99-4.79,18.19-2.17,27.03.78,19.48,6.51,38.86,14.07,59.27,16.36,29.6,3.32,59.99-4.63,89.13,1.51,15.98,3.37,33.23,14.24,33.36,30.57.09,11.52-9.1,21.67-19.98,25.47-3.59,1.25-7.42,1.97-10.66,3.96-3.1,1.9-5.42,4.81-7.99,7.39-8.9,8.93-21.08,13.96-33.44,16.43-28.3,5.66-57.4-1.12-86.19-3.08-3.2-.22-6.45-.37-9.57.37-3.22.76-6.13,2.44-9.1,3.89-19.65,9.58-48.51,9.29-70.36,9.01,8.1,6.11-38.19,31.17-9.61,21.66,8.49-3.65,19.32,5.31,17.33,14.34,10.04,3.52,13.9,17.19,9.09,26.69-4.81,9.5-15.91,14.56-26.55,14.73s-20.91-3.77-30.47-8.42c-10.41,5.87-24.71,3.68-32.89-5.03-6.67,3.24-15.06,2.62-21.18-1.56-6.12-4.18-9.75-11.78-9.15-19.17-11.18-1.06-19.41-14.2-15.49-24.72-7.53-1.45-8.34-12.02-6.21-19.38,1.66-5.73,3.99-11.74,2.33-17.47s-9.78-9.66-13.69-5.16c-1.94,6.69-12.45,8.34-16.67,2.8-4.22-5.54-.43-14.89,6.39-16.34-12.22-14.41,27.23-40.08,36.92-46.98,18.5-13.19,39.01-23.57,60.64-30.55v-.02Z"/>
      <g>
        <g>
          <path class="cls-1" d="M116.13,161.73s-.1-.02-.13,0l.1-.04s.02.03.03.04Z"/>
          <path class="cls-1" d="M147.14,95.1c2.95,1.79,6.14,2.04,9.46,2.41,2.85.42,7.05.77,9.97.96,1.68.11,3.37.1,5.04-.15,1.68-.25,3.32-.96,4.99-1.25,3.54-.44,6.93-.1,10.34,1.33.12.05.14.22.03.3-1.6,1.16-3.24,1.84-4.92,2.36-1.67.49-3.37.87-5.11.82s-3.5-.55-5.23-.69c-6.94-.24-14.16.65-20.66-2.42-1.62-.79-3.18-1.93-4.12-3.46-.08-.13.08-.3.21-.21h0Z"/>
          <path class="cls-1" d="M193.01,97.85c3.66-.85,7.04-1.62,10.65-2.26,2.31-.5,4.74-.53,7-1.28,3.35-1.45,6.73-2.75,10.4-3.18.88.11-2.4,2.68-2.68,2.86-2.53,2.02-5.74,2.42-8.7,3.45-5.27,2.16-11.23,2.46-16.67.7-.14-.04-.14-.27.01-.3h0Z"/>
          <path class="cls-1" d="M235.78,58.34c-5.12-.92-9.55,2.17-10.62,7.19-1.49,4.72,2.26,9.71,7.09,10.26,3.61.48,6.79-1.7,9.38-3.92,5.52-5.32.78-12.62-5.85-13.53ZM235.56,73.84c-2.95-.07-5.43-1.44-7.95-3.01-1.79-1.06-2.77-3.16-2.17-5.22,1.55-5.97,11.03-5.16,14.71-1.87,1.28,1.2,1.99,2.87,1.88,4.83-.28,2.96-3.65,5.17-6.47,5.27h0Z"/>
          <path class="cls-1" d="M237.54,65.06l-.22-.21c-.45-.12-.89-.21-1.35-.25-1.04-1.18-3.04-1.38-4.47-.46-2.68,1.94-.36,5.79,2.08,6.73,1.38.47,3.39.07,4.32-1.27,1-1.33.98-3.45-.37-4.55h.01ZM236.01,66.24c-.02.83-.59,1.38-.92,1.73-.65.53-1.98.77-2.89.41-.55-.25-.93-.94-.63-1.38.28-.43.85-.39,1.25-.56.75-.33,1.51-.69,2.78-.97.19.34.39.66.63.98l-.22-.21h0Z"/>
          <path class="cls-1" d="M260.08,37.11c-8.28-.1-16.55-.45-24.8-1.23-7.64-.75-15.38-1.68-22.79-4.05-7.35-2.3-14.52-6.37-18.89-12.86-.05-.07-.03-.16.04-.21.07-.04.15-.02.2.04,7.21,9.19,19.15,12.33,30.24,13.73,9.36,1.11,18.99,1.57,28.7,1.66,2.04.74,4.06,1.54,6.08,2.4.41.17.82.34,1.23.51h-.01Z"/>
          <path class="cls-1" d="M377.47,43.79c-21.46-14.51-48.64-11.63-73.22-11.06-11.49.44-23.31,1.04-35.18,1.32-6.13-1.74-12.07-4.47-18.3-6.25-10.24-2.96-20.79-4.38-31.28-5.97-6.73-1.09-13.91-2.25-18.65-7.62-.1-.14-.34.02-.25.17,5.52,9.07,19.04,10.47,28.5,13.06,8.06,1.91,15.94,3.93,23.66,6.75,2.04.74,4.06,1.54,6.08,2.4.41.17.82.34,1.23.51,6.3,2.55,13.06,4.24,19.81,4.85,14.24,1.3,28.11-.28,42.27.75,10.37.68,20.95,1.46,30.2,6.4,6,3.2,11.28,8.31,13.35,14.92,1.49,4.85,1.32,9.13-.16,12.87-5.22,2.17-10.35,3.83-13.99,5.11-10.85,3.55-21.82,6.3-33.12,7.49-6.54.76-16.09,1.15-22.79,1.62-17.65,1.16-36,2.32-53.74,2.37.16-.07.33-.13.51-.19,8.72-3.11,17.41-6.56,25.87-10.34,2.48-.99,4.75-2.37,7.12-3.57l.89-.43.16-.08c1.23-.61,1.33-2.19.6-3.08-.69-.88-1.52-1.65-2.45-2.26,1.96-.68,3.99-1.37,5.61-1.93,1.21-.49,2.67-.63,3.61-1.88,1.47-2.02-.02-4.97-2.23-5.48l-.24-.07-.48-.14c-6.34-1.83-12.82-3.26-19.35-4.28,2.84-1.77,2.08-6.29-1.56-7.15-6.83-1.81-13.76-3.67-20.61-5.39-11.55-2.85-23.19-5.42-34.83-7.98-7.49-1.33-16.03-2.9-23.51-4.14-16.61-2.52-37.93-3.19-50,10.55-.34-.6-1.57-1.66-1.73-1.82-2.08-1.91-4.82-3.33-7.69-3.37-6.65-.31-13.8,3.19-17.12,8.83-9.44-2.66-20.25,2.14-24.64,10.86-.06-.01-.13-.03-.17-.04-10.39-2-21.57,5.75-23.16,16.21-.04.33-.13.73-.47.86-3.38,1.39-6.62,3.24-9.26,5.86-5.41,5.03-7.35,14.11-2.63,20.24.17.23.51.56.29.83-1.85,1.89-3.31,4.16-4.16,6.68-2.55,7.32-.9,16.38,5.1,21.59-3.98,9.25,1.49,21.32,11.2,24.11,2.61.67,2.49,2.56,2.81,4.82.66,4.59,3.4,8.73,6.98,11.49,4.47,3.54,10.53,5.09,16.12,3.73.08.01.18.08.24.14l.22.22c3.12,3.22,7.19,5.49,11.52,6.58,5.86,1.47,12.33.78,17.63-2.19.09-.05.22-.1.31-.07l.46.14c7,2.09,14.12,3.77,21.29,5.24,7.09,1.48,15.71,2.6,22.07-2.16,4.97-3.9,8.16-11.34,5.81-17.69-1.56-3.83-5.68-6.54-9.8-6.96,2.55-3.28,2.18-8.56-1.15-11.31-5.08-4.47-12.43-3.43-17.19-.38-6.59,3.87-10.63,10.74-17.75,13.52l-.07.03s.02.03.03.04c-.03-.02-.1-.02-.13,0l.1-.04c-.94-1.84-2.29-3.67-3.79-5.16,1.02-.35,2.01-.75,2.98-1.15,3.33-1.34,6.44-2.83,9.65-4.42,1.06-.56,2.38-.63,3.28-1.57.67-.72.51-2.2-.59-2.43-4.5-.16-9.04-.67-13.56-.37-4.5.17-8.95.94-13.29,2.15-.13.04-.26.09-.39.14.33-1.75.25-3.6-.2-5.37,6.42,1.16,12.89,1.19,19.39.68,1.02,0,2.46-.71,2.27-1.98-.1-.68-.7-1.1-1.18-1.23-2.34-.69-4.76-1.06-7.04-1.67-2.04-.54-4-1.42-6.01-2.05-3.96-1.14-8.16-1.53-12.26-1.07-.39-.28-.79-.54-1.21-.75,1.56-1.5,2.53-3.56,2.79-5.69,6.07,2.42,11.96,4.75,18.15,6.8,3,.89,6.18,2.6,9.42,1.9,1.23-.46,1.02-1.86.09-2.4-.46-.31-1.21-.63-1.7-.89-2.75-1.37-5.06-3.44-7.47-5.29-3.59-2.56-7.24-4.89-11.14-7,.97-.97,1.75-2.11,2.25-3.39,6.74,6.98,16.28,10.79,24.74,15.19.54.25,1.17.71,2.11.71,1.97-.12,2.14-2.68.92-3.8-2.34-2.14-4.33-4.47-6.5-6.77-3.13-3.02-6.55-5.69-10.28-7.94.91-.54,1.76-1.18,2.52-1.89,3.28,2.87,6.72,5.39,10.2,7.86,3.16,2.14,6.4,4.18,9.66,6.18.45.26,1.12.57,1.73.6,1.06.1,2.27-.8,2.1-1.97-.08-.61-.49-1.05-.79-1.47-1.09-1.44-2.34-2.77-3.54-4.11-1.59-1.76-2.95-3.75-4.57-5.52-2.59-2.67-5.55-4.97-8.79-6.8,1.55.4,3.21.36,4.74-.1.45-.13.88-.31,1.3-.53,1.94,2.54,4.18,4.73,6.42,6.86,1.89,1.71,4.08,3.45,6,5.17.27.23.81.67,1.09.9,1.76,1.44,3.58-.63,2.17-2.33-2.02-2.5-3.1-5.48-4.47-8.35-.85-1.61-1.99-3.02-3.19-4.38-1.05-1.09-2.09-2.29-3.37-3.1.54-.54,1.17-.74,2.04-.19,2.11,1.41,4.59,3.02,7,4,12.57,5.46,26.54,3.98,39.75,2.77,7.97-.79,15.91-1.62,23.7-3.83,7.92-2.32,15.31-5.81,22.8-9.08,12.7,2.17,25.58,3.4,38.47,3.84,14.08.47,28.2.09,42.21-1.26,13.93-1.46,28.46-3.09,40.9-10.09,4.57-2.64,9.12-5.91,11.8-10.6.17-.31.33-.61.48-.92,10.51-5.05,21.69-11.95,21.94-21.16-.16-6.21-5.81-10.21-10.37-13.54l.05.02ZM114.3,149.68c4.43-.36,8.81-1.32,13.22-1.79h0s.09.04.13.13c.42,1.45-2.11,1.19-3.13,1.45-4.95.51-9.39,3.01-13.12,6.22-3.22-2.79-7.25-4.63-11.49-5.06.07-.19.13-.38.19-.57,4.68.12,9.45.19,14.19-.36v-.02ZM100.98,138.37c2.02.57,4.03,1.06,6.13,1.32,2.09.25,4.25.2,6.32.55,1.62.27,3.19.74,4.66,1.43-.55-.04-1.09-.08-1.63-.11-2.1-.13-4.2-.26-6.3-.23-3.4.14-6.96.24-10.36.89-.69-1.93-1.82-3.71-3.31-5.1,1.5.52,2.99.91,4.49,1.26h0ZM114.09,131.95c3.28,1.7,6.8,2.86,9.89,4.89.19.15.31.36.28.39-.04,0,0-.02-.14,0-1.67,0-3.09-.99-4.64-1.74-1.1-.56-2.22-1.06-3.34-1.57-2.25-1.01-4.51-2-6.86-2.79-3.92-1.2-8.11-2.37-12.25-2.56,0-.88-.12-1.76-.37-2.6,2.55.06,5.08-.91,7.03-2.56,2.95,3.43,6.5,6.3,10.43,8.53h-.03ZM120.64,121.74c1.76,1.73,3.56,3.45,5.55,4.92,1.99,1.48,4.18,2.74,6.1,4.29.79.66,1.98,1.45,1.79,2.53-.26,1.03-.94.68-1.91-.19-3.8-3.24-8.18-5.79-12.56-8.13-4.29-2.14-8.54-4.12-12.91-6.19.05-.15.1-.3.13-.45,3.28.9,6.79.36,9.79-1.18,1.25,1.56,2.62,2.99,4,4.4h.02ZM127.94,113.66c1.7,1.61,3.38,3.24,5.23,4.68,2.77,2.12,5.86,4.05,7.84,7,.46.66.94,1.46,1.21,2.2.05.2-.02.24-.04.18-.38,0-.62-.25-.97-.55-6.12-5.23-12.96-10.06-20.58-12.77,1.39-1.44,2.48-3.16,3.12-5.06,1.35,1.54,2.78,2.93,4.2,4.33h0ZM139.67,110.58c2.04,3.18,5.32,5.55,6.74,9.1-.6-.8-1.27-1.59-1.92-2.31-3.24-3.68-7.15-6.6-11.46-8.85.63-.44,1.2-.98,1.66-1.61.56-.68,1.01-1.63,1.51-2.38,1.07,2.07,2.14,4.14,3.47,6.04h0ZM208.38,103.67c-7.47,2.2-15.36,3.12-23.13,3.97-12.74,1.35-26.37,2.76-38.39-2.43-1.7-.71-3.45-1.72-5-2.73-2.18-1.57-4.54-2.94-6.95-.54-1.15,1.23-1.68,2.49-2.37,3.4-1.17,1.65-3.64,2.34-5.73,1.82-.51-.14-1.01-.34-1.47-.6-.35-.24-.76-.54-1.18-.65-1.24-.35-2.52.5-2.76,1.73-1.34,5.58-7.77,9.49-13.26,8.29l-.82-.23-.22-.06c-1.45-.48-2.75.54-2.96,1.98-.83,3.44-4.86,5.95-8.26,5.36l-.39-.07-.17-.04c-1.35-.31-2.59,1.09-2.16,2.4.04.16.16.37.19.43l.04.08c1.41,2.59.47,6.33-1.97,7.96-1.53.83-1.46,3.01.04,3.78l.54.25c.25.12.51.2.73.36,3.97,2.26,5.88,8.15,3.74,12.1-.23.44-.36.96-.28,1.46.13,1.07.97,1.92,2.01,2.1l1.1.1c1.48.17,2.95.53,4.33,1.1,3.61,1.44,6.72,4.12,8.63,7.5l.41.78c.47,1.08,1.66,2.12,2.94,2.22,1.01.16,1.98-.26,2.88-.64,1.98-.83,3.84-2.02,5.52-3.29,5.15-3.86,9.12-9.25,15.19-11.43,6.55-2.22,14.21,1.99,9.42,9.26-.28.37-.62.72-1.02,1.02-.48.19-.94.43-1.38.72-.12.04-.24.08-.36.11-.1.02-.18.07-.22.17-.09.16-.03.36.13.45.33.17.68.3,1.06.36,1.21.63,2.31,1.26,3.42,2.02,1.79,1.28,3.1,2.52,4.4,4.11.36.48.51.62.68,1.07.84,3.13-.91,7.53-3.35,9.8-7.04,6.71-28.1,2.12-37.12-.19-1.3-.33-2.64-.93-3.92-.19-8.27,5.14-19.93,3.33-26.46-3.84-.63-.67-1.59-1.03-2.52-.87-7.91,2.02-16.9-3.22-19.35-10.92-.71-1.99-.43-4.18-1.2-6.13,1.62.36,3.29.48,4.94.27,2.47-.47,4.85-1.3,7.34-1.69,2.39-.51,4.92-1.1,7.22-1.92,2.32-.98,4.46-2.28,6.31-4.06.1-.1.02-.28-.11-.28-2.55.04-4.95.6-7.31,1.38-1.94.77-4.7,1.97-6.71,2.67-2.25.91-4.65,1.06-7.04,1.16-1.88.2-3.71.48-5.56.88-.04-.06-.1-.11-.15-.17-.87-.89-1.89-1.3-2.72-1.64-6.03-1.98-9.65-8.22-9.72-14.24,0-1.88.3-3.72,1.01-5.43.24-.5.41-1.03.44-1.59,1.29.57,2.63,1.01,3.99,1.37,1.67.41,3.39.6,5.12.67,1.72,0,3.45-.26,5.17-.07,1.15.1,2.31.51,3.48.56,1.16.03,2.3-.28,3.41-.69,1.12-.45,2.24-1.04,3.2-2.04.04-.1,0-.21-.08-.25-2.14-1-4.47-1.43-6.79-1.16-1.07.17-2.15.66-3.25.8-2.2.27-4.37-.42-6.55-.53-2.71-.27-5.31-.37-8.04-.3-.23-.49-.59-.93-1.01-1.26-5.02-4.31-7.02-11.63-5.41-18.02.6-2.39,1.73-4.63,3.27-6.56.06-.11.11-.22.15-.34,1.58,1.95,3.4,3.73,5.34,5.36,4.57,3.92,10.09,6.58,15.87,8.07,2.88.72,5.79,1.29,8.78,1.59.16.02.22-.2.1-.28-4.91-3.25-10.07-5.9-15.31-8.38-5.06-2.31-10.12-4.5-14.77-7.66-.09-.28-.23-.54-.42-.77-.14-.18-.37-.51-.53-.71-1.75-2.64-2.23-6.04-1.63-9.18,1.19-6.64,7.19-11.27,13.24-13.51.35-.13.66-.32.94-.57,1.89,2.9,3.9,5.73,5.98,8.51,6.94,9.01,14.3,18.04,24.08,24.12.14.09.3-.09.21-.22-3.28-4.74-6.77-9.09-10.59-13.32-6.07-6.88-12.48-13.67-18.91-20.22.28-1.03.4-2.08.77-3.09,2.75-7.81,11.75-13.32,19.9-11.44l.28.07c.14.04.3.08.45.09h0c1.43,4.23,4.3,12.65,5.49,15.97.68,1.88,1.3,3.77,1.94,5.68,1.88,5.7,5.12,11.14,9.29,15.56,1.43,1.47,3.01,2.81,4.74,3.86.14.09.31-.1.2-.22-5.07-6.25-6.7-13.88-10.56-20.79-3.67-6.74-6.45-13.93-8.66-21.27.04-.05.07-.11.1-.17,2.49-4.64,7.36-7.79,12.48-8.72,3.03-.55,6.16-.35,8.93.69.19.08.39.16.59.2.97,3.28,1.79,6.6,2.46,9.95.84,5.88,2.57,11.55,4.36,17.21,1.41,5.82,3.81,11.54,8.08,15.87.1.12.3,0,.25-.15-.54-1.96-1.22-3.77-1.81-5.63-.62-1.79-1.22-3.69-1.88-5.47-1.48-3.57-2.81-7.24-3.52-11.06-1.48-7.24-3.83-14.28-4.86-21.62.23-.25.41-.52.57-.83,1.18-2.04,2.93-3.71,4.98-4.91,2.55-1.48,5.55-2.34,8.54-2.31h2.24c2.18-.05,4.51,0,6.54.95.02,0,.04.01.06.02-.06.07-.11.15-.14.25-.91,2.56-1.5,5.22-1.93,7.91-.42,2.58-.4,5.52-.45,8.12-.09,3.06-.23,7.81-.09,10.84.02,4.55.71,9.08,2.45,13.31.16.22,1.23,3.26,1.47,2.43.22-5.36-.41-10.64-1.16-15.93-.13-1.31-.34-3.95-.41-5.27-.39-7.08,1.23-14.05,1.52-21.11,0-.16-.02-.31-.1-.42,1.18-.39,2.27-.89,3.4-1.28,2.97-1.09,6.07-2.17,9.13-2.99,10.41-3.13,21.41-2.69,32.08-.98,5.02.84,10.46,1.94,15.45,2.84,20.76,3.61,41.16,9.16,61.92,12.89.35.07,1.24.24,2.19.42l-2.62.98-.23.09c-2.65.83-2.41,4.88.57,5.19,8.6.68,17.14,2.14,25.48,4.37l.84.23-.75.27c-2.98,1.07-6.92,2.49-9.91,3.56-1.94.6-1.8,3.63.45,3.84h.1l.19.03.39.06c1.03.19,2.04.6,2.91,1.21-.92.41-1.87.77-2.82,1.11-10.69,5.09-21.75,9.46-32.8,13.67-9.75,3.99-19.07,9.09-29.09,12.14v.02ZM355.39,87.85c-12.78,7.94-28.23,8.71-42.87,9.78-26.46,1.95-53.01,2.02-79.43-.57,2.38-1.03,4.79-2.04,7.22-2.98,6.95.99,13.96,1.54,20.98,1.82,11.52.5,23.08.23,34.6-.18,6.82-.38,16.39-.52,23.1-1.46,11.6-1.4,22.87-5.18,33.51-9.74,3.11-1.46,7.41-3.22,11.93-5.34-1.95,3.36-5.05,6.25-9.04,8.66h0ZM366.76,76.39c2.51-7.49.07-16.25-5.2-22.05-9.71-11.14-25.35-13.22-39.15-14.68-7.01-.78-14.08-1.36-21.12-1.73-5.81-.33-11.55-.6-17.23-1.19,14.46-.53,28.87-1.47,43.26-1.78,16.9-.3,34.78.66,49.44,9.91,4.38,3.01,10.01,6.62,10.21,12.48-.37,8.69-10.27,14.78-20.22,19.04h.01Z"/>
        </g>
        <g>
          <g>
            <path class="cls-1" d="M27.73,68.7c2.7,2.7,2.34,6.42-.91,9.65l-2.07,2.07,3.1,3.11-3.36,3.36-11.87-11.89,5.43-5.43c3.24-3.24,6.96-3.59,9.67-.87h.01ZM24.33,72.09c-1.1-1.1-2.44-1.05-3.84.34l-1.87,1.86,3.48,3.48,1.87-1.86c1.39-1.39,1.44-2.73.36-3.82Z"/>
            <path class="cls-1" d="M30.85,68.72c-3.23-3.87-2.56-9.25,1.57-12.69s9.54-3.15,12.77.72,2.56,9.25-1.57,12.69c-4.13,3.44-9.54,3.15-12.77-.72ZM41.5,59.83c-1.86-2.23-4.61-2.41-6.56-.78-1.95,1.63-2.27,4.36-.41,6.59,1.86,2.23,4.61,2.41,6.56.78s2.27-4.36.41-6.59Z"/>
            <path class="cls-1" d="M42.65,48.38l3.84-2.8,9.89,13.58-3.84,2.8-9.89-13.58Z"/>
            <path class="cls-1" d="M57.2,56.6l-.6-3.79c1.78.02,3.92-.57,5.55-1.63,1.65-1.07,2-1.95,1.55-2.64-1.45-2.24-8.41,4.59-11.8-.64-1.63-2.52-.91-5.9,3.28-8.62,1.83-1.19,4-1.99,5.91-2.09l.69,3.76c-1.82.15-3.38.65-4.61,1.45-1.67,1.08-1.91,2.04-1.45,2.75,1.4,2.15,8.35-4.64,11.72.55,1.59,2.46.9,5.88-3.29,8.6-2.32,1.5-5.02,2.37-6.95,2.3h0Z"/>
            <path class="cls-1" d="M70.17,48.22l-.33-3.82c1.78.14,3.95-.29,5.65-1.23,1.72-.95,2.13-1.81,1.73-2.52-1.29-2.33-8.71,3.99-11.72-1.47-1.45-2.62-.49-5.95,3.87-8.37,1.91-1.06,4.13-1.71,6.04-1.67l.43,3.79c-1.82.02-3.42.41-4.7,1.12-1.74.96-2.05,1.9-1.64,2.64,1.24,2.25,8.65-4.04,11.64,1.37,1.42,2.56.48,5.93-3.89,8.34-2.41,1.33-5.17,2.01-7.09,1.81h.01Z"/>
            <path class="cls-1" d="M81.11,34.29c-2.07-4.6.02-9.59,4.92-11.8,4.9-2.21,10.03-.47,12.1,4.13,2.07,4.6-.02,9.59-4.92,11.8-4.9,2.21-10.03.47-12.1-4.13h0ZM93.76,28.59c-1.19-2.65-3.79-3.56-6.11-2.51s-3.36,3.59-2.16,6.24c1.19,2.65,3.79,3.56,6.11,2.51,2.32-1.05,3.36-3.59,2.16-6.24Z"/>
            <path class="cls-1" d="M113.29,12.37l5.51,15.88-3.7,1.28-9.94-6.03,2.93,8.46-4.4,1.53-5.51-15.88,3.7-1.28,9.94,6.03-2.93-8.46,4.4-1.53h0Z"/>
            <path class="cls-1" d="M120.3,26.26l.63-3.78c1.69.58,3.9.7,5.78.21,1.91-.49,2.51-1.22,2.31-2.01-.67-2.58-9.43,1.7-10.99-4.34-.75-2.9,1-5.89,5.84-7.14,2.11-.55,4.42-.62,6.27-.11l-.53,3.78c-1.77-.43-3.41-.45-4.83-.09-1.93.5-2.46,1.33-2.25,2.14.64,2.49,9.39-1.76,10.94,4.23.73,2.83-1.01,5.86-5.84,7.12-2.67.69-5.51.66-7.32-.01h0Z"/>
          </g>
          <path class="cls-1" d="M7.8,89.76c-.12-1.63,1-2.77,2.53-2.88,1.56-.11,2.81.85,2.92,2.48.12,1.58-.98,2.79-2.53,2.9-1.53.11-2.81-.93-2.93-2.51h.01Z"/>
          <path class="cls-1" d="M139.41,13.56c-.12-1.63,1-2.77,2.53-2.88,1.56-.11,2.81.85,2.92,2.48.12,1.58-.98,2.79-2.53,2.9-1.53.11-2.81-.93-2.93-2.51h0Z"/>
        </g>
      </g>
    </g>
  </g>
</svg>