<?xml version="1.0" encoding="UTF-8"?>
<svg id="Calque_2" data-name="Calque 2" xmlns="http://www.w3.org/2000/svg" viewBox="0 0 318.58 213.75">
  <defs>
    <style>
      .cls-1 {
        fill: #386641;
      }

      .cls-1, .cls-2 {
        stroke-width: 0px;
      }

      .cls-2 {
        fill: #f8f4e8;
      }
    </style>
  </defs>
  <g id="Calque_2-2" data-name="Calque 2">
    <g>
      <path class="cls-2" d="M208.5,22.12c5.89.3,11.65,2.71,15.99,6.7,4.04,3.71,6.77,8.6,9.53,13.35,12.02,20.66,26.01,40.17,41.72,58.19,4.97,5.7,10.27,11.53,12.4,18.79,1.43,4.89,1.87,10.99,6.38,13.36,2.55,1.34,5.62.96,8.5.9,3.72-.08,7.64.52,10.6,2.78s4.62,6.52,3,9.87c-.93,1.92-2.77,3.32-3.51,5.33-2.02,5.47,5.04,10.27,5.45,16.08.32,4.41-3.48,8.26-7.7,9.55-4.22,1.29-8.77.63-13.13-.05-.79-.12-1.56-.36-2.27-.72-3.78,2.37-4.96,7.08-4.11,11.46.85,4.38,2.63,8.76,1.9,13.16-.92,5.49-5.71,9.72-10.99,11.49-5.28,1.77-11.01,1.52-16.56,1.05-39.16-3.31-76.75-16.38-115.24-24.26-35.24-7.22-71.22-10.08-107.15-11.74-3.33-.15-6.97-.43-9.38-2.73-1.94-1.86-2.63-4.66-3.1-7.31-1.25-7.01-1.63-14.18-1.12-21.28.14-1.96.29-4.12-.89-5.69-1.41-1.88-4.1-2.11-6.45-2.2-4.88-.19-9.9-.53-14.3-2.64C3.67,133.45-.03,129.15,0,124.27c.05-7.54,8.18-12.21,15.41-14.36,4.29-1.28,6.21-7.01,6.49-11.48s.06-9.21,2.24-13.12c1.1-1.97,2.79-3.72,3.11-5.96.42-2.97-1.75-5.69-4.16-7.47s-5.23-3.1-7.13-5.41c-2.81-3.4-2.96-8.72-.35-12.27s7.73-5,11.81-3.34c1.84-7.88,10.33-12.01,17.94-14.75,19.19-6.9,39.03-11.83,58.82-16.74,6.98-1.73,13.95-3.46,20.93-5.2,17.62-4.37,35.23-8.75,52.85-13.12,4.46-1.11,9.75-2.03,13.16,1.04.86.78,1.56,1.78,2.6,2.28,2.44,1.17,5.14-.94,7.82-1.32,4.08-.59,7.76,3.16,8.64,7.19s-.49,7.93-1.66,11.89h-.02Z"/>
      <g>
        <g>
          <path class="cls-1" d="M205.7,33.4c8.69-2.31,11.8,2.68,15.68,9.44,3.23,5.4,6.51,10.77,9.92,16.05,10.19,15.89,21.14,31.27,32.68,46.2,3.82,4.98,7.85,9.88,11.35,15.24,6.21,9.31,10.52,20.98,7.71,32.21-1.53,7.76-7.09,5.07-12.76,4.23-45.99-10.6-92.35-20.71-138.74-29.35-31.77-6.33-63.64-11.94-95.51-17.6-3.21-.94-4.48-3.82-4.53-7.04-.49-7.13-2.56-15.92,2.75-21.9,1.48-1.68,3.51-2.93,5.58-3.73,18.24-6.53,36.85-11.91,55.43-17.35,36.4-10.42,73.34-18.85,110.43-26.4h.01ZM206.17,35.65c-36.95,7.85-73.46,17.64-109.72,28.2-18.08,5.38-36.24,10.61-54.15,16.52-6.38,1.87-8.15,6.68-7.97,12.82.03,3.02.39,6.15.59,9.34.08,1.59.25,2.82.85,3.39.57.66,1.91,1.05,3.39,1.31,6.2,1.14,12.4,2.3,18.59,3.5,61.34,12.06,123.92,25.85,185.2,38.2,8.57,1.78,23.78,5.34,32.36,6.53,1.86.26,4.11.74,4.88-1.39.72-2.04,1.17-4.36,1.3-6.55.57-9.28-3.26-18.08-8.3-25.77-3.39-5.2-7.38-10.06-11.22-15.08-11.55-15.01-22.38-30.58-32.55-46.56-3.37-5.34-6.72-10.69-9.96-16.11-3.42-5.68-5.64-10.54-13.28-8.35h-.01Z"/>
          <path class="cls-1" d="M33.63,85.41c.72-.31,1.28.02,1.97.11l1.94.37c19.34,3.71,38.77,7.55,58.03,11.58,41.01,9.05,82.6,16.49,123.69,25.25,9.97,2.19,20.78,4.77,30.72,7.22,9.53,2.31,19.12,4.52,28.95,4.67l.99.02h.25c.25,0,.5.12.71.09.08-.02.18.02.19.12.01.08-.04.15-.12.16-13.11,1.81-26.56-.71-39.45-3.1-49.08-9.1-97.58-21.9-146.49-31.79-19.23-4.16-38.55-8.56-57.72-13.04l-1.92-.45c-.32-.08-.64-.13-.96-.24-.32-.13-.64-.33-.87-.69-.06-.1-.02-.23.09-.27h0Z"/>
          <path class="cls-1" d="M41.74,124.64c.81,1.94.93,4.15,1.53,6.08.44.95,1.21,1.45,2.08,2.25,1.23,1.09,2.49,2.31,4.04,3.04,1.54.75,3.24,1.05,4.95,1.09,3.46.05,6.94.37,10.35.96,1.69.33,3.4.75,5.04,1.23,1.59.45,3.09.83,4.66.08.12-.07.28.09.19.21-2.18,3.09-7.21,1.71-10.4,1.51-5.02-.69-10.38-2.43-15.15-4.22-5.28-1.67-9.36-2.97-8.07-9.59.11-.87.25-1.75.49-2.62.04-.14.24-.15.29-.01h0Z"/>
          <path class="cls-1" d="M134.06,144.57c-1.79,3.77,3.05,6.05,5.68,7.66,9.78,5.47,20.93,6.43,31.95,7.7,10.88,1.28,22.6,3.21,32.8-1.91,3.31-1.6,6.37-3.69,8.94-6.25l1.41,1.34c.06-.07.03-.03.02.08.1,1.55.8,3.19,1.66,4.48,4.46,6.24,11.96,9.22,19.32,10.57,9.64,1.77,19.52,2.61,29.35,2.66,6.2.14,13.97-.37,16.62-6.91.05-.17.32-.09.28.08-1.84,7.33-10.44,8.81-16.83,9.04-6.67.41-13.39.28-20.05-.4-9.99-1.01-20.95-2.97-28.19-10.62-2.18-2.28-3.9-5.1-4.16-8.31-.02-.67-.02-1.24.48-1.9l1.41,1.34c-5.85,4.94-13.18,7.88-20.73,8.73-7.47.82-15.03.49-22.51.2-9.39-.41-19.04-1.64-27.63-5.73-3.66-1.84-13.64-7.09-10.05-12.02.11-.14.33.04.23.17h0Z"/>
          <path class="cls-1" d="M57.76,127.89c4.14,4.17,10.31,4.86,14.9,8.39,1.8,1.29,3.08,3.38,4.92,4.51.85.53,1.8.99,2.81,1.35,5.12,1.86,12.23,2.38,14.96,8,1.78,3.25-.62,7.18-1.07,10.19-.18,1.59.44,4.08,2.19,4.19.66.03,1.29-.34,1.82-1.06,1.26-1.7,1.07-3.64,1.09-5.78-.3-11.31,13.04-9.52,20.75-9.4,4.49.09,9.03-.13,13.14-2.08.14-.08.29.15.15.25-5.68,4.3-13.32,4.09-20.07,4.48-3.66.33-8.78.18-10.6,3.98-.77,1.94-.4,4.22-.8,6.46-.39,2.05-1.46,4.08-3.41,5.09-2.18,1.17-4.96-.21-5.61-2.5-2.15-6.1,6.03-10.45-.38-15.95-1.69-1.4-3.86-2.02-6.05-2.39-3.94-.61-8.63-.88-11.83-3.79-1.3-1.18-2.18-2.58-3.54-3.63-4.26-3.58-10.58-5.07-13.61-10.13-.09-.14.12-.3.23-.17h.01Z"/>
          <path class="cls-1" d="M42.56,131.26c-1.8,2.62-3.9,5.09-4.57,8.22-1.5,7.58,6.15,8.96,11.88,7.2,3.26-.85,6.55-2.11,10.03-1.33,3.55.85,6.16,3.41,8.83,4.27,3.18,1.07,5.31-1.23,8.53-2.06,1.85-.51,3.85-.42,5.61.08,4.29,1.22,7.52,4.28,10.33,7.53.54.65,1.22,1.32,1.3,2.22.03.16-.21.24-.27.09-.25-.69-1.14-1.2-1.68-1.61-4.14-2.96-9.15-6.82-14.47-5.34-1.33.37-2.74,1.19-4.5,1.77-1.76.65-4.04.66-5.79-.11-3.54-1.47-5.55-4.17-8.36-5.32-2.95-1.21-6.35-.26-9.31.71-3.26,1.1-6.74,2.29-10.28,1.06-6.13-2.37-5.31-10.34-1.3-14.26.16-.29,4.31-4.19,4.01-3.11h0Z"/>
          <path class="cls-1" d="M100.59,159.21c.17-4.25,5.34-6.38,8.9-4.47,1.21.54,2.26,1.77,2.85,2.87.54.91.99,1.65,1.89,2.09,2.95,1.27,6.05-.74,8.67-2.2,2.14-1.19,4.7-2.36,7.27-1.96,4.89.68,8.03,5.33,12.59,6.64,2.28.55,4.66.08,6.99.45,5.92.3,10.81,4.76,16.59,5.34,3.6.29,6.62-1.02,10.63-.52,4.39.58,8.34,3.22,12.61,1.01,2.03-.82,4.28-2.13,7-2.46,1.36-.17,2.76.17,3.77.35.49.07.85.1,1.29-.13.54-.2,1.18-1.04,1.82-.5.08.07.1.18.07.28-.1.55-.28.53-.49.74-.2.17-.42.39-.69.6-1.47,1.17-3.9.33-5.36.92-1.95.6-3.68,2.05-5.84,3.33-5.29,3.37-9.71,1.08-14.78,0-1.92-.36-4.17-.12-6.66-.12-2.49.06-5.24-.49-7.53-1.5-3.41-1.41-6.11-3.56-9.4-4.92-2.12-.85-4.4-1.25-6.69-1.43-1.17-.09-2.47-.14-3.61-.53-2.36-.8-4.29-2.28-6.24-3.56-9.2-6.41-10.81,1.86-18.99,3.04-2,.28-4.58-.37-5.85-2.19-1.06-1.39-1.33-3.05-2.84-3.94-2.71-1.77-6.87-.44-7.69,2.84-.04.16-.31.1-.28-.06h0Z"/>
          <path class="cls-1" d="M279.12,168.11c2.5-.79,4.77,1.79,4.83,4.21.04,2.67-2.12,4.75-4.42,5.65-5.69,2.41-11.96-2.16-17.41.58-1.05.55-2.33,1.25-3.64.86-1.19-.36-1.74-1.29-2.86-1.5-4.03-.43-5.8,4.31-9.18,5.75-2.49,1.27-5.2-.17-6.48-2.35-.95-1.39-1.53-2.78-2.52-4-2.1-2.51-5.7-3.54-8.78-2.35-2.81.99-5.9,3.28-9.2,3.74-3.2.68-7.02-.98-8.16-4.21-1.27-3.97.23-6.92-5.09-7.93-1-.17-2.05-.21-3.1-.13-.26.02-.48-.18-.5-.43-.02-.23.14-.43.35-.48,2.8-.66,6.28-.6,8.41,1.7,2.43,2.71.8,7.51,5.01,8.58,4,.86,7.37-2.44,11.34-3.65,3.52-1.23,7.73-.3,10.43,2.29,1.74,1.51,2.56,3.93,3.5,5.87,1.56,3.4,4.5,2.81,6.92.63,1.9-1.67,4.21-4.33,7.22-4.03,1.09.07,2.08,1.01,3.01,1.2,1.49.07,2.53-1.48,3.92-1.99,5.19-2.48,10.96,1.2,16.04-.22,1.7-.53,3.38-1.76,3.65-3.59.19-1.78-1.18-4.04-3.23-3.89-.18.02-.21-.23-.06-.28h0v-.03Z"/>
          <path class="cls-1" d="M281.6,175.88c-.19,5.97.15,11.8,1.07,17.63.74,3.98-.91,7.59-4.93,8.92-3.14,1.14-6.34.93-9.55.91-9.01-.16-17.99-1.07-26.87-2.5-14.72-2.35-29.06-6.39-43.57-9.7-10.3-2.37-24.64-5.58-34.71-8.21-11.51-2.7-22.86-6.48-34.49-8.5-5.78-.97-11.66-1.39-17.57-1.71-11.85-.58-23.77-1.37-35.56-2.88-8.86-1.08-17.69-2.37-26.48-3.93l-4.39-.79-2.19-.42c-.73-.14-1.56-.28-2.42-.7-3.36-1.73-2.15-6.1-2.2-9.11.13-2.98.27-5.95.44-8.92,0-.08.07-.14.15-.14s.13.07.14.14c.21,2.97.4,5.93.56,8.89.09,1.47.14,2.98.25,4.41.12,1.19.37,2.4,1.51,2.84.81.35,3.1.47,4.1.61l4.42.51c20.02,2.26,41.85,4.26,61.91,6.14,5.93.58,11.89,1.26,17.79,2.37,11.75,2.25,23.05,5.87,34.64,8.63,22.72,5.49,46.74,9.57,69.86,13.38,13.02,2.24,26.02,4.52,39.21,5.3,3.69.12,7.45-.48,7.01-5.34-.26-5.98.22-12.1,1.59-17.9.03-.17.3-.13.29.04h0v.03Z"/>
          <path class="cls-1" d="M215.36,109.28c1.35-1.88,3.14-3.23,5.22-4.06,1.03-.36,2.15-.46,3.18-.81,3.04-1.12,5.82-2.97,8.95-3.9,2.2-.51,4.44-.59,6.69.03.63.25-1.1,1.26-1.3,1.44-3.92,3.03-9.08,2.74-13.49,4.57-.96.45-1.8,1.16-2.73,1.65-1.97.94-4.14,1.43-6.35,1.4-.16,0-.26-.19-.16-.32h-.01Z"/>
          <path class="cls-1" d="M163.6,99.58c4.42-3.32,9.28-5.96,14.33-8.15,5.1-2.01,10.33-3.68,15.43-5.71,5.11-1.84,10.33-3.97,15.46-5.7,5.33-1.51,10.81-2.39,16.39-2.27.18,0,.25.27.08.35-1.24.69-2.5,1.27-3.77,1.81-6.22,2.82-12.77,4.64-19.41,6.16-5.21,1.5-10.4,3.15-15.43,5.2-3.75,1.6-7.4,3.41-11.24,4.78-3.85,1.44-7.7,2.84-11.69,3.87-.18.05-.32-.21-.16-.32h0v-.02Z"/>
          <path class="cls-1" d="M214.53,57.61c-4.31,1.57-8.77,2.63-13.29,3.32-2.24.31-4.53.4-6.77.76-3.9.61-9.34,2.28-13.19,3.34-5.39,1.72-10.97,3.13-16.59,3.8-1.14.16-2.29.28-3.47.33-.18.02-.27-.25-.11-.34,3.95-2.48,8.23-4.23,12.66-5.56,4.37-1.12,9.04-1.96,13.49-2.71,3.4-.53,6.78-1.12,10.1-2.06,3.33-.93,6.74-1.4,10.19-1.5,2.3-.07,4.61-.05,6.94.27.18.02.22.3.04.36h0Z"/>
          <path class="cls-1" d="M140.62,73.61c-2.72,1.72-5.53,2.92-8.4,3.95-2.16.72-4.46,1.06-6.61,1.84-2.79,1.01-5.72,2.34-8.43,3.55-3.51,1.86-7.21,3.33-11.16,4.19.05,0,.26-.04.26-.06-1.03.12-2,.68-3.09.68-.03,0-.06-.03-.05-.07l.05-.29s.15-.16.22-.26c.63-.69,1.22-1.43,1.99-1.99.16-.11.4-.19.62-.2l-.47.11c4.99-4,11.06-5.41,16.97-7.44,2.98-.86,5.75-2.32,8.7-3.25,2.99-.79,6.09-1.28,9.31-1.1.17,0,.25.26.09.35h0Z"/>
          <path class="cls-1" d="M35.26,107.54c-2.1,5.28-8.57,5.61-13.22,7.08-2.7.92-5.37,2.53-7.11,4.75-2.44,2.89-1.64,7.04,2.05,8.17,8.42,2.53,14.65-6.64,23.1-5.72,4.37.43,7.65,3.32,11.68,4,7.8,1.31,16.46-2.37,24.43-.27,8.2,1.95,14.91,7.07,22.74,9.59,7.73,2.52,16.06,2.68,24.02,4.49,6.05,1.17,11.45,4.52,17.43,5.83,16.45,3.29,32.22-7.3,48.75-4.37,6.16,1.06,11.9,4.16,17.53,6.35,3.76,1.52,7.49,2.37,11.52,2.94,4.07.6,8.38,1.36,12.23,2.91,5.78,2.2,10.97,5.11,17,5.94,8.08,1.02,16.12-2.12,24.34-1.42,8.47.63,15.41,6.05,23.11,8.78,2.81.88,8.92,2.96,9.29-.88-.49-4.25-5.87-5.23-7.38-9.03-1.54-3.81,2.4-6.11,5.27-7.37,2.22-.92,5.25-4.27,2.27-6.02-1.76-.83-3.89-.38-5.83-.38-5.95.15-13.26-.22-17-5.58-.15-.19.17-.4.29-.21,1.19,1.63,2.86,2.86,4.72,3.62,3.76,1.53,7.95,1.54,11.96,1.34,2.1-.06,4.24-.58,6.3.35,2.39,1.19,2.3,4.12.42,5.97-1.89,2.32-5.67,2.67-7.1,5.35-1.28,2.87,2.03,4.91,4.04,6.39,1.81,1.36,3.46,3.09,3.66,5.54-.54,7.75-13.42,2.12-17.28.35-5.53-2.53-10.82-5.49-16.9-5.83-8.17-.45-16.19,2.87-24.51,1.95-8.34-.95-15.43-5.83-23.43-7.53-3.98-.86-8.09-1.21-12.12-2.19-6.04-1.46-11.66-4.67-17.28-6.83-3.71-1.46-7.51-2.27-11.49-2.38-16.07-.38-32.79,8.51-48.54,1.48-3.78-1.57-7.5-3.13-11.51-3.93-8.02-1.74-16.34-1.53-24.33-3.76-7.89-2.14-14.89-7-22.8-8.55-8.13-1.75-16.2,2.12-24.41.53-2.13-.39-4.23-1.32-6.12-2.25-7.52-4.31-11.98-.09-18.96,2.78-5.05,2.02-13.15,1.56-14.64-4.81-1.3-7.1,7.34-11.49,13.23-12.17,2.97-.54,6.05-.84,8.39-2.85.75-.64,1.37-1.43,1.88-2.3.05-.09.16-.11.25-.06.08.05.11.15.07.23h0v-.02Z"/>
        </g>
        <g>
          <path class="cls-1" d="M22.83,60.99c.05-1.63,1.28-2.65,2.82-2.61,1.56.05,2.7,1.14,2.65,2.77-.05,1.58-1.26,2.68-2.81,2.63-1.54-.05-2.7-1.21-2.66-2.79Z"/>
          <path class="cls-1" d="M197.57,13.45c.05-1.63,1.28-2.65,2.82-2.61,1.56.05,2.7,1.14,2.65,2.77-.05,1.58-1.26,2.68-2.81,2.63-1.54-.05-2.7-1.21-2.66-2.79h0Z"/>
          <g>
            <path class="cls-1" d="M37.33,63.96l.19-3.83c1.74.38,3.95.24,5.77-.46,1.83-.71,2.35-1.5,2.05-2.27-.96-2.48-9.16,2.79-11.42-3.03-1.09-2.8.31-5.96,4.96-7.77,2.04-.79,4.32-1.14,6.21-.84l-.09,3.82c-1.81-.22-3.44-.05-4.81.48-1.86.72-2.29,1.61-1.98,2.39.93,2.39,9.12-2.84,11.36,2.93,1.06,2.73-.32,5.94-4.97,7.75-2.57,1-5.39,1.3-7.27.84h0Z"/>
            <path class="cls-1" d="M63.06,52.79l-6.75,2.22-.23,3.51-4.61,1.52,1.79-18.28,4.45-1.46,12.32,13.63-4.7,1.55-2.27-2.69h0ZM60.64,49.9l-3.73-4.43-.37,5.78,4.1-1.35h0Z"/>
            <path class="cls-1" d="M82.07,33.1l4.58,16.16-3.76,1.07-9.57-6.59,2.44,8.61-4.48,1.27-4.58-16.16,3.76-1.07,9.57,6.59-2.44-8.61,4.48-1.27h0Z"/>
            <path class="cls-1" d="M85.73,32.14l7.7-1.96c5.4-1.37,9.89.83,11.16,5.83s-1.63,9.08-7.02,10.45l-7.7,1.96-4.14-16.28h0ZM96.45,42.84c2.77-.7,4.21-2.83,3.49-5.64-.72-2.81-3-3.99-5.77-3.29l-2.91.74,2.27,8.93,2.91-.74h.01Z"/>
            <path class="cls-1" d="M130.26,21.16l-1.33,17.61-4.95,1.2-5.54-9.18-.85,10.73-4.95,1.2-9.26-15.04,4.76-1.15,5.82,9.63.92-11.27,4.25-1.03,5.84,9.72.88-11.35,4.41-1.07Z"/>
            <path class="cls-1" d="M131.99,20.74l4.62-1.12,3.95,16.33-4.62,1.12-3.95-16.33Z"/>
            <path class="cls-1" d="M141.16,27.17c-1.2-4.97,1.75-9.41,6.93-10.66,3.01-.73,5.7-.22,7.76,1.38l-2.3,3.37c-1.33-.99-2.75-1.36-4.31-.98-2.68.65-4.1,2.96-3.42,5.76.68,2.8,2.99,4.22,5.67,3.57,1.56-.38,2.66-1.36,3.39-2.84l3.58,1.95c-1.11,2.37-3.27,4.05-6.28,4.77-5.18,1.25-9.83-1.36-11.03-6.32h0Z"/>
            <path class="cls-1" d="M172.9,10.9l3.92,16.34-4.62,1.11-1.53-6.37-6.3,1.51,1.53,6.37-4.62,1.11-3.92-16.34,4.62-1.11,1.47,6.14,6.3-1.51-1.47-6.14,4.62-1.11Z"/>
            <path class="cls-1" d="M178.67,25.24l.7-3.77c1.68.61,3.89.78,5.78.32,1.91-.46,2.53-1.17,2.34-1.97-.62-2.59-9.46,1.52-10.91-4.55-.7-2.92,1.12-5.87,5.97-7.03,2.12-.51,4.44-.54,6.27,0l-.61,3.77c-1.76-.47-3.41-.52-4.83-.18-1.94.46-2.48,1.28-2.29,2.1.6,2.5,9.42-1.58,10.86,4.44.68,2.85-1.12,5.84-5.98,7-2.68.64-5.52.55-7.32-.16l.02.03Z"/>
          </g>
        </g>
      </g>
    </g>
  </g>
</svg>