<?xml version="1.0" encoding="UTF-8"?>
<svg id="Calque_2" data-name="Calque 2" xmlns="http://www.w3.org/2000/svg" viewBox="0 0 300 241.87">
  <defs>
    <style>
      .cls-1 {
        fill: #386641;
      }

      .cls-1, .cls-2 {
        stroke-width: 0px;
      }

      .cls-2 {
        fill: #f8f4e8;
      }
    </style>
  </defs>
  <g id="Calque_2-2" data-name="Calque 2">
    <g>
      <path class="cls-2" d="M292.83,83.84c4.87.81,7.66,6.47,7.1,11.37-.56,4.9-3.52,9.15-6.39,13.17-3.32,4.65-7.04,9.6-12.52,11.22-1.41.42-3.07.72-3.79,2-.79,1.41.01,3.14.72,4.59,3.36,6.92,4.37,15.44.73,22.22-3.64,6.78-12.77,10.7-19.54,7.04,2.56,13.81-4.58,28.88-16.89,35.65-6.54,3.6-14.04,4.91-21.34,6.48-20.12,4.32-40.08,11.12-56.67,23.31-5.36,3.93-10.36,8.42-16.21,11.56s-12.91,4.81-19.19,2.64c-1.96,4.97-7.14,7.25-12.45,6.7s-9.99-4.94-10.89-10.21c-.35-2.08-.18-4.28-.97-6.23-1.32-3.26-4.88-4.93-8.12-6.29-14.24-5.98-28.48-11.95-42.73-17.93-8.23-3.45-17.91-9.12-17.28-18.02-4.74.66-10.17,1.12-13.73-2.09-2.58-2.33-3.41-5.96-4.82-9.14-4.46-10.02-15.52-16.68-17.59-27.45-.61-3.17-.22-6.78,2.06-9.06,2.37-2.37,6.05-2.68,9.4-2.85,8.48-.43,16.96-.86,25.44-1.29-2.18-5.6-3.88-11.39-5.07-17.28-1.73-8.58-2.32-17.78,1.07-25.85,6.57-15.62,25.33-21.81,42.14-23.97,6-.77,12.87-1.74,16.17-6.81,3-4.61,1.71-10.78-.57-15.79-2.28-5.01-5.49-9.76-6.17-15.22-.96-7.62,3.43-15.23,9.7-19.68C100.7,2.18,108.54.5,116.21.1c27.17-1.4,52.76,11.96,79.55,16.65,12.5,2.19,25.27,2.49,37.82,4.38,12.55,1.89,25.23,5.58,35.09,13.57,9.86,8,16.37,21.02,13.87,33.46,4.56,2.75,6.35,9.28,3.81,13.97,2.2.47,4.24,1.31,6.46,1.68l.02.03Z"/>
      <g>
        <path class="cls-1" d="M19.58,151.41c3.6-3.59,9.38-3.17,14.03-2.48,4.9,1.09,12.66,3.9,16.09-1.25.92-1.41,1.65-3.13,2.59-4.64,1.02-1.57,2.2-2.92,3.39-4.31l2.33-2.65c2.23-2.73,4.77-6.28,8.69-6.22.12,0,.16.18.04.21-2.29.78-3.84,2.3-5.08,4.32-1.75,2.94-4.22,5.95-6.49,8.54-1.65,1.8-2.47,3.89-4.06,5.8-2.52,3.17-7.01,2.65-10.59,2.46-4.74-.21-9.39-.73-14.11-.92-2.29,0-4.57.2-6.69,1.3-.1.06-.22-.09-.14-.18h0v.02Z"/>
        <path class="cls-1" d="M29.94,163.41c-.2.61-.41,1.22-.8,1.72.07-1.68.63-3.33,1.6-4.7,1.26-1.79,3.75-2.49,5.77-2.92s4.05-.6,6.08-.58c2.51,0,5.02.57,7.49.16,5.59-1,8.36-3.96,10.2-9.16.91-2.29,1.75-4.81,3.45-7,3.45-4.25,9.25-5.7,14.41-5.01.12.01.12.21,0,.22-4.68.72-9.68,2.42-12.55,6.22-2.97,3.83-3.7,9.74-8.18,12.64-4.36,2.76-9.74,3.31-14.76,3.75-2.16.32-4.36.3-6.52.64s-4.54.75-5.66,2.7c-.23.41-.38.86-.53,1.3v.02Z"/>
        <path class="cls-1" d="M259.34,89.22s0,.02-.01.03c-.45.99-1.1,1.9-1.83,2.62-.89.87-2,1.44-2.91,2.19-1.93,1.46-3.41,3.48-5.67,4.55-3.28,1.69-6.77,1.16-9.99,2.97-.1.05-.21-.07-.15-.16.59-1.08,1.53-2.01,2.66-2.64,2.12-1.22,4.49-1.4,6.67-2.09,2.04-.79,4.42-1.52,6-3.16.81-.83,1.39-1.88,1.98-2.84.45-.72.99-1.39,1.47-2.08.23-.32.45-.66.67-1h0c.37-.59.7-1.21.89-1.85.22-.72.29-1.47.52-2.18.04-.15.11-.3.25-.36.14-.05.3.02.4.13.09.12.13.26.16.41.41,1.88-.03,3.9-1.13,5.47h.02Z"/>
        <path class="cls-1" d="M269.86,89.46c-.19-.6-.4-1.21-.31-1.83.5.12.79.66.92,1.16.55,1.98.28,3.94-.66,5.73-.87,1.67-2.07,3.17-3.34,4.55-1.93,2.1-4.2,4.29-6.77,5.58-1.92.97-4.08,1.62-6.08,2.29-4.05,1.3-7.85,3.11-10.59,6.38-2.94,3.04-5.67,6.63-9.43,8.91-3.65,2.14-9.15,3.33-13.06,1.44-1.03-.58-2.15-1.17-3.03-1.98-.69-.64-1.25-1.44-1.53-2.34.04-.07.14-.03.2.01,1.62,1.14,2.91,2.64,4.82,3.28,1.22.43,2.54.37,3.89.2,7.41-.72,11.72-6.13,16.92-10.81,1.09-.95,2.29-1.88,3.59-2.54,5.02-2.56,10.96-3.52,15.07-7.47,2.09-1.81,4.18-3.67,6.08-5.68,1.67-1.76,4.15-4.17,3.33-6.81,0-.02-.01-.04-.02-.06h0Z"/>
        <path class="cls-1" d="M45.71,94.75c.31,2.04,3.22,2.95,4.98,3.4,1.93.48,3.87,1.04,5.51,2.24,1.91,1.4,3.43,3.25,5.37,4.57,2.12,1.44,4.29,2.77,6.77,3.62,3.54,1.22,6.8,3.11,10.18,4.7,3.62,1.7,7.25,3.37,10.9,5.01,7.29,3.27,14.66,6.41,22.07,9.4,2.6,1.05,5.22,2.08,7.84,3.09,1.21.47,2.49.77,3.72,1.15s2.29.81,3.54.86c.77.03,1.62.03,2.35-.22.8-.28,1.58-.64,2.36-.99,1.6-.73,3.15-1.54,4.69-2.37,10.1-5.41,20.01-11.17,29.79-17.16,6.54-3.94,13.2-8.09,20.78-10.26,3.77-1.14,7.69-1.55,11.5-1.89,7.55-.67,15.2-1.21,22.38-3.66,5.32-1.8,10.25-4.64,13.91-8.9,1.14-1.32,2.54-2.6,3.15-4.27,1.28-3.23,1.09-7.19.37-10.56-1.09-3.3-3.94-5.92-6.75-7.84-13.22-7.54-29.29-6.41-43.97-5.46-3.95.23-8.12.13-11.96-1.06-7.59-2.25-13.76-7.27-20.62-10.64-6.6-3.24-13.99-4.85-21.33-4.72-7.07.17-14.72,1.47-19.24,7.34-2.82,3.42-4.11,7.85-4.25,12.26-.05.97.03,1.94-.05,2.95-.03,1.22-.73,2.79-1.66,3.61-4.08,3.25-9.03,4.62-13.83,5.98-3.77.98-7.53,1.71-11.21,2.61-7.65,1.83-15.14,4.33-22.35,7.46-3.37,1.46-6.65,3.28-10.02,4.65-2.02.82-4.89,2.21-4.95,4.73,0,.15,0,.29.03.42v-.05ZM43.61,95.26c-.56-1.24-.21-3.21.74-4.2.38-.39.85-.68,1.33-.96,2.63-1.52,5.43-2.74,8.24-3.88,2.66-1.08,5.17-2.56,7.8-3.76,5.49-2.51,11.13-4.66,16.9-6.43,1.24-.38,2.49-.75,3.74-1.09,3.72-1.03,7.46-1.86,11.08-2.91,3.61-1.04,7.13-2.32,10.29-4.13.81-.45,1.55-.9,2-1.36.77-.72.65-1.7.63-2.78-.07-3.58.38-7.17,1.7-10.54,4.24-10.78,14.44-14.11,25.14-14.31,7.96-.15,15.94,1.63,23.08,5.16,6.83,3.4,12.78,8.4,19.96,10.64,3.4,1.1,7.02,1.2,10.78,1.04,11.51-.69,23.44-1.21,34.71,1.94,5.73,1.61,11.58,4.03,15.45,8.74,1.33,1.62,2.62,3.33,3.12,5.45,1.07,5.42.9,11.81-3.36,15.87-1.66,1.77-3.39,3.61-5.36,5.04-6.34,4.74-14.17,6.8-21.86,7.84-7.5,1.17-15.31.98-22.57,3.11-7.26,2.15-13.78,6.16-20.17,10.21-9.71,6.17-19.58,12.08-29.55,17.82-1,.58-2.02,1.14-3.04,1.69s-2.12,1.3-3.21,1.53c-2.18.47-4.69.51-6.91.23-1.44-.18-2.78-.24-4.13-.81-1.47-.62-2.95-1.23-4.42-1.85-23.99-10.16-47.37-21.64-69.61-35.11-1.26-.76-2.12-1.34-2.51-2.2h0Z"/>
        <path class="cls-1" d="M238.45,83.62c.69.35.76,2.81.87,3.52.22,1.4.41,2.81.57,4.22.33,2.81.65,5.65.85,8.48.21,2.9.66,5.89-.62,8.74-1.33,2.91-4.22,4.37-6.78,5.81-2.51,1.36-5.14,2.51-7.82,3.43-4.02,1.35-8.15,2.7-12.41,3.17-4.11.45-8.34.32-12.31,1.09-5.27.92-10.4,2.95-15.41,5.25-10.21,4.41-19.46,10.53-28.63,16.79-2.09,1.38-4.9,3.31-7.02,4.57-4.79,2.88-9.9,5.2-14.92,7.62-4.34,2.12-7.83,4.48-12.84,2.71-3.5-1.08-6.31-3.37-9.4-5.11-5.59-2.83-10.89-6.41-16.3-8.96-8.8-4.02-21.18-10.13-30.01-14.37-3.72-1.77-7.5-3.39-11.35-4.85-2.2-.84-5.72-2.01-7.87-3.06-2.05-1.03-4.19-2.07-5.45-4.12-.44-.74-.75-1.74-.53-2.73.23-1.05.63-2,.79-3.06.18-1.2.45-2.38.71-3.57.51-2.3,1.03-4.65.89-7.02-.03-.56-.1-1.11-.16-1.67-.06-.65-.1-1.3-.14-1.95,0-.22-.03-.44-.04-.66-.04-.7-.08-1.41,0-2.11.06-.47.17-1.03.43-1.44.62.22,1.12,1.6,1.33,2.19.32.86.48,1.76.54,2.68.12,1.83-.17,3.66-.54,5.45-.38,1.84-.87,3.67-1.14,5.53s-.67,4.07-.71,5.98c-.1,4.09,13.47,6.39,16.87,8.04,7.57,2.77,15.65,6.69,22.99,10.11,5.01,2.39,10.03,4.75,15.03,7.21,5.16,2.55,9.74,5.76,14.49,8.4,5.54,2.71,11.05,9.16,17.54,5.71,6.35-2.75,12.91-5.06,19.01-8.32,7.27-4.01,14.05-8.89,21.09-13.34,4.67-3.03,9.52-5.84,14.44-8.47,7.25-4.04,15.69-7.34,24.18-7.46,5.56-.19,10.65-1.54,15.86-3.19,2.59-.83,5.14-1.74,7.57-2.91,2.43-1.21,4.93-2.36,6.01-4.39.34-.63.76-1.54.82-2.26.07-.97-.34-2.16-.5-3.12-.21-1.27-.42-2.53-.49-3.82-.05-.94-.03-1.89,0-2.84.07-2.78.13-5.56.2-8.34.02-1.06-.16-2.64.28-3.59.01,0,.03.01.04.02h-.02Z"/>
        <path class="cls-1" d="M239.28,91.88c3.85-1.99,7-4.9,9.12-8.58.71-1.18,1.3-2.69,2.8-3.94,3.17-2.58,6.8-.11,9.66,1.55,2.52,1.38,5.05,2.73,7.62,4.03,2.65,1.44,5.38,2.36,7.9,4.19,2.71,1.94,4.21,5.7,2.17,8.65-5.78,9.5-7.34,15.07-19.47,17.09-4.6.68-8.04.48-10.48,4.25-1.7,2.35-2.89,5.14-4.97,7.43-1.13,1.26-2.48,2.28-3.88,3.09-5.51,2.98-12.21,4.38-18.28,2.4-5.85-1.93-10.4-6.79-13.04-12.18-.04-.09,0-.21.09-.25.08-.04.18-.01.23.05,1.82,2.29,3.85,4.36,6.11,6.05,4.44,3.39,9.96,4.79,15.37,3.46,3.84-.95,7.8-2.4,10.51-5.28,1.88-2.05,3.13-4.69,4.96-7,1.92-2.72,5.43-4.55,8.65-4.66,14.3-.59,16.39-2.8,23.18-15.01,1.51-2.4.08-5.21-2.26-6.41-2.43-1.3-5.45-1.94-8.04-3.09-2.75-1.13-5.43-2.46-7.98-4l-1.89-1.16c-1.38-.8-2.95-1.94-4.41-.95-.83.57-1.58,1.77-2.46,3.02-2.62,3.72-6.68,6.57-11.06,7.6-.21.06-.32-.26-.12-.34h-.03,0Z"/>
        <path class="cls-1" d="M65.41,128.7c-6.61-1.51-13.57.98-17.32,6.06-1.56,1.96-3.14,4.41-5.32,6-5.49,4.08-12.36,2.29-18.36,1.88-5.19-.54-10.25,1.9-5.34,7.11,2.27,2.35,5.61,3.72,7.87,6.63,2.21,2.86,2.87,6.56,3.12,10.06.09,1-.04,3.28.8,3.78.12.06.23.07.54.06,1.12-.12,2.4-.34,3.54-.59,4.63-1.06,10.02-2.63,14.73-3.83,3.1-.83,6.22-1.8,8.86-3.54,4.27-2.84,6.79-7.95,11.83-10.03,3.4-1.55,7.47-.59,10.87-.23,3.17.27,6.44-.07,9.32-1.49,2.82-1.41,5.26-3.93,6.11-7.18,0-.07.07-.15.14-.17l.38-.11c.2-.07.34.25.13.34l-.35.18.14-.17c-.26,3.59-2.59,6.83-5.59,8.78-3.06,1.99-6.8,2.77-10.4,2.74-3.61-.07-6.87-.72-9.3.59-4.02,1.96-6.87,7.47-11.11,10.05-4.55,2.94-10.12,3.75-15.12,4.92-2.99.6-7.1,1.68-10.12,2.05-1.39.17-2.62.33-4.06.31-.54-.01-1.3-.15-1.89-.59-1.5-1.09-1.56-2.95-1.48-4.55.11-2.06.12-4.16-.26-6.17-.51-3.36-2.6-5.93-5.38-7.8-2.07-1.5-4.43-2.98-5.87-5.24-1.96-2.9-.62-6.09,2.51-7.39,4.9-2.05,10.45-.65,15.52-1.03,8.66-.24,9.07-6.74,15.59-10.7,4.56-2.79,10.65-3.29,15.43-1.05.19.1.09.4-.12.34h0v-.02h-.04Z"/>
        <path class="cls-1" d="M165.66,137.78c4.3,1.9,7.94,5.23,10.47,9.22,1.28,2.02,2.24,4.08,3.39,5.83,1.17,1.82,2.62,3.13,4.27,4.57,2.45,2.23,5.97,5.01,6.26,8.75.09,1.03-.48,2.38-1.58,2.76-.92.37-1.99.12-2.84,0-1.65-.24-3.33-.29-4.99-.11-4.16.41-8.49,2.29-10.28,6.22-1.04,2.18-1.67,4.61-3.75,6.41-1.66,1.39-3.6,1.78-5.26.17l-2.65-2.15c-3.57-3.05-8.12-5.94-9.51-10.74-.8-2.32-1.17-4.52-1.95-6.44-1.59-3.97-4.57-7.51-8.86-8.69-.1-.03-.16-.12-.13-.23.02-.08.1-.14.18-.14,2.35-.04,4.74.87,6.69,2.31,1.97,1.43,3.57,3.36,4.74,5.51,1.74,3.14,2.13,6.3,4.1,8.96,2.03,2.4,4.91,4.32,7.23,6.54.2.21,2.83,2.49,2.91,2.61,0-.02-.36-.09-.39-.04.12,0,.58-.26.75-.37,1.5-1.17,2.21-3.37,3.34-5.12,2.55-4.4,8.05-5.92,12.77-6.05,2.25-.15,4.6.26,6.81.37.97-.06,1.35-.74,1.19-1.65-.16-.96-.78-1.79-1.45-2.49-1.43-1.52-3.31-2.64-5.2-3.97-1.95-1.33-3.91-3.14-5.12-5.22-2.37-4.11-3.64-8.06-6.66-11.64-1.38-1.72-2.94-3.33-4.65-4.85-.15-.12.01-.4.2-.31h0l-.03-.02Z"/>
        <path class="cls-1" d="M109.56,193.66c-2.73-2.54-4.14-6.28-5.79-10-1.87-4.16-5.44-9.04-10.62-9.41-3.29-.28-6.15,1.14-9.05,2.04-2.57.87-5.11.98-7.38-.56-3.43-2.46-5.11-6.58-6.72-10.46-1.11-2.71-2.21-5.42-3.36-8.12-.04-.08-.13-.13-.22-.1-.1.03-.15.13-.12.23,1.89,5.64,2.95,11.44,6.04,16.66,1.63,2.71,4.37,5.1,7.7,5.4,5.5.78,11.12-4.5,16.02-.64,4.65,3.69,5.01,9.66,8.28,14.63,1.04,1.67,2.41,3.11,3.99,4.26-.2-1.33.3-2.71,1.22-3.94h.01Z"/>
        <path class="cls-1" d="M264.04,130.01c-1.94-7.77-10.77-11.88-18.2-10.61-.23.04-.19.38.04.37,2.9-.11,5.78.48,8.33,1.68,4.98,2.23,8.82,7.43,7.6,12.95-.54,2.58-1.93,5.01-3.93,6.55-2.13,1.65-4.56,1.81-7.21,1.36-4.46-.8-10.37-2.48-13.91,1.64-3.12,3.46-2.72,8.49-5.46,11.9-.67.83-1.27,1-2.23,1.25-.38.1-.76.22-1.06.48s-.48.67-.36,1.04c.05.15.15.29.19.44.04.18,0,.38-.02.56-.03.36.03.73.19,1.05,2.16-.32,4.04-1.2,5.55-2.78,3.2-3.28,2.95-8.41,5.65-11.73,2.86-3.04,7.34-1.16,11.03-.77,9.15,1.7,15.66-6.8,13.81-15.38h-.01Z"/>
        <path class="cls-1" d="M218.52,160.65c.67.12,1.35.17,2.06.06l-.14-1.95s0-.11-.03-.15c-.1-.23-.43-.18-.68-.14-1.13.19-2.57-.28-3.68-.5-3.55-.5-7.89-1.65-11.34.34-2.05,1.39-2.51,4.07-3.1,6.17-.78,2.8-1.51,5.65-2.98,8.06-2.81,4.7-6.4,3.94-11.12,4.08-4.55.29-8.97,1.92-12.63,4.68-3.62,2.63-5.79,6.52-9.63,8.42-4.05,1.9-7.41-2-11.28-3-4.49-1.48-9.44-1.52-13.97-.18-3.23.88-6.09,2.73-8.86,4.54-2.61,1.71-5.36,3.06-6.64,6.08-.2.46-.33,1.05.01,1.41.2.21.52.28.81.25.29-.04.56-.16.83-.28,4-1.85,7.4-4.77,11.2-6.99,4.71-2.72,10.46-3.28,15.65-1.74,4.56,1.37,8.36,5.07,13.45,2.37,4.09-2.18,6.36-6.6,9.68-9.31,2.14-1.79,4.66-3.17,7.35-4.02,1.34-.43,2.73-.73,4.14-.87,2.87-.25,6.22.23,8.8-1.5,5.24-3.48,5.3-10.56,7.79-15.63,2.02-3.57,8.16-1.52,11.41-.88.98.19,1.93.51,2.91.68h-.01Z"/>
        <path class="cls-1" d="M90.27,151.5c3.31,4.69,7.38,8.91,11.77,12.57,2.13,1.88,4.39,3.83,7.05,5.1,2.64,1.28,5.54,1.98,8.45,2.25,11.14,1,23.5.07,31.05-9.49.07-.08.18-.1.26-.04.06.04.08.12.07.2-.77,2.98-2.66,5.7-5.04,7.79-6,5.4-14.72,6.24-22.32,4.71-4.46-.96-8.7-2.76-12.93-4.34-2.79-1.09-5.76-2.07-8.39-3.73-2.62-1.66-4.84-3.94-6.63-6.46-1.77-2.53-3.13-5.39-3.66-8.43-.04-.18.23-.3.34-.14h-.02Z"/>
        <path class="cls-1" d="M177.03,151.51c3.97-.92,7.57-1.74,11.46-2.61,1.89-.34,3.93-.56,5.74-1.39,3.23-1.39,5.32-4.33,7.38-7.03,3.7-5.22,7.6-10.07,10.53-15.84.08-.16.35-.11.36.07.2,2.11-.1,4.24-.69,6.29-1.43,5.12-5.1,9.27-9,12.71-2.48,1.91-5.43,3.2-8.02,4.85-1.75,1.06-3.43,2.4-5.39,3.27-1.94.85-4.09,1.17-6.19,1.2-2.11.01-4.24-.29-6.2-1.14-.16-.07-.15-.32.03-.37h0Z"/>
        <path class="cls-1" d="M112.32,215.09c-.45-.27-.84-.52-.93-.58-1.05-.72-2.11-1.42-3.18-2.12-2.13-1.4-4.28-2.76-6.46-4.09-3.22-1.96-6.49-3.84-9.82-5.63-11.88-6.35-24.62-11.61-37.11-16.63-3.97-1.83-11.39-3.26-11.16-8.78.04-1.62.56-3.18.67-4.79.02-.32-.17-2.44-.68-3.29-.2-.33-.44-.47-.74-.24-.13.1-.16.27-.18.43-.11,1.04,0,2.1-.2,3.13-.14.75-.45,1.46-.63,2.2-.14.56-.22,1.13-.23,1.7-.06,3.13,1.9,6.14,4.38,7.92,2.36,1.68,5.16,2.78,7.78,3.98,12.1,5.57,24.75,11.3,36.71,17.09,4.6,2.23,9.18,4.48,13.67,6.91,2.75,1.49,5.48,3.06,8.18,4.61.27.16.55.31.84.44.05.02.11.04.16.03.08-.02.13-.11.16-.19.16-.41.32-.82.49-1.23-.05.12-.97-.4-1.72-.86h0Z"/>
        <path class="cls-1" d="M242.64,142.13c-.03-.09-.12-.15-.21-.12-.1.02-.17.12-.15.22,1.3,6.4,2.77,13.28.32,19.53-3.51,8.58-12.4,13.29-20.97,15.61-5.09,1.41-10.39,2.35-15.74,3.61-10.75,2.54-20.73,7.61-30.06,13.35-9.29,5.64-17.98,12.1-27.05,18.03-.19.12-.38.24-.57.35-1.42.89-2.7,1.82-4.24,2.48-1.61.69-3.23,1.37-4.88,2-3.27,1.25-6.62,2.3-10.08,2.88-1.78.3-3.59-.21-5.4-.28-.27,0-.63.05-.66.32,0,.07,0,.14.03.21.15.58.31,1.15.46,1.73.04.14.08.29.16.41.14.2.39.3.63.37.53.15,1.1.18,1.65.19,4.63.09,8.96-1.26,13.12-3.23,13.44-6.45,25.78-14.99,38.6-22.5,9.27-5.4,18.95-9.99,29.24-12.51,7.78-2.01,16.22-3.34,23.61-7.1,7.49-3.8,14.34-10.62,15.05-19.38.48-5.59-1.17-10.95-2.85-16.16h-.01Z"/>
        <path class="cls-1" d="M147.19,150s-.06,0-.09-.01c-.37-.05-.76-.09-1.07-.31-.06-.04-.11-.09-.14-.16-.06-.2.18-.35.38-.41,2.6-.75,5.73-.38,8.04,1.04,2.02,1.47,3.23,3.53,4.73,5.47,1.42,1.97,1.96,4.5,2.36,6.63.21,1.22.35,2.63.89,3.76.49,1.03,1.92,1.59,2.68,2.4,1.22,1.28,1.65,3.23,3.07,4.28.39.29.68.53.89.99.08.17.13.4-.02.51-.11.08-.26.04-.39,0-1.17-.47-1.91-1.6-2.6-2.65-.59-.91-1.19-1.81-1.8-2.7-.24-.35-.4-.68-.79-.84-.42-.18-.87-.27-1.27-.49-.41-.23-.78-.52-1.11-.85-.67-.69-1.12-1.56-1.44-2.46-.67-1.83-.85-3.8-1.12-5.72-.03-.24-.07-.47-.11-.71-.07-.41-.23-1.22-.34-1.62-.28-1.07-.78-2.1-1.58-2.87-.79-.79-1.9-1.14-2.87-1.47-2.1-.71-4.11-1.49-6.32-1.79l.02-.02Z"/>
        <path class="cls-1" d="M172.69,166.39c-.18-.12-.37-.24-.54-.37-.36-.25-.71-.53-1.04-.81-.67-.56-1.31-1.15-1.91-1.78-1.28-1.34-2.29-3.23-2.51-5.08-.16-1.39.13-2.74.28-4.12.17-1.57,0-3.09-.65-4.53-.47-1.04-1.13-1.99-1.85-2.88-.88-1.07-1.75-2.2-2.71-3.2-.32-.33-.65-.65-1-.96-.44-.39-.94-.81-1.01-1.4.38-.18.82-.01,1.2.17.19.09.37.19.56.29,2.39,1.28,4.64,3.34,5.68,5.84.53,1.39.44,2.8.52,4.12.07,2.44.21,5.2,1.25,7.34.61,1.07,1.34,2.07,2.12,3.03.88,1.08,1.82,2.11,2.74,3.17.47.54.93,1.09,1.37,1.65s.74,1.06,1.33,1.44c.03.02.05.04.06.07.01.04-.03.09-.07.1s-.09,0-.14-.01c-.84-.25-1.59-.75-2.31-1.25-.43-.3-.9-.54-1.34-.83h-.03Z"/>
        <path class="cls-1" d="M124.93,65.4c11.8-4.61,21.48,6.97,32.12,9.84,3.98,1.3,8.32,1.74,12.56,1.67,2.19.07,4.44.23,6.63.58,2.24.46,4.36,1.42,6.4,2.47,2.73,1.44,5.22,3.33,7.14,5.67.09.11-.02.29-.16.24-4.26-1.31-8.15-2.05-12.43-2.39-2.8-.3-5.45-1.12-8.21-1.72-5.67-1.7-11.73-1.9-17.32-4.09-9.12-3.64-15.84-14.11-26.63-12-.16.05-.26-.21-.09-.28h-.01Z"/>
        <path class="cls-1" d="M119.48,80.9c3.23,1.17,5.85,2.45,8.66,4.17,1.28.85,2.52,1.98,3.98,2.66,1.45.68,3.05.99,4.64,1.04,3.36.06,6.99-.36,10.33.84,3.38,1.35,6.22,4.46,6.6,8.16,0,.09-.06.17-.15.18-1.38-.71-2.94-1.8-4.28-2.53-2.7-1.38-4.96-2.97-7.92-3.83-3.15-.61-6.55-1.49-9.77-2.11-1.67-.29-3.48-.4-5.13-1.02-3.25-1.34-6.02-3.95-7.17-7.36-.04-.12.09-.25.21-.21h0Z"/>
        <path class="cls-1" d="M90.16,92.35c3.59-3.95,10.1-3.34,14.4-.94,2.14,1.21,3.89,2.82,5.96,4.1,4.03,2.34,8.04,5.52,11.62,8.31,1.82,1.35,3.77,2.5,5.64,3.76l5.66,3.81c1.91,1.3,3.88,2.53,5.88,3.99.12.08.06.29-.09.28-4.93-.06-9.72-1.68-13.92-4.18-3.1-1.95-5.82-4.49-8.3-7.17-1.56-1.75-2.84-3.68-4.65-5.11-2.64-2.21-6.25-3.19-9.38-4.35-4.14-1.65-7.99-3.23-12.65-2.24-.14.04-.25-.15-.15-.25h-.02Z"/>
        <path class="cls-1" d="M105.39,178.46c5.27.69,10.63,5.32,8.54,11.07-.92,2.63-2.57,4.52-3.47,6.42-2.26,4.37,1.31,7.72,3.04,11.8,1.06,2.35,1.44,4.97,1.12,7.45-.26,3.61-2.98,6.67-2.16,10.14.86,3.55,7.94,3.97,9.43.98.64-1.73-.52-3.81-1.05-5.73-.63-1.78-.98-4.58-.02-6.53.65-1.59,2.04-3.26,2.54-4.59.62-1.54.27-3.62-.23-5.96-2.61-9.23,2.92-14.27,10.7-17.86.18-.08.37.17.2.31-1.84,1.55-3.66,3.09-5.2,4.8-8.4,9.09,3.37,14.08-3.69,23.54-3,3.91,1.3,7.88.12,12.29-1.64,5.78-10.56,5.49-13.55,1.07-2.62-4.12,1.59-8.53,1.73-12.57.69-7.03-6.86-9.76-7-16.47-.02-2.86,1.7-5.19,3.15-7.31,1.22-1.75,2.38-3.46,2.17-5.57-.51-3.29-3.51-5.44-6.47-6.94-.19-.07-.1-.39.11-.35h-.01Z"/>
        <path class="cls-1" d="M211.14,141.44c4.86.85,8.92,5.28,9.73,10.19.69,3.14-.8,6.28.63,9.1,1.44,2.76,4.85,4.11,6.19,7.09.36.78.41,1.66.79,2.1.61.75,1.37-.38,1.31-1.04-.15-1.04-.94-1.55-1.66-2.47-3.59-4.17.04-9.74.31-14.23.07-1.35-.35-2.67-.98-4.02-1.34-2.77-3.52-5.65-3.53-8.95-.07-1.66.49-3.5,1.82-4.5.1-.08.24.06.15.16-2.95,4.31,1.35,8.62,3.45,12.32,1.92,3.06,1.63,6.75.39,9.97-.9,2.7-1.95,5.72-.22,8.18,1.02,1.31,2.44,3.37,1.02,5.04-1.3,1.62-3.1.67-3.28-1.19-.05-.28-.19-.82-.28-1.09-1.52-3.72-6.78-4.86-7.62-9.09-.59-2.35-.07-4.73-.43-7.06-.7-4.48-3.68-8.3-7.87-10.29-.11-.04-.06-.24.07-.21h0Z"/>
      </g>
      <g>
        <g>
          <path class="cls-1" d="M110.58,29.32l.89-3.73c1.64.7,3.84.97,5.75.62,1.94-.36,2.59-1.04,2.44-1.85-.49-2.62-9.53,1.04-10.67-5.1-.55-2.95,1.41-5.81,6.32-6.72,2.15-.4,4.46-.32,6.26.33l-.8,3.74c-1.74-.56-3.38-.69-4.82-.42-1.96.36-2.54,1.16-2.39,1.98.47,2.53,9.49-1.1,10.62,4.99.53,2.88-1.42,5.78-6.32,6.69-2.71.5-5.54.27-7.3-.52h.02Z"/>
          <path class="cls-1" d="M137.89,26.29l-7.06-.81-1.68,3.09-4.82-.55,9.28-15.85,4.65.53,5.48,17.54-4.91-.56-.94-3.39h0ZM136.91,22.65l-1.53-5.59-2.76,5.1,4.29.49h0Z"/>
          <path class="cls-1" d="M164.59,19.47l-4.94,16.06-3.74-1.15-4.46-10.73-2.63,8.55-4.45-1.37,4.94-16.06,3.74,1.15,4.46,10.74,2.63-8.56,4.45,1.37h0Z"/>
          <path class="cls-1" d="M167.8,20.82l7.61,2.29c5.33,1.61,8.05,5.81,6.56,10.75-1.49,4.94-6.08,6.94-11.41,5.33l-7.61-2.29,4.85-16.09h0ZM171.47,35.51c2.73.82,5.07-.25,5.9-3.03.84-2.78-.51-4.97-3.24-5.79l-2.87-.87-2.66,8.82,2.87.87Z"/>
          <path class="cls-1" d="M211.4,28.99l-7.29,16.09-5.05-.57-2.06-10.52-4.48,9.78-5.05-.57-3.54-17.3,4.86.55,2.17,11.04,4.73-10.26,4.34.49,2.16,11.13,4.71-10.36,4.51.5h-.01Z"/>
          <path class="cls-1" d="M213.73,29.29l4.69.74-2.63,16.6-4.7-.74,2.63-16.6h.01Z"/>
          <path class="cls-1" d="M220.38,38.58c1.49-4.89,6.29-7.22,11.39-5.67,2.96.9,5.02,2.71,5.99,5.14l-3.69,1.74c-.64-1.52-1.68-2.57-3.22-3.04-2.64-.8-5.04.47-5.88,3.23s.44,5.15,3.08,5.96c1.54.47,2.98.18,4.36-.73l2.1,3.5c-2.16,1.48-4.87,1.83-7.84.93-5.1-1.55-7.79-6.16-6.3-11.05h.01Z"/>
          <path class="cls-1" d="M257.28,46.51l-9.11,14.11-3.99-2.58,3.55-5.5-5.44-3.51-3.55,5.5-3.99-2.58,9.11-14.11,3.99,2.58-3.42,5.3,5.44,3.51,3.42-5.3,3.99,2.58Z"/>
          <path class="cls-1" d="M250.24,60.54l3.64-1.2c.27,1.76,1.19,3.78,2.5,5.22,1.32,1.46,2.25,1.65,2.85,1.1,1.97-1.79-5.89-7.55-1.27-11.75,2.22-2.02,5.68-1.85,9.04,1.84,1.47,1.62,2.61,3.62,3.02,5.5l-3.6,1.29c-.44-1.77-1.19-3.23-2.17-4.32-1.34-1.47-2.32-1.56-2.94-.99-1.9,1.73,5.93,7.49,1.34,11.65-2.17,1.97-5.66,1.84-9.02-1.86-1.86-2.04-3.15-4.57-3.39-6.48h0Z"/>
        </g>
        <path class="cls-1" d="M269.89,73.31c.05-1.63,1.28-2.65,2.82-2.61,1.56.05,2.7,1.14,2.65,2.77-.05,1.58-1.26,2.68-2.81,2.63-1.54-.05-2.7-1.21-2.66-2.79Z"/>
        <path class="cls-1" d="M96.01,24.5c.05-1.63,1.28-2.65,2.82-2.61,1.56.05,2.7,1.14,2.65,2.77-.05,1.58-1.26,2.68-2.81,2.63-1.54-.05-2.7-1.21-2.66-2.79h0Z"/>
      </g>
    </g>
  </g>
</svg>