<?xml version="1.0" encoding="UTF-8"?>
<svg id="Calque_2" data-name="Calque 2" xmlns="http://www.w3.org/2000/svg" viewBox="0 0 259.24 226.32">
  <defs>
    <style>
      .cls-1 {
        fill: #b31;
      }

      .cls-1, .cls-2 {
        stroke-width: 0px;
      }

      .cls-2 {
        fill: #f8f4e8;
      }
    </style>
  </defs>
  <g id="Calque_2-2" data-name="Calque 2">
    <g>
      <path class="cls-2" d="M70.27,14.2C90.3,3.65,113.32-.46,135.95.04c34.88.76,70.63,13.14,93.95,39.08,3.86,4.29,7.45,9.11,8.74,14.74,1.29,5.63-.21,12.23-4.92,15.58,9.97,8.92,9.16,27.05-1.55,35.05,1.24,5.99,2.03,12.07,2.36,18.18,4.95.21,10.12.47,14.4,2.96s7.27,7.96,5.29,12.5c-.42.97-1.05,1.87-1.2,2.91-.32,2.22,1.53,4.06,2.89,5.84,4.03,5.23,4.45,12.97,1.01,18.6-3.44,5.63-10.52,8.79-17.02,7.58-5.16-.96-11.93-3.72-14.56.82-2.44,4.21,2.43,8.71,4.33,13.19,2.43,5.72-1.04,13.17-6.98,14.99-2.22,6.76-7.91,11.94-14.31,15.04-6.4,3.1-13.52,4.35-20.56,5.37-37.83,5.49-76.51,5.11-114.22-1.13-9.82-1.62-20.16-3.94-27.29-10.88-1.59-1.55-3.06-3.35-5.12-4.2-1.88-.77-4.06-.66-5.84-1.65-3.93-2.19-3.4-8.25-.79-11.92,1.29-1.81,2.95-3.4,3.8-5.45,2.43-5.79-2.4-11.94-7.14-16.06-5.31,6.67-15.42,9.38-22.95,5.38s-10.81-14.8-6.04-21.86c3.91-5.78,11.29-7.78,17.69-10.55,6.4-2.77,13.07-8.23,12.25-15.15-.47-3.95-3.32-7.17-4.75-10.88s-.45-9.15,3.48-9.82c-2.77-2.08-2.91-6.2-2.12-9.58.79-3.38,2.25-6.74,1.73-10.17-.37-2.42-1.69-4.57-2.74-6.78C15.04,54.98,49.21,25.27,70.26,14.18v.02Z"/>
      <g>
        <g>
          <path class="cls-1" d="M148.64,13.68c-23.89-1.98-47.9,4.6-68.64,16.26-15.41,8.63-27.87,18.13-36.26,33.92-2.04,3.64-4.16,7.62-3.82,11.72.39,4.04,3.81,6.96,7.38,8.7,3.88,1.88,8.33,2.81,12.82,3.69l27.12,5.17c17.91,3.38,36.28,7.09,54.49,4.6,9-1.26,17.78-3.9,26.57-6.64,14.21-4.5,28.3-9,42.09-14.53,13.18-4.99,18.83-14.19,9.18-26.38-5.61-6.96-13.19-12.4-20.51-17.52-15.06-9.92-32.25-17.44-50.41-19.01h0v.02ZM148.82,11.68c27.78,2.53,48.71,11.4,68.62,31.18,5.01,5.12,10.04,11.28,10.53,18.76.47,7.98-5.79,14.46-12.41,17.86-10.43,5.34-21.62,8.72-32.89,11.7-13.53,3.22-26.73,7.32-40.67,8.93-9.3.91-18.62.45-27.79-.64-15.97-1.88-38.54-6.06-54.64-8.48-4.54-.76-9.23-1.57-13.75-3.56-8.07-3.53-12.02-10.44-8.92-19.06,2.58-6.79,6.2-12.74,10.47-18.61,5.76-7.58,13.33-13.6,21.31-18.59,3.92-2.57,8.06-4.78,12.23-6.89,20.96-10.21,44.77-14.63,67.89-12.59h.02Z"/>
          <path class="cls-1" d="M53.51,88.18c-1.99,1.18-4,2.32-6.03,3.43-2.83,1.58-5.81,2.56-5.89,6.33-.13,1.54.13,3.22.41,4.79.22,1.3.55,3.08,1.42,3.85,1.3,1.22,3.51,1.14,5.37,1.12,2.3-.05,4.61-.1,6.9-.19,9.18-.34,18.37-.81,27.5-1.75,13.68-1.66,27.19-3.77,40.74-6.4.09-.02.18.04.2.13.02.08-.03.15-.09.19-12.73,5.76-26.69,8.23-40.55,9.13-9.21.79-18.44,1.24-27.67,1.63-8.72.15-16.52,2.99-16.94-9.06-.26-3.13.19-6.96,3.04-8.93,1.54-1.05,3.28-1.54,4.94-2.21,2.16-.82,4.33-1.61,6.52-2.36.19-.06.3.2.14.3h-.01Z"/>
          <path class="cls-1" d="M221.32,72.8c2.58-.51,5.17,1.14,6.58,3.26,1.46,2.23,1.87,4.89,2.07,7.33.53,5.19.36,11.01-4.32,14.52-3.67,2.88-7.91,3.86-12.13,5.26l-1.76.52c-14.04,4.32-28.73,6.93-43.46,6.08-4.9-.26-9.77-.81-14.58-1.71-3.59-.6-8.24-1.6-9.63-5.49-.46-1.22-.48-2.67.18-3.78.05-.08.15-.11.23-.06.07.04.1.12.07.2-.73,2.22.81,4.51,2.74,5.46,1.96,1.01,4.31,1.09,6.72,1.25,4.79.32,9.57.48,14.34.37,14.88-.37,29.85-1.85,44.19-6,5.51-1.83,12.84-3.33,14.5-9.68.56-2.09.59-4.48.64-6.87.07-3.45-.3-7.08-3.16-9.25-.9-.68-2-1.11-3.18-1.1-.2,0-.23-.29-.04-.33h0v.02Z"/>
          <path class="cls-1" d="M109.2,103.2c-.93,2.76,2.39,3.45,4.54,3.87,1.26.29,2.53.54,3.79.8,6.31,1.21,12.74,2.38,19.17,2.64,5.19.35,10.42.09,15.6-.21,5.15-.15,10.13-.15,14.87-2.55.08-.04.19,0,.23.07.03.06.02.13-.02.18-2.62,3.21-6.92,4.71-10.92,5.36-3.98.69-7.97.41-11.97.34-7.96-.07-16-.34-23.82-1.99-3.28-.76-6.45-1.84-9.51-3.29-1.99-.82-4.06-3.48-2.23-5.44.14-.13.35.05.26.21h0Z"/>
          <path class="cls-1" d="M219.88,159.27c1.82,4.56-2.84,8.55-6.37,10.54-10.92,6.55-23.5,9.82-35.92,11.94-8.26,1.41-16.64,2.5-24.98,3.25-16.74,1.68-33.6,1.24-50.38.45-12.52-.55-25.52-1.36-37.63-4.76-4.11-1.03-8.12-2.36-12.14-3.73-2.03-.73-4.16-1.64-6.08-3.11-5.83-4.32-5.39-12.59-3.39-18.74.05-.18.34-.13.33.06-.3,8.99.43,15.59,10.42,17.75,7.96,2.03,16.11,3.81,24.18,5.38,8.09,1.64,16.26,3.26,24.54,4.01,24.89,2.02,49.92-.82,74.64-3.81,12.29-1.75,24.55-4.4,35.56-10.23,1.82-.91,3.47-2,4.84-3.49,1.28-1.39,2.17-3.29,1.48-5.14-.1-.26.03-.54.29-.64.25-.09.52.03.63.26h-.02Z"/>
          <path class="cls-1" d="M78.32,56.73c.18-2.5,2.39-4.4,4.25-5.77,1.91-1.36,3.79-2.81,5.82-3.98,6.05-3.64,12.69-6.36,19.67-7.53,1.72-.29,3.45-.72,5.17-.98,2.86-.46,5.73-1.12,8.59-1.58,5.71-1.09,11.6-2.12,17.42-2.22,3.42,0,7.2.08,10.59.46.99.07,2.54.23,3.51.42,5.8.87,11.59,2.56,17,4.77,4.33,1.79,8.49,4.1,12.35,6.73.09.06.12.18.06.28-.05.08-.15.11-.24.08-5.46-1.76-10.92-3.66-16.5-4.94-4.86-1.29-10.04-2.12-15-2.98-2.8-.34-5.63-.85-8.44-1.01-3.32-.34-6.93-.39-10.24-.6-4.59-.1-9.2.02-13.73.81-1.92.38-3.97.88-5.87,1.39-4.61,1.56-9.06,3.54-13.51,5.48-2.05.92-4.24,1.7-6.25,2.72-3.14,1.38-6.15,2.95-9.25,4.47-1.99,1.01-4.04,1.96-5,4.08-.07.21-.42.13-.39-.09h-.01Z"/>
          <path class="cls-1" d="M111.93,70.57c-.29-1.78,3.21-3.18,4.52-3.87,1.74-.77,3.54-1.43,5.44-1.62,1.9-.2,3.87.08,5.73-.12,3.76-.29,7.33-2.06,11.13-2.26,3.8-.47,7.66-.21,11.33.88.92.25,1.83.58,2.72.94.75.3,1.58.61,2.09,1.31.22.24.44,1.07,0,1.06-.07,0-.12-.06-.15-.11-.56-.63-1.51-.25-2.25-.25-4.57.36-9.09.33-13.65-.08-3.62-.06-7.39-1.15-11-.23-1.8.42-3.47,1.4-5.17,2.08-2.59.94-5.29,1.39-8.02,1.76-.58.1-1.91-.02-2.31.56-.08.17-.36.14-.39-.05h-.02Z"/>
          <path class="cls-1" d="M41.9,105c-1.26,2.15-2.33,4.46-2.99,6.82-.19.74-.16,1.45.16,1.78.88.8,3,.93,4.28,1.18,6.71.79,13.36-.92,20.06-1.52,15.1-1.37,32.84,4.57,41.94,17.18,4.59,6.6,4.48,13.09,1.94,20.44-.98,3.25-2.17,6.46-2.07,9.59-.12,2.71,1.89,6.08,4.73,5.97,1.15-.05,2-.65,2.77-1.52,1.82-2,2.24-4.91,2-7.59-.19-2.66-.57-5.81-.25-8.63.5-4.43,2.37-8.63,5.03-12.15,10.09-13.39,28.54-14.49,43.77-12.32,6.66.91,13.13,1.12,19.55-1.01,6.32-1.91,12.38-5.03,19-7.2,3.27-1.04,6.83-2.05,10.64-1.73,7.98.55,11.22,7.51,10.12,14.8-.21,1.64-.53,3.19-.44,4.77.06.96.23,1.69.77,2.33.64.63,1.45.76,2.36.4,2.87-1.26,2.83-4.69,2.31-7.49-1.2-6.61-3.01-13.15-5.25-19.5-1.13-3.19-2.41-6.32-3.78-9.43-.04-.08,0-.18.08-.22s.17,0,.21.07c1.64,2.98,3.13,6.05,4.48,9.18,2.74,6.28,4.83,12.79,6.38,19.48.37,1.7.67,3.56.29,5.52-.57,4.01-5.72,7.1-9.01,3.95-1.85-1.82-1.86-4.55-1.69-6.86,1.56-9.24-1.44-15.28-11.71-13.27-11.46,2.48-22.07,9.78-34.3,9.88-6.91.08-13.54-1.51-20.35-1.49-12.78-.37-26.78,4.43-32.16,16.76-.82,1.94-1.34,3.94-1.56,6.01-.23,2.67.21,5.04.37,7.88.29,4.03-.41,8.43-3.7,11.24-4.9,4.14-10.99.66-12.37-5.02-1.12-4.43.64-8.84,1.84-12.99.95-3.22,1.75-6.46,1.38-9.6-.68-6.48-5.46-11.69-10.55-15.44-7.99-5.82-17.75-9.2-27.64-9.58-8.5-.41-16.93,2.13-25.45.81-2.2-.52-5.7-.63-5.77-3.57,0-1.45.71-2.65,1.31-3.89.81-1.54,1.82-2.97,2.99-4.22.12-.15.37.04.27.2h.01Z"/>
          <path class="cls-1" d="M220.1,136c2.94,6.67-.6,8.85-6.9,9.21-3.33.4-6.94.67-10.27.78-5.72.16-11.43-.42-17.12-.61-9.11-.34-18.23.24-27.33.09-13.21.02-27.69-.23-40.88.14-.15.01-.19-.24-.03-.26,8.96-1.89,18.13-2.62,27.28-2.72,11.42-.11,22.78.98,34.15,1.74,6.82.4,13.66-.07,20.45-.57l13.58-.64c2.25-.15,4.65.05,6.06-1.14,1.56-1.41,1.12-4,.76-5.95-.04-.15.2-.22.25-.08h0Z"/>
          <path class="cls-1" d="M108.51,145.07c-13.36,1.72-32.82,1.56-46.45,1.66l-11.67.18c-2.69-.07-5.82-.5-7.64-2.82-1.92-2.42-1.08-5.74,0-8.21,1.04-2.56,2.15-5.43,2.96-8.05,1.12-3.61,1.77-7.36,1.45-11.23,0-.07.05-.14.12-.14.06,0,.12.03.14.09,1.24,3.75,1.09,7.91.32,11.78-.57,2.92-1.46,5.73-2.44,8.51-3.04,7.17,2.11,7.84,8.02,7.65,1.84-.04,6.81-.13,8.72-.17,11.26-.14,23.66-.56,34.85-.1,3.87.13,7.75.31,11.63.59.15,0,.16.26,0,.26h0Z"/>
          <path class="cls-1" d="M48.13,145.36c-7.8,3.87-16.94,3.23-24.92,6.46-4.32,1.84-10.79,6.04-6.36,11.11,4.17,4.7,10.69,2.12,14.91-1.22,4.59-3.53,9.25-8.26,15.49-8.13,5.92.21,11.82,1.22,17.36,3.34,8.01,3.04,15.34,8.28,23.6,10.29,5.42,1.38,11.4,1.47,16.45-1.23.13-.09.28.14.14.22-2.36,1.75-5.22,2.86-8.14,3.28-15.04,2.26-27.13-9.7-41.09-12.49-4.04-.67-8.29-1.94-12.35-.92-6.98,1.89-11.62,8.65-18.87,10.14-6.4,1.71-14.16-5.01-9.5-11.26,1.89-2.47,4.62-4.17,7.46-5.31,8.23-3.19,17.37-2.06,25.7-4.54.15-.04.24.17.1.25h.02Z"/>
          <path class="cls-1" d="M117.48,162.02c3.55-2.29,7.92-3.15,12.15-3.05,12.45.11,23.92,7.72,36.39,6.45,4.07-.37,7.6-2.19,11.11-4.26,3.58-2.13,7.52-4.02,11.62-5.12,18.54-5.34,31.89,5.16,49.31,4.85,2.75-.09,5.45-.55,8.02-1.46,1.6-.66,3.85-1.31,3.88-3.21,0-1.52-1.41-2.55-2.87-2.93-3.55-.9-7.58.99-11.1-.52-1.46-.77-2.26-2.57-1.79-4.16.16-.65.61-1.27,1.02-1.78,1.4-1.78,3.06-3.17,4.6-4.54,2.17-1.91,4.49-3.95,5.22-6.82.26-.73.24-1.4-.27-1.83-.18-.13-.53-.19-.99-.14-1.48.19-3.05.48-4.53.78-4.05.84-8.05,1.97-11.94,3.39-.16.07-.25-.18-.1-.24,4.7-2.31,9.68-4.05,14.79-5.22,1.21-.22,2.31-.73,3.64-.07,1.35.72,1.65,2.51,1.29,3.75-1.06,5.49-6.95,8.69-9.65,12.48-.35.48-.75.94-.46,1.56.15.33.44.53.79.59,2.22.35,4.42-.18,6.72-.27,2.2-.1,4.87.28,6.83,2.21,1.48,1.44,2.08,3.97,1.04,5.89-1.07,2.04-3.35,2.86-5.24,3.54-11.16,3.72-22.79-.49-33.56-3.39-10.07-2.91-20.24-3.19-29.83,1.45-3.77,1.77-7.05,4.37-10.93,6.1-16.61,7.24-32.39-8.12-49.16-5.66-2.02.31-4,.92-5.85,1.85-.14.08-.27-.15-.13-.23h-.02Z"/>
        </g>
        <g>
          <path class="cls-1" d="M41.09,195.32c.05-1.63,1.28-2.65,2.82-2.61,1.56.05,2.7,1.14,2.65,2.77-.05,1.58-1.26,2.68-2.81,2.63-1.54-.05-2.7-1.21-2.66-2.79Z"/>
          <path class="cls-1" d="M218.32,189.96c.05-1.63,1.28-2.65,2.82-2.61,1.56.05,2.7,1.14,2.65,2.77-.05,1.58-1.26,2.68-2.81,2.63-1.54-.05-2.7-1.21-2.66-2.79Z"/>
          <g>
            <path class="cls-1" d="M51.51,205.06l2.49-2.92c1.15,1.36,2.99,2.6,4.85,3.15,1.89.56,2.78.24,3.01-.54.75-2.56-8.96-3.39-7.2-9.37.85-2.88,3.89-4.54,8.68-3.13,2.09.62,4.12,1.74,5.43,3.12l-2.4,2.97c-1.3-1.28-2.7-2.14-4.1-2.56-1.91-.56-2.79-.12-3.03.69-.72,2.46,8.96,3.31,7.21,9.25-.83,2.81-3.88,4.51-8.67,3.1-2.65-.78-5.06-2.27-6.27-3.77h0Z"/>
            <path class="cls-1" d="M79.88,210.26l-6.98-1.31-1.9,2.96-4.76-.9,10.4-15.14,4.6.87,4.21,17.89-4.86-.91-.69-3.45h-.02ZM79.16,206.56l-1.13-5.68-3.12,4.88,4.25.8Z"/>
            <path class="cls-1" d="M105.33,199.66l-1.61,16.73-3.89-.38-6.52-9.62-.86,8.91-4.64-.45,1.61-16.73,3.9.38,6.52,9.62.86-8.91,4.64.45h-.01Z"/>
            <path class="cls-1" d="M108.29,199.83l7.94.19c5.57.13,9.3,3.46,9.18,8.62-.12,5.16-4.02,8.3-9.58,8.17l-7.94-.19.41-16.79h-.01ZM115.72,213.02c2.85.07,4.81-1.59,4.88-4.49s-1.81-4.65-4.66-4.72l-3-.07-.22,9.21,3,.07Z"/>
            <path class="cls-1" d="M153.38,199.24l-4.78,17.01-5.08.2-3.62-10.09-2.96,10.35-5.08.2-6.11-16.58,4.89-.19,3.8,10.59,3.13-10.86,4.37-.17,3.81,10.68,3.1-10.96,4.53-.18h0Z"/>
            <path class="cls-1" d="M154.72,198.87l4.73-.44,1.56,16.73-4.73.44-1.56-16.73Z"/>
            <path class="cls-1" d="M162.93,206.64c-.74-5.06,2.61-9.21,7.88-9.98,3.06-.45,5.7.31,7.6,2.09l-2.6,3.14c-1.23-1.11-2.61-1.61-4.2-1.38-2.73.4-4.35,2.57-3.94,5.42.42,2.85,2.59,4.47,5.32,4.07,1.59-.23,2.77-1.11,3.63-2.52l3.39,2.27c-1.32,2.25-3.63,3.73-6.69,4.18-5.27.77-9.66-2.25-10.4-7.31v.02Z"/>
            <path class="cls-1" d="M195.06,191.81l4.07,16.3-4.61,1.15-1.59-6.36-6.29,1.57,1.59,6.36-4.61,1.15-4.07-16.3,4.61-1.15,1.53,6.12,6.29-1.57-1.53-6.12,4.61-1.15Z"/>
            <path class="cls-1" d="M202,205.62l.18-3.83c1.74.38,3.96.24,5.77-.47,1.83-.71,2.35-1.51,2.05-2.27-.97-2.48-9.16,2.8-11.43-3.02-1.09-2.8.3-5.97,4.96-7.78,2.04-.79,4.32-1.14,6.21-.85l-.08,3.82c-1.81-.22-3.45-.05-4.81.48-1.86.72-2.28,1.61-1.98,2.39.93,2.39,9.12-2.85,11.36,2.92,1.06,2.73-.31,5.94-4.97,7.76-2.57,1-5.39,1.3-7.27.85h.01Z"/>
          </g>
        </g>
      </g>
    </g>
  </g>
</svg>