<?xml version="1.0" encoding="UTF-8"?>
<svg id="Calque_2" data-name="Calque 2" xmlns="http://www.w3.org/2000/svg" viewBox="0 0 248.9 223.07">
  <defs>
    <style>
      .cls-1 {
        fill: #e4bcac;
      }

      .cls-1, .cls-2 {
        stroke-width: 0px;
      }

      .cls-2 {
        fill: #f8f4e8;
      }
    </style>
  </defs>
  <g id="Calque_2-2" data-name="Calque 2">
    <g>
      <path class="cls-2" d="M244.81,87.01c-5.89,4.42-15.84.81-17.52-6.36,4.48,11.32,6.5,23.6,5.88,35.75-.5,9.91-4.37,21.53-13.99,23.95-.9,14.41-9.88,26.87-18.51,38.44-8.32,11.15-18.76,23.4-32.67,23.3,2.77,5.9-1.01,13.21-6.6,16.57s-12.41,3.75-18.93,3.97c-19.7.68-39.44.65-59.1-.74-3.05-.22-6.26-.52-8.76-2.28-4.95-3.49-4.87-10.72-4.28-16.75-9.02-3.61-17.12-9.13-25.06-14.73-7.9-5.57-15.84-11.38-21.59-19.14-5.76-7.76-9.1-17.87-6.66-27.22C5.29,135.08-1.64,120.84.34,107.48c1.98-13.36,12.73-24.98,25.9-27.99,1.9-8.87,13-14.38,21.22-10.53.96-8.44,6-16.32,13.25-20.74s16.56-5.29,24.5-2.28c-1.36-8.56,2.55-17.35,8.6-23.57,6.66-6.84,15.64-10.98,24.53-14.31,1.73-.65,3.64-.78,5.4-.22,4.26,1.36,3.85,5.34,5.04,8.5.9,2.37,4.07,4.4,5.81,2.56-.13-5.04-6.15-9.9-4.08-14.93,1.03-2.5,3.45-4.04,5.45-3.97,4.86.15,4.56,2.94,7.06,3.08,2.04.11,4.04-.08,6.04-.52,6.81-1.48,13.9.23,20.45,2.57,21.07,7.53,39.13,21.48,56.8,35.21,4.29,3.34,8.67,6.76,11.69,11.27,3.14,4.68,4.08,9.96,2.84,15.4,7.74,2.99,11.51,14.31,3.96,19.98v.02Z"/>
      <g>
        <g>
          <path class="cls-1" d="M224.77,99.67c-.63-5.11-2.8-10.65-7.14-13.71-1.01-6.28-4.74-11.99-9.76-15.89-4.96-3.92-11.3-6.2-17.69-5.94-5.66-15.15-22.06-25.33-38.19-23.7-.1,0-.15,0-.17-.02h0s-.13-.12-.25-.28c-3-4.4-8.05-7.24-12.69-9.26-5.27-2.45-11.01-4.28-14.86-8.68-.75-1.13-.16-1.8-.2-3.43.09-2.8-2.45-4.62-5.11-4.14-1.96.25-3.53,1.21-4.82,1.88-1.36.73-2.72,1.47-4.08,2.25-9.87,5.49-19.27,13.94-18.06,26.31.3,3.56,1.44,7.04,3.33,10.06-1.04-.34-2.1-.78-3.19-1.25-9.71-4.23-21.91-4.44-30.72,1.99-6.24,4.6-10.48,12.5-9.31,20.32h0c-1.1-.22-2.25-.36-3.39-.39-6.94-.28-13.92,2.42-18.85,7.36-.62.62-1.21,1.28-1.76,1.99-5.85,2.01-11.09,6.2-14.26,11.51-1.87,3.76-2.84,7.9-3.22,12.09-.89,13.95,4.61,22.4,13.11,27.9-.4,4.63.83,9.4,2.66,13.63,2.15,5.05,5.32,9.73,8.67,14.02,9.9,12.86,20.97,25.7,35.84,33.01,1.84.9,3.73,1.73,5.64,2.49-.25,1.1-.43,2.21-.49,3.38-.52,5.54,2.86,10.21,8.23,11.6,6.74,1.73,13.26.62,20.04.62,8.71-.13,17.41-.3,26.11-.55,4.35-.1,8.71-.14,13.06-.33,5.66-.41,12.17-.19,16.68-4.48,2.67-2.62,3.98-7.15,1.88-10.45,4.1-1.42,8.08-3.17,11.83-5.4,12.01-7.08,20.26-18.77,27.68-30.15,5.56-8.55,10.79-18.09,12.2-28.34h0c.25-.12.5-.24.75-.37,9.29-5.17,10.45-10.18,10.68-20.25-.06-5.2.25-10.19-.17-15.39h0ZM31.24,84.68c3.87-4.32,9.47-7.12,15.25-7.78,1.63-.2,3.29-.21,4.93-.03.29.01.57.12.89,0h0s.02,0,.03-.01c.03,0,.06-.02.09-.04.02,0,.04-.02.05-.04.02,0,.04-.02.04-.04.07-.07.09-.16.08-.25-.86-7.57,3.53-14.93,9.71-18.98,7.3-4.74,16.8-4.74,24.82-1.91,3.56,1.21,7.03,3.29,10.95,3.25.04,0,.09.03.13.04,3.61.78,7.33,1.2,11.04,1.48,6.2.82,12.66,2.15,18.76,0,1.36-.46,1.04-2.52-.41-2.52-5.43-.08-10.78.38-16.2.05-4.11-.44-8.08-1.61-12.18-2.17-1.68-1.94-2.97-4.24-3.72-6.72-2.79-8.82,1.23-17.22,8.39-22.58,3.52-2.73,7.55-4.9,11.55-6.93,1.4-.69,3.26-1.81,4.67-1.32.14.17.15.25.15.59,0,.48-.18,1.23-.22,2.26-.07,1.04.34,2.37.94,3.21,4.01,5.24,10.58,7.58,16.25,10.25,4.37,2.03,8.42,4.18,11.12,8.14.3.38.71.88,1.39,1.29,1.15.69,2.38.63,3.45.54,2.87-.2,5.76,0,8.58.59,11.32,2.29,21.6,10.4,25.83,21.28.07.21.19.4.33.56-2.58,3.45-5.21,6.79-7.98,10.11-1.52,1.87-2.97,3.9-4.82,5.53-5.56,4.71-12.76,7.41-19.99,7.82-4.71.69-9.62,1.18-14.22,2.56-1.26.36-1.32,2.21-.09,2.67,4.97,1.85,10.53,2.18,15.63.68,2.58-.79,4.87-2.31,7.15-3.67,2.26-1.29,4.43-2.68,6.5-4.17,4.11-3.08,8.32-5.9,12.19-9.3,3.16-3.26,5.56-7.33,6.67-11.75.1,0,.2,0,.3,0,9.06-1.33,18.75,3.34,24.11,10.82,1.78,2.42,3.1,5.19,3.87,8.15-.46,2.6-1.39,5.1-2.64,7.41-6.5,11.77-18.96,18.37-31.38,22.35-2.02.75-5.53,1.67-7.59,2.31-1.41.34-4.35,1.07-5.78,1.41-1.07.22-4.78.94-5.83,1.16-24.98,4.22-50.5,3.21-75.72,1.65-18.36-1.41-37.43-3.88-53.83-12.72-2.16-1.33-4.11-2.93-5.56-4.85-4.6-5.87-2.62-15.04,2.3-20.37h0ZM158.96,205.3c-3.16,5.3-10.09,4.26-15.97,4.9-17.24,1.53-34.6,1.62-51.84.29-6.17-.13-11.48-.39-12.84-7.5-.18-.83-.3-1.7-.41-2.58,22.61,8.48,49.59,7.82,72.53,2.41,2.94-.69,5.87-1.46,8.76-2.37,0,.03.02.05.04.08.84,1.51.57,3.3-.26,4.78h-.01ZM205.94,147.95c-5.89,8.63-12.73,16.97-19.29,25.05-6.72,7.86-13.7,15.26-22.76,20.38-18.39,10.27-40.77,12.34-61.41,9.7-23.71-2.95-36.9-13.78-52.88-30.46-3.64-3.8-7.2-7.74-10.82-11.67-3.57-3.85-6.91-7.76-9.64-12.22-2.13-3.5-3.88-7.3-4.58-11.41,8.76,5.28,20.38,7.71,31.44,9.89,15.64,2.89,31.33,6.13,47.27,7.33,13.33,1.04,26.76.2,40.02-1.22,18.51-1.98,36.9-5.91,54.48-12.03,2.95-1.02,6.04-2.18,9.01-3.38.04,0,.09,0,.13-.01,1.84-.49,3.69-.99,5.52-1.74-1.84,4.16-4.03,8.07-6.49,11.8h0ZM221.85,114.96c-.43,8.49-1.27,11.16-7.82,16.71-1.76,1.65-3.79,2.79-5.85,4.14-18.75,5.7-38.27,8.63-57.66,11.05-10.27,1.13-21.01,2.38-31.3,2.73-20.97.7-41.74-3.43-62.28-7.25-10.02-2-20.38-4.49-29.26-9.35-9.08-4.77-13.56-13.9-13.41-24.06.09-3.69.58-7.52,1.92-10.99,2.23-4.74,6.17-8.81,10.76-11.53-3.25,4.83-4.65,11.04-2.71,16.64,2.52,7,9.68,10.69,16.16,13.1,15.37,5.77,31.61,7.31,47.71,9.12,4.74.49,11.37,1.32,16.05,1.72,18.82,1.9,38.03,2.28,56.7-1.1l4.01-.75c1.24-.29,4.81-1.1,5.97-1.39,1.35-.36,4.48-1.28,5.9-1.68l3.88-1.3c11.48-4.01,23.25-9.58,30.75-19.53,2.52-3.24,4.51-6.92,5.6-10.88.3-1.14.5-2.3.62-3.47.05,0,.1-.04.12-.07,2.38,4.18,3.2,8.67,3.66,13.25.65,4.85.68,10,.49,14.9h0Z"/>
          <path class="cls-1" d="M90.14,107.24c-2.13-.41-4.37-1.1-6.04-2.5-3.99-4.2-.08-9.89-.08-14.81,0-1.6-.31-3.26-1.24-4.72-.35-.49-.71-1-1.23-1.31-.58-.31-1.32-.21-1.78.3-.57.67-.81,1.68-1.04,2.68.17-1.74-.2-3.53-1.06-5.06-.28-.51-.68-1.14-1.28-1.49-.84-.54-2.19-.35-2.68.65-.03.06-.05.11-.07.16-.66-.91-1.55-1.65-2.57-2.13-1.65-.81-3.9-.97-3.92,1.44.14,2.09.73,4.01,1.62,5.88.24.55.58.9.44,1.38,0,.01,0,.01,0,.01-.28-.06-.57-.47-1.07-.75-.8-.47-1.76-.63-2.66-.44-.27.02-.62.32-.65.6-.04.15,0,.31.03.42.09.3.2.64.33.92.89,1.92,2.66,3.25,4.45,4.24,1.32.73,2.79,1.38,3.65,2.61.21.33.49.86.44,1.22-.12.12-.46.01-.65-.07-4.13-1.78-7.49-4.99-9.61-8.94-.83-1.38-1.84-3.05-3.52-3.49-.55-.07-.96.47-.93.95-.22,2.02,1.39,3.94,1.16,5.88-1.31-1.37-2.6-2.84-3.77-4.33-.43-.49-.77-1.17-1.5-1.47-1.1-.44-2.05.73-2.01,1.65-.07.97.8,1.81,1.31,2.44.07.09.13.19.17.28-1.82-.78-3.71-1.44-5.61-1.98-.74-.28-1.57.35-1.62,1.07-.25,1.44.5,2.96,1.55,3.84.22.22.47.4.73.57-.15,0-.29,0-.44.01-.66.06-1.47.28-1.99.86-.69.71-.61,1.97.03,2.67.83.96,1.92,1.25,3.02,1.66.57.2,1.13.35,1.69.47-1.43.46-1.9,1.73-1.26,3.22.78,1.73,2.27,2.51,3.96,2.76-.39.13-.77.29-1.12.51-.98.54-1.49,1.67-.4,2.41.6.38,1.24.73,1.9,1.02-.76.84-.8,2.07.44,3.05,4.68,3.34,11.17,3.67,16.21,1.04,2.29-1.2,4.18-2.92,5.96-4.74,1.51-1.61,3.52-3.6,5.87-2.98,1.58,1.53,3.98,2.31,6.8,2.57.14.01.16-.2.03-.22h.02ZM75.08,108.98c-2.51,2.06-5.43,3.62-8.68,3.91-3.5.36-7.2-.58-10.03-2.66-.25-.2-.33-.39-.31-.4,0-.04,0-.03.03-.06.24-.27.74-.36,1.1-.46.38-.11.7-.54.67-.94-.02-.54-.42-.83-.89-.96-.17-.07-.63-.24-.81-.33-.4-.17-.79-.37-1.18-.58,1.03-.31,2.49-.3,3.82-.44,2.18-.19,6.33-.49,8.47-.71,3.39-.5,3.06-4.11-.28-4.27-2.62-.36-5.35.38-7.78.87-2.23.37-5.69,1.2-6.67-1.2,1.04-.36,2.9-.94,3.84-1.25,1.02-.3.99-1.85-.07-2.1-1.13-.38-2.61-.65-3.86-.81-1.28-.3-2.82-.62-3.84-1.43,0,0,0-.01,0-.02,0,0,0,0,.02-.01.36-.19.91-.17,1.4-.17.98,0,1.93.26,2.88.46,1.12-.02,1.2-1.33.69-2.06-.44-.71-1.23-1.1-1.88-1.37-1.24-.44-2.52-1.38-2.79-2.5,0-.07.06-.14.13-.12,1.9.5,3.77,1.21,5.6,1.89,1.87.17,1.59-2.1.7-3.02-.44-.6-1.44-1.2-.95-1.91.29,0,.71.7,1.02,1.01,1.31,1.55,2.73,3.05,4.19,4.45.41.43,1.22.31,1.45-.27.32-1.02,0-2.1-.3-2.95-.41-1.19-1.02-2.27-.95-3.51,0-.12-.02-.24.07-.23.62.22,1.2.67,1.65,1.19,1.49,1.8,2.42,4.07,4.06,5.79,1.86,2.1,4.11,3.85,6.64,5.06.36.17.81.42,1.23.45.72.1,1.18-.57.98-1.21-.73-2.96-4.28-3.71-6.2-5.53-.91-.79-1.7-1.73-2.08-2.87.88,0,1.4.47,2.19,1.13.54.44,1.63.3,2.03-.28.33-.46.41-1.18.25-1.7-.86-2.09-1.69-4.12-1.73-6.38,0-.08,0-.17.04-.22h.02c1.72.23,3.23,1.6,3.75,3.24.28.73.09,1.54.65,2.24,2.15,2.05,2.53-2.16,2.18-3.54,0-.04,0-.07,0-.1,0,0,.02.02.04.04,1.6,1.96,1.41,4.44,1.02,6.83-.05.74.04,1.73.64,2.5,1.23,1.28,2.55-1.29,2.74-2.17.4-1.3.36-2.5.87-3.64.04-.08.15-.1.2-.04,1.05,1.13,1.46,2.71,1.52,4.32.05,2.94-1.13,5.83-1.27,8.84-.15,2.55.49,4.44,1.7,5.79-3.19-.73-5.6,2.68-7.91,4.42h0Z"/>
          <path class="cls-1" d="M127.06,90.75c-.02-.3-.11-.78-.56-1.18-.33-.28-.76-.37-1.09-.38-1.81-.11-3.63.09-5.37.57.54-1.04.75-2.23-.36-2.83,1.23-.76,3.18-2,3.4-3.83.23-1.38-.76-2.13-1.91-2.09,1.12-.96,2.36-2.57,1.82-4.2-.36-.73-1.2-.91-1.89-.58-.06.02-.12.04-.2.07.49-1.1.83-2.26.99-3.45.12-.78-.5-1.57-1.3-1.64-2-.05-3.45,1.41-4.58,2.99.01-.27.03-.51.04-.67,0-.57.12-1.14.02-1.76-.18-1.2-1.39-1.4-2.15-.81-2.05,1.36-2.24,3.82-2.64,6.07-.2-.86-.47-1.7-.8-2.52-.15-.35-.25-.79-.81-.86-.34,0-.52.17-.64.28-.91.91-1.55,2.06-1.93,3.26-1.09,3.18-.44,6.48-.6,9.71-.06.78-.17,1.55-.43,2.29-.1.31-.11.32-.24.37-.12.01-.19,0-.3-.17-1.51-3.54,1.95-12.41-1.18-14.52-.44-.18-.89-.07-1.2.22-.02-1.94-.49-3.88-1.64-5.47-1.92-1.68-3.13,1.36-3.62,2.79-.28.78-.48,1.59-.6,2.4-.07-.09-.14-.18-.22-.27-.38-.41-1.1-.6-1.58-.33-.23.09-.46.33-.58.53-1.39,2.13-1.18,4.49-.33,6.7-.39-.27-.83-.47-1.33-.57-.65-.17-1.34.39-1.33,1.05.01.75.09,1.52.22,2.26.52,3.05,2.05,5.93,4.19,8.05,1.03,1.08,2.1,2.06,3,3.16,3,3.31,2.76,8.12,1.04,12.07-.06.12.15.2.2.09,1.37-2.6,2.13-5.67,1.53-8.69-.09-.5-.22-.98-.41-1.44,2.9.64,5.54,2.1,8.22,3.41,2.89,1.31,7.31,3.58,10.36,1.46,1.29-1.4-.38-2.71-1.62-3.14-.2-.09-.44-.2-.68-.31,1.09.04,2.19.11,3.31,0,1.33-.17,4.19-.73,3.7-2.68-.2-.54-.52-.87-.96-1.07,1.62-.99,3.03-2.33,3.04-4.33h0ZM123.71,92.89c-.89.72-2.03,1.25-3.21,1.84-.52.25-.7.91-.38,1.38.47.69,1.26.86,1.94.8.08,0,.16-.02.22-.03-1.02.34-2.23.36-3.47.33-.75-.01-1.82-.02-2.56.07-1.2.16-1.6,1.62-.44,2.21.69.31,1.59.66,2.29.95.54.25,1.07.35,1.32.81,0,.04,0,.06-.06.13-4.29,2.44-12.46-3.79-17.8-4.29-.95-2.19-2.77-3.99-4.32-5.72-2.16-2.37-3.51-5.39-3.67-8.58.16.1.3.22.46.36.91.81,1.47,2.26,2.83,3.42.53.48,1.38.05,1.58-.57.34-.96-.35-1.8-.78-2.55-1.18-1.84-2.24-4.36-1.7-6.43.15,1.26.54,3.01,2.07,4,.7.49,1.73-.25,1.46-1.08-.91-2.89-.37-6.43.94-8.89,1.18,1.91,1.39,4.23,1.11,6.44-.02.48.01,1.06.28,1.6.23.52,1.05.49,1.24-.06.2-.52.38-1.04.54-1.57.1-.36.28-.99.38-1.39.28.34.5.99.56,1.52.41,3.12-.38,6.43-.15,9.64.16.96.02,2.33.97,2.93.61.3,1.27-.19,1.36-.77,1.17-3.9-.38-8.17,1.03-12.01.36-1.11,1.06-2.24,1.84-2.95,0-.01,0-.02-.01-.03h.04l-.02.02s0,.01.01.02c.44,1.06.75,2.22.94,3.36.07.39.12.83.16,1.22.09.55.87.56,1,.07.99-2.41.54-5.98,3.08-7.25v-.04s.03.02.05.02c-.01,0-.03,0-.04.02.09.36-.06,1.17-.07,1.57l-.15,1.61c-.03.28-.08.92-.11,1.2-.09.75.93,1.23,1.45.64,1.14-1.55,2.31-3.52,4.24-4.01-.3,1.62-.97,3.16-1.95,4.48-.1.07-.27.64-.15.87.12.41.58.71,1.01.66.4-.08.75-.23,1.12-.34l.73-.24c-.82,1.55-2.9,2.08-4.03,3.86-.23.35-.22.93.02,1.27.3.52,1.04.7,1.58.44.75-.28,1.54-.5,2.33-.67-.43.84-1.36,1.26-2.36,1.92-3.78,2.26-8.26,4.9-9.24,9.76-.21.99.87,1.57,1.74,1.44.81-.08,1.52-.65,1.97-1.15,1.31-1.72,2.48-3.4,4.04-4.72-.03.09-.05.18-.07.28-.22.85.57,1.84,1.44,1.82.38.01.64-.08.94-.18,1.76-.72,3.67-1.07,5.58-1.07h.04c-.17.62-.63,1.14-1.18,1.59v.02Z"/>
          <path class="cls-1" d="M109.61,74.45l-.02.02s0-.02-.01-.03h.04-.01Z"/>
          <path class="cls-1" d="M114.83,71.86s-.03,0-.04.02v-.04s.03.02.05.02h0Z"/>
        </g>
        <g>
          <g>
            <path class="cls-1" d="M144.87,19.37l2.55-2.86c1.12,1.39,2.92,2.67,4.77,3.27,1.87.6,2.77.31,3.02-.47.81-2.54-8.87-3.6-6.97-9.54.91-2.86,3.99-4.44,8.74-2.92,2.08.67,4.07,1.83,5.36,3.25l-2.47,2.91c-1.27-1.31-2.64-2.21-4.04-2.65-1.9-.61-2.79-.19-3.04.61-.78,2.44,8.87,3.52,6.99,9.42-.89,2.79-3.98,4.42-8.74,2.9-2.63-.84-5.01-2.38-6.18-3.92h.01Z"/>
            <path class="cls-1" d="M171.62,27.46l-6.5-2.88-2.53,2.45-4.43-1.96,13.59-12.36,4.28,1.9v18.38l-4.52-2,.12-3.52h-.01ZM171.77,23.69l.2-5.79-4.15,4.04,3.95,1.75h0Z"/>
            <path class="cls-1" d="M180.21,26.84l4.73-8.02,4.09,2.41-4.66,7.9c-1.46,2.48-1.01,4.08.7,5.09,1.7,1,3.31.62,4.78-1.87l4.66-7.9,4.03,2.38-4.73,8.02c-2.55,4.32-6.5,5.25-10.78,2.73s-5.38-6.43-2.83-10.75h0Z"/>
            <path class="cls-1" d="M196.76,35.71c3.09-4.08,8.4-4.6,12.65-1.38,2.47,1.87,3.78,4.28,3.84,6.89l-4.06.35c-.07-1.65-.69-2.99-1.97-3.96-2.2-1.67-4.89-1.3-6.63,1-1.74,2.3-1.37,4.99.83,6.66,1.28.97,2.74,1.2,4.35.83l.76,4.01c-2.53.64-5.21.03-7.67-1.84-4.25-3.22-5.18-8.47-2.09-12.55h0Z"/>
            <path class="cls-1" d="M218.31,60.34l-2.57,2.63-9.65-9.42,11.74-12.02,9.43,9.2-2.57,2.63-6.06-5.92-1.98,2.03,5.34,5.21-2.48,2.54-5.34-5.21-2.15,2.2,6.29,6.14h0Z"/>
            <path class="cls-1" d="M217.62,62.71l3.75-.82c.09,1.78.8,3.88,1.95,5.45,1.17,1.58,2.07,1.88,2.72,1.39,2.15-1.58-5.09-8.12-.06-11.82,2.42-1.78,5.84-1.26,8.8,2.76,1.3,1.76,2.23,3.88,2.44,5.78l-3.71.91c-.26-1.81-.85-3.34-1.72-4.52-1.18-1.6-2.15-1.79-2.83-1.29-2.07,1.52,5.13,8.06.14,11.73-2.36,1.74-5.82,1.25-8.78-2.78-1.64-2.22-2.66-4.87-2.71-6.8h0Z"/>
          </g>
          <path class="cls-1" d="M135.46,9.08c-.1-1.63,1.03-2.76,2.57-2.85,1.56-.1,2.8.89,2.89,2.52.1,1.58-1.01,2.78-2.56,2.87-1.53.09-2.8-.96-2.9-2.54h0Z"/>
          <path class="cls-1" d="M235.64,77.43c-.1-1.63,1.03-2.76,2.57-2.85,1.56-.1,2.8.89,2.89,2.52.1,1.58-1.01,2.78-2.56,2.87-1.53.09-2.8-.96-2.9-2.54h0Z"/>
        </g>
      </g>
    </g>
  </g>
</svg>