<?xml version="1.0" encoding="UTF-8"?>
<svg id="Calque_2" data-name="Calque 2" xmlns="http://www.w3.org/2000/svg" viewBox="0 0 189.32 259.77">
  <defs>
    <style>
      .cls-1 {
        fill: #7fae69;
      }

      .cls-1, .cls-2 {
        stroke-width: 0px;
      }

      .cls-2 {
        fill: #f8f4e8;
      }
    </style>
  </defs>
  <g id="Calque_2-2" data-name="Calque 2">
    <g>
      <path class="cls-2" d="M70.56,28.76c5.21-1.64,11.23.55,15.87,3.72,5.19,3.55,9.6,8.3,15.31,10.94,6.9,3.18,14.93,2.92,22.05,5.58,6.13,2.29,11.75,8.58,10.96,14.59-.23,1.72-1.47,3.14-3.09,3.78-3.28,1.29-6.67,2.28-10.13,2.95-1.37.27-1.98,1.88-1.11,2.98l45.31,56.93c12.78,16.06,26.33,34.79,23.11,55.06-3.93,24.75-26.79,45.87-51.71,48.45-.68.07-.96.91-.47,1.39,4.09,3.97,4.96,11.08,1.58,15.76-3.42,4.74-10.58,6.12-15.65,3.34-.79-.43-1.79-.21-2.31.53-3.9,5.58-12.84,5.76-19.81,4.1-19.52-4.66-36.79-16.57-50.37-31.35-13.58-14.78-23.73-32.38-32.55-50.41-4.89-10.01-9.43-20.25-12.31-31.02-2.18-8.17-3.39-16.57-4.59-24.94-.81-5.66-1.46-12,1.96-16.58,2.84-3.81,8.34-5.28,12.76-3.64.5.19,1.01-.3.85-.81-1.86-5.97,1.9-13.31,7.94-15.09.42-.12.74-.47.79-.91l2.04-17.82c.31-2.72.62-5.45.71-8.19.3-9.49-2.1-18.86-2.46-28.35-.39-10.29,2.22-21.67,11.22-27.27,5.68-3.53,13.06-3.36,18.16.96,6.47,5.48,3.42,12.55,4.78,18.97,1.04,4.94,6.3,7.9,11.12,6.38l.04-.03Z"/>
      <g>
        <g>
          <g>
            <path class="cls-1" d="M159.62,210.27c-1.31,1.14-3.25,2.54-4.64,3.6-2.32,1.76-4.93,3.46-7.61,4.74-2.75,1.36-5.6,2.53-8.72,3-4.18.67-8.31.17-12.17-.55-3.88-.73-7.69-1.62-11.44-2.82-20.99-6.87-31.95-19.63-44.22-37.09-2.23-3.21-3.86-6.85-5.52-10.35-1.64-3.47-3.29-6.94-4.95-10.4-3.52-6.87-5.89-14.32-8.23-21.67-3.41-11.01-6.36-22.14-9.5-33.22-.84-3.05-1.91-6-2.52-9.13.26-.23.5-.49.73-.76,1.59,2.97,2.46,6.21,3.5,9.37,1.16,3.67,2.26,7.35,3.37,11.02,3.92,12.79,7.28,25.79,12.49,38.12,3.29,6.84,6.81,13.74,10.3,20.49,2.67,4.99,6.47,9.25,10.02,13.64,7.15,8.68,15.44,16.49,25.63,21.42,5.84,2.92,12.06,5.01,18.44,6.38,4.41,1,9.15,1.9,13.47,1.34,2.6-.3,5.17-1.28,7.6-2.41,3.35-1.44,6.5-3.67,9.5-5.8,12.31-8.29,18.82-24.18,15.71-38.75-3.32-15.78-14.47-28.87-24.08-41.42-6.38-8.38-12.88-16.67-20.06-24.37-5.73-6.49-11.05-13.37-16.2-20.32l-6.86-9.24c-2.14-2.8-4.19-5.66-5.91-8.81.13-.15.27-.3.4-.46,5.05,4.3,10.25,12.02,14.3,17.05,5.24,6.82,10.46,13.67,16.12,20.15,8.26,8.81,19.65,23.94,27.2,33.61,7.89,10.3,15.6,21.65,18.06,34.69,2.55,14.28-3.1,29.59-14.2,38.94h0Z"/>
            <path class="cls-1" d="M49.73,18.17c3.14-2.28,3.02-7.22-1.45-8.69-3.12-1.01-6.4-.94-9.35.59-1.96,1.22-2.54,2.52-2.26,3.75-.13.88-.47,1.72-.59,2.6-.59,3.08-1,6.13-1.71,9.19-3.61,16.03,7.52,17.75,6.84,29.41-.18,2.92-1.86,5.76-3.3,8.27-1.54,2.85-2.4,6.14-2.62,9.35-.29,4.31.27,8.54.93,12.66.27,1.42.48,3.01.45,4.45,0,1.12.05,3.1-.54,3.86-1.91,2.12-5.37-.11-7.95.25-1.17.05-2.39.68-3.33,1.2-.8.43-1.58.55-1.92.35-.28-.16-.63-.21-.97-.09-.59.22-.9.87-.68,1.47.67,1.86,2.64,2.14,3.85,1.81,1.25-.33,2.09-.96,2.82-1.22.79-.31,1.38-.15,2.24.03.93.21,1.91.45,2.94.61,2.14.35,4.57.23,6.42-1.16.19-.15.38-.31.56-.49.26-.23.5-.49.73-.76,1.64-1.96,2.38-4.61,2.88-6.96.45-1.36,1.98-2.96,1.78-4.73-.83-4.17.19-8.17.85-12.32.55,2.88,1.17,5.75,1.9,8.6,1.42,5.55,3.34,10.97,5.92,16.09,2.37,4.69,5.34,9.01,8.16,13.43.57.88,1.06,1.82,1.75,2.61.69.79,1.64,1.43,2.69,1.48s2.16-.65,2.33-1.7c.09-.56-.1-1.14-.35-1.65-.66-1.41-1.76-2.64-2.08-4.16-.41-1.94.55-3.93.41-5.92-.16-2.27-1.66-4.04-2.84-5.88-.99-1.55-.69-3.54.5-4.97,1.38-1.66,3.51-3.33,3.75-5.78.47-3.32-1.59-6.7-1.34-9.72.12-1.96.93-4.01,1.18-6.4.17-1.8,0-3.58-.39-5.29.47.1.97.27,1.46.48,3.19,1.55,6.48,3.38,9.72,4.89,2.24,1.06,4.5,2.22,7.02,2.53,4.19.57,8.71-.88,11.62-3.97.13-.15.27-.3.4-.46.24-.28.47-.57.67-.87.71-1.14,1.58-2.12,3-2.56,1.07-.35,2.29-.39,3.45-.2,2.37.45,4.83,2.05,7.35,1.11,1.78-.52,3.16-1.5,4.87-1.28.45.07.77.25.95.49.35.37.9.36,1.34.11,2.46-1.28,1.38-4.49-.92-5.04-1.38-.43-2.86-.15-4.1.35-1.96.73-3.4,1.9-5.4,1.44-3.45-.93-6.6-3.35-10.2-.69-.92.56-1.28.67-2,.47-2.53-.95-4.75-4.05-6.49-6.14-5.06-5.64-11.99-12.37-20.3-10.21-1.7.45-2.93,1.41-4.49,1.81-1.58.35-2.86-.3-4.66-.25-1.8.03-2.93.89-4.35.15-7.71-5.76-12.79-17.24-7.44-26.12.09-.05.17-.11.25-.17M39.65,11.36c3.04-1.58,11.5-.94,10.28,4-.88,3.95-5.83,2.12-8.27.79-1.08-.57-2.42-1.46-3.2-2.3-.71-.87.35-2,1.19-2.49h0ZM110.6,62.53c-1.79.13-3.43-.74-5.25-.95-1.22-.19-2.46-.33-3.77-.21-1.34.14-2.72.77-3.56,1.9-.41.53-.65.93-1.07,1.4-1.1,1.3-2.47,2.35-4,3.11-2.04,1-4.39,1.47-6.66,1.15-2.26-.27-4.35-1.5-6.51-2.58-2.14-1.1-4.24-2.29-6.31-3.53-2.3-1.3-4.57-3.24-7.55-2.86-.64.19-.98.89-.75,1.52.64,1.96,1.02,3.99.87,5.98-.13,1.98-.91,4.08-1.03,6.49-.23,3.33,1.84,6.36,1.6,9.57-.43,3.27-4.65,4.82-4.53,8.49-.08,3.39,2.46,6.11,1.82,9.46-.17,1.01-.53,2.13-.43,3.4.14,1.92,1.41,3.45,1.72,5.17-.4-.36-.8-.84-1.21-1.28-1.98-2.2-3.75-4.59-5.33-7.08-4.26-6.69-6.98-14.22-9.17-21.8-1.09-3.82-1.98-7.7-2.77-11.6-.05-.2-.21-.36-.42-.39-.27-.03-.53.16-.56.44-.67,4.98-2.73,10.2-1.98,15.45.17,1.66-1.22,2.58-1.78,4.29-.38,1.06-.49,2.02-.79,2.85-.95,2.62-2.13,4.07-3.65,4.72,1.4-1.37,1.6-3.62,1.48-5.88.03-1.54-.21-3.3-.52-4.83-.69-4.06-1.26-8.13-1.02-12.13.19-3,.83-5.9,2.2-8.57,1.5-2.74,3.17-5.84,3.3-9.05.17-2.2-.18-4.45-.98-6.48-1.58-4.09-4.44-7.25-6.01-10.96-2.11-4.75-1.07-10.08-.12-15.01.33-2.06.57-4.12.93-6.16.13-.53.19-1.09.31-1.62.72,1.15,2.1,2.19,3.61,2.99,2.19,1.07,4.56,1.54,7,1.18.13-.03.25-.07.36-.11-2.33,4.52-2.36,10-.83,14.79,1.73,4.74,4.78,9.04,8.79,12.11,1.48,1.06,3.84.21,5.19.17.91,0,1.94.29,3.14.41,2.28.35,4.47-1.3,6.48-1.82,1.89-.5,3.95-.33,5.86.27,4.97,1.61,8.67,5.76,12.08,9.6,1.24,1.59,2.87,3.74,4.39,5.08,2.01,1.87,4.65,3.17,7.32,1.34,1-.62,1.49-.84,2.29-.8,1.94.15,3.85,1.47,5.96,1.91,1.27.38,2.63.16,3.93-.26-.65.36-1.34.64-2.1.71h.03Z"/>
          </g>
          <path class="cls-1" d="M62.6,62.96c.33,1.89.15,3.7-.14,5.52-.21,1.7-.95,3.29-.58,5.03.37,2.14,2.05,4.13,1.9,6.45-.05,4.35-3.56,6.98-4.59,10.94-.03.12-.21.15-.26.03-1.68-3.57,1.08-7.35,2.29-10.51.73-2.16.66-4.52-.17-6.69-.73-1.76-1.54-3.8-.92-5.72.48-1.84,1.1-3.5,2.21-5.11.07-.1.24-.07.26.06h0Z"/>
          <path class="cls-1" d="M85.22,56.22c.89.42,1.67,1.02,2.1,1.88.18.42.24.98.52,1.35.56.8,1.7.82,2.46,1.27,1.36.56,2.25,1.28,3.27,2.55.05.06.02.17-.06.19-1.1.32-2.15.13-3.07-.29-.67-.35-1.24-.88-1.73-1.46-.43-.6-.72-1.39-1.32-1.82-.37-.3-.94-.45-1.36-.76-.41-.31-.64-.77-.83-1.24-.17-.48-.26-1.01-.15-1.6.01-.08.1-.13.18-.09h0v.02Z"/>
          <path class="cls-1" d="M68.69,150.23c8.81,12.06,18.31,23.57,29.01,33.94,2.68,2.54,5.48,4.95,8.5,7.03,3.04,2.06,6.35,3.62,9.55,5.17,3.19,1.57,6.36,3.09,9.72,4.29,3.35,1.21,6.85,2.07,10.66,2.75.08.01.13.08.11.16-3.54,1.63-7.82,1.75-11.76,1.3-3.91-.52-7.8-1.74-11.25-3.66-3.46-1.91-6.43-4.49-9.36-6.95-8.81-7.27-16.62-15.59-23.48-24.69-4.5-6.07-8.54-12.47-11.93-19.19-.07-.14.14-.27.23-.14h0Z"/>
          <path class="cls-1" d="M161.67,184.33c.15-2.97.42-5.83.83-8.75.23-1.43.61-2.9.58-4.38-.09-2.99-1.7-5.59-2.84-8.25-1.67-3.2-3.4-6.31-5.29-9.4-1.73-2.58-1.72-2.69.99-.94,5.28,3.79,7.55,9.95,7.72,16.26.11,2.31.83,4.52,1.06,6.83.06,1.56-.24,3.1-.66,4.59-.5,1.49-1.17,2.9-2.15,4.13-.08.1-.26.04-.25-.1h.01Z"/>
        </g>
        <g>
          <path class="cls-1" d="M11.64,111.99c-.09-1.63,1.05-2.75,2.59-2.83,1.56-.09,2.79.9,2.88,2.53.09,1.58-1.03,2.77-2.58,2.86-1.53.08-2.79-.98-2.88-2.56h0Z"/>
          <path class="cls-1" d="M124.19,244.26c-.12-1.63,1-2.77,2.53-2.88,1.56-.11,2.81.85,2.92,2.48.12,1.58-.98,2.79-2.53,2.9-1.53.11-2.81-.93-2.93-2.51h0Z"/>
          <g>
            <path class="cls-1" d="M33.2,134.32l-18.24-1.3-1.53-4.42,13.53-12.29,1.68,4.85-8.85,7.9,11.87.81,1.54,4.45h0Z"/>
            <path class="cls-1" d="M25.59,152.3l-3.46,1.22-4.49-12.72,15.84-5.59,4.39,12.43-3.46,1.22-2.82-7.99-2.67.94,2.48,7.04-3.35,1.18-2.48-7.04-2.9,1.02,2.92,8.28h0ZM37.27,141.84l-1.09-3.08,4.51,1.82,1.52,4.3-4.94-3.04Z"/>
            <path class="cls-1" d="M35.26,163.31l1.53,3.91-6.48,2.53c-2-1.3-3.67-3.51-4.56-5.8-1.95-4.99,0-9.95,4.77-11.81,4.76-1.86,9.56.47,11.54,5.54,1.14,2.93,1.06,5.69-.19,7.96l-3.65-1.82c.77-1.54.84-2.98.26-4.48-1.05-2.68-3.51-3.78-6.22-2.72-2.64,1.03-3.77,3.53-2.74,6.17.32.83.78,1.55,1.45,2.19l4.29-1.68h0Z"/>
            <path class="cls-1" d="M39.13,184.55l-3.33,1.55-5.7-12.22,15.23-7.1,5.57,11.94-3.33,1.55-3.58-7.68-2.57,1.2,3.16,6.76-3.22,1.5-3.16-6.76-2.78,1.3,3.71,7.96h0ZM49.74,173.01l-1.38-2.96,4.67,1.37,1.93,4.13-5.21-2.55h-.01Z"/>
            <path class="cls-1" d="M50.57,185.89l-2.59-4.46,3.26-1.89,7.54,13.02-3.26,1.89-2.57-4.44-11.28,6.53-2.38-4.11,11.28-6.53h0Z"/>
            <path class="cls-1" d="M54.82,209.93l-4.27-5.68-3.4.91-2.91-3.87,17.88-4.17,2.81,3.74-8.95,16.04-2.97-3.95,1.81-3.02ZM56.78,206.71l3-4.96-5.59,1.51,2.6,3.45h-.01Z"/>
            <path class="cls-1" d="M66.7,220.98l-1.9-1.77-3.04,3.27-3.48-3.24,11.45-12.29,5.62,5.23c3.35,3.12,3.84,6.83,1.22,9.64-1.69,1.81-3.81,2.32-6.02,1.64l-.95,6.33-3.72-3.47.81-5.34h.01ZM72.59,214.73l-1.93-1.8-3.35,3.6,1.93,1.8c1.44,1.34,2.78,1.34,3.83.22,1.06-1.14.97-2.48-.47-3.82h0Z"/>
            <path class="cls-1" d="M82.41,218.03l3.92,2.69-9.5,13.85-3.92-2.69,9.5-13.85Z"/>
            <path class="cls-1" d="M94.64,240.03l-1.64,3.29-12.07-6.02,7.5-15.03,11.79,5.88-1.64,3.29-7.58-3.78-1.26,2.53,6.68,3.33-1.59,3.18-6.68-3.33-1.37,2.75,7.86,3.92h0Z"/>
            <path class="cls-1" d="M117.25,233.07l-4.39,16.21-3.77-1.02-4.82-10.58-2.34,8.64-4.49-1.22,4.39-16.21,3.77,1.02,4.82,10.57,2.34-8.64,4.49,1.22h0Z"/>
          </g>
        </g>
      </g>
    </g>
  </g>
</svg>