<?xml version="1.0" encoding="UTF-8"?>
<svg id="Calque_2" data-name="Calque 2" xmlns="http://www.w3.org/2000/svg" viewBox="0 0 255.92 212.93">
  <defs>
    <style>
      .cls-1 {
        fill: #b31;
      }

      .cls-1, .cls-2 {
        stroke-width: 0px;
      }

      .cls-2 {
        fill: #f8f4e8;
      }
    </style>
  </defs>
  <g id="Calque_2-2" data-name="Calque 2">
    <g>
      <path class="cls-2" d="M164.06,12.96C186.06,5.18,209.26.81,232.58.05c7.95-.26,16.89.26,21.34,7.99,2,3.48,2.45,7.64,1.56,11.55-2.07,9.07-9.7,14.94-17.86,18.35-6.61,2.76-13.71,4.14-20.59,6.14-10.53,3.07-20.62,7.64-29.87,13.54-.39.25-.56.74-.41,1.18,5.63,16.93,2.97,36.42-7.01,51.22-2.67,3.96-5.84,7.61-8.06,11.85-4,7.67-4.57,16.75-3.28,25.31.02.12.18.15.24.04,2.74-5.3,10.03-8.23,15.08-5.05,5.13,3.25,4.44,12.81-1.42,14.3-.04,0-.05.05-.03.08,4.46,5.65,1.33,14.06-2.88,19.93-9.92,13.85-24.88,23.6-40.96,29.21-16.09,5.61-33.31,7.31-50.34,7.24-9.26-.04-20.24-1.65-24.46-9.85-.05-.09-.16-.11-.24-.05-4.03,3.09-10.62,2.03-13.43-2.22s-1.18-10.89,3.36-13.32c2.12-1.13,5.18-3.44,3.34-4.98-17.09-3.29-32.15-14.45-41.84-28.9C5.13,139.16.56,121.65.04,104.26c-.16-5.38.06-10.84,1.47-16.03,3.61-13.3,14.53-23.33,26.01-30.95,8.13-5.39,16.88-10.02,26.34-12.42,10.68-2.71,21.91-2.5,32.66-4.88,17.76-3.93,33.17-14.6,49.71-22.17,7.76-3.55,16.83-6.41,24.65-3.15.31.13.67.06.88-.2.57-.72,1.4-1.16,2.3-1.48v-.02Z"/>
      <g>
        <g>
          <path class="cls-1" d="M163.69,23.6c-4-2.42-7.42-1-11.51.24-6.06,1.6-12.52,5.92-17.97,9-6.76,3.93-14.32,8.31-21.14,12.22-15.79,9.62-21.54,9.6-39.2,11.54-10.65,1.24-20.78,4.67-30.75,8.59-11.96,4.73-25.16,10.92-30.39,23.42-1.99,4.88-2.31,10.28-2.1,15.54.68,19.15,6.98,37.2,21.44,50.27,3.88,3.69,8.08,7.09,12.3,10.45,4.06,3.23,8.32,6.08,13.53,6.62,5.22.58,10.85-.02,16.2.62,8.21.78,15.91,2.64,23.99,2.66,13.03-.04,25.84-4.96,36-13.13,8.18-6.56,14.52-15.29,17.96-25.23,1.82-5,3.27-10.27,5.35-15.44,1.56-3.88,3.55-7.73,6.19-11.04,2.52-3.18,5.6-6.04,7.99-9.19,8.51-10.92,3.6-25.97,4.27-38.7.07-8.17,1.38-16.32,2.99-24.28.46-2.78-1.44-4.69-3.44-6.37-2.02-1.79-4.11-3.5-6.36-4.98s-4.66-2.72-7.18-3.7c-.09-.03-.13-.13-.1-.22.03-.08.13-.13.21-.1,2.57.9,5.06,2.06,7.39,3.49,2.34,1.42,4.52,3.08,6.62,4.81,2.29,1.77,4.46,3.95,4.04,7.16-1.86,10.66-2.88,21.44-1.89,32.25.94,10.72,2.9,23.23-4.18,32.41-2.83,3.94-6.29,7.04-8.92,11.01-4.85,7.32-6.45,15.83-9.3,24.18-1.74,5.28-4.21,10.47-7.39,15.07-11.14,16.32-30.47,26.83-50.28,26.82-8.25,0-16.52-2.05-24.47-3.01-8.14-1.11-17.16.45-24.55-4.13-2.5-1.46-4.7-3.23-6.79-5.01-4.14-3.55-8.25-7.16-12.09-11.1-14.24-13.89-20.62-32.58-21.64-52.08-.3-5.53-.14-11.24,1.81-16.54,5.06-13.5,18.81-20.81,31.31-26.11,10.1-4.21,20.76-7.85,31.73-8.96,10.71-1.14,21.38-1.37,30.97-6.6,9.42-4.93,19.3-10.29,28.75-15.19,4.85-2.5,9.61-5.23,14.79-7.05,2.61-.91,5.27-1.4,7.97-2.01,2.74-.67,5.71-.08,7.99,1.54.08.05.1.15.05.23-.05.07-.14.1-.22.06h0l.02-.03Z"/>
          <path class="cls-1" d="M165.16,23.52c2.75-3.64,7.58-4.65,11.61-6.15l2.49-.78c8.3-2.57,16.81-4.58,25.44-5.69,11.14-1.31,22.58-1.53,33.77-2.02,5.44-.66,5.15,3.76,6.2,7.69.84,3.43,1.45,5.87-1.99,8.08-1.91,1.44-3.5,3.96-5.75,5.38-2.33,1.51-5.23,1.91-7.82,2.62-4.85,1.21-10.19,2.56-14.95,3.94-13.2,3.65-26.01,8.77-36.68,17.58-.12.09-.29.08-.38-.04-.09-.1-.08-.25,0-.35,4.65-5.2,10.41-9.42,16.58-12.77,10.79-5.85,22.76-9.05,34.67-11.59,3.24-.76,6.35-.9,8.76-3.36,1.19-1.09,2.4-2.5,4.04-3.57.77-.49,1.34-.88,1.58-1.26.64-1.07.08-2.98-.04-4.31l-.35-2.57c-.37-2.84-.5-4.47-3.86-4.24l-2.59-.02c-10.35-.1-20.65,1.51-30.77,3.52-9.82,1.84-20.61,4.04-30.22,6.58-3.33.87-6.71,1.53-9.13,3.87-.16.16-.42.15-.57,0-.14-.14-.15-.37-.04-.53h0Z"/>
          <path class="cls-1" d="M178.71,33.5c4.35-3.85,9.55-6.74,15.04-8.59,4.81-1.44,11.89-2.84,16.82-4.12,5.61-1.33,11.36-2.13,17.11-2.46,2.74-.15,5.27.17,7.72-1.01,2.31-1.05,4.38-3.03,6.56-4.91.27-.26.76.11.55.45-3.65,6.52-7.19,8.86-14.65,8.97-4.23.21-8.46.38-12.67.83-4.91.42-9.88,1.03-14.55,2.66-2.65.94-5.23,2.07-7.84,3.12-1.81.69-4.07,1.59-5.84,2.37-2.61,1.05-5.11,2.32-7.76,3.44-.45.22-.91-.41-.5-.76h.01Z"/>
          <path class="cls-1" d="M236.2,18.41c1.16,1.15.96,2.75,1.42,4.18l.34,1.06c.65,1.14.48,2.37-.49,3.35-.09.09-.23.1-.33.02-.41-.33-.69-.65-.9-.97-.48-.63-.44-1.28-.37-2-.05-.68-.11-1.37-.37-2.01-.51-.92-.95-1.82-.99-2.92-.08-.89,1.12-1.37,1.68-.7h0Z"/>
          <path class="cls-1" d="M178.34,34.32c-12.68,8.09-24.81,20.4-25.46,36.25-.6,10.31,1.88,21.37-1.55,31.53-2.6,7.7-7.88,14.07-13.52,19.73-7.44,7.49-16.04,14.46-26.4,17.38-5.15,1.47-10.53,1.72-15.83,1.83-7.6.22-15.99-.12-23.62-.35-19.93-.47-29.26-2.03-42.59-18.04-26.72-31.63-26.8-32.32,2.01-1.82,13.52,14.89,21.48,15.68,40.74,16.93,4.66.34,11.04.77,15.62.88,7.73.14,15.59.42,23.08-1.57,7.45-2.02,13.96-6.42,19.74-11.5,7.49-6.81,15.06-14.46,18.15-24.31,3.01-10.11.31-20.45,1.27-30.9.67-10.88,6.86-20.7,15.04-27.61,4.04-3.44,8.49-6.33,13.16-8.71.08-.04.18,0,.22.07.04.08.01.17-.06.22h0Z"/>
          <path class="cls-1" d="M49.39,123.98c7.09-7.96,14.75-15.37,22.84-22.31,4.09-3.41,8.36-6.61,12.42-10.04,8.18-6.81,15.69-14.4,23.86-21.22,11.05-9.5,22.8-18.53,34.97-26.53,1.11-.73,2.23-1.46,3.36-2.17.13-.09.28.11.16.21-11.96,10.57-24.33,20.6-36.9,30.42-8.26,6.68-16.99,12.8-24.88,19.93-5.91,5.35-11.35,11.21-17.39,16.42-1.46,1.31-4.49,3.98-5.98,5.26-4.02,3.49-8.06,6.94-12.27,10.21-.12.1-.29-.08-.18-.19h-.01Z"/>
          <path class="cls-1" d="M76.16,129.66c3.69-4.65,7.83-8.88,12.33-12.72,2.28-1.87,4.74-3.56,6.96-5.5,4.48-3.85,8.16-8.54,12.43-12.61,2.1-2.07,4.19-4.15,6.39-6.12,4.42-3.91,8.96-7.69,13.87-11.06.06-.04.15-.03.19.03-5.37,7.03-12.03,13.19-18.74,18.99-4.4,3.93-9.36,7.23-13.56,11.39-2.11,2.06-3.99,4.38-6.04,6.5-2.05,2.13-4.29,4.05-6.55,5.94-2.28,1.88-4.6,3.71-7.11,5.34-.12.08-.28-.08-.18-.2h0v.02Z"/>
          <path class="cls-1" d="M105.2,128.24c1.2-2.44,2.93-4.6,5.02-6.32,1.07-.81,2.33-1.45,3.33-2.33,1.55-1.29,2.63-3.07,3.83-4.67,2.1-2.62,4.39-5.07,7.15-7.01,1.1-.79,2.23-1.55,3.5-2.16.11-.06.25.07.19.19-1.93,3.62-4.62,6.67-7.77,9.24-1.97,1.82-4.53,2.99-6.29,5.03-.9.99-1.55,2.24-2.38,3.3-1.28,1.56-2.87,2.83-4.56,3.93-.57.37-1.17.71-1.83,1-.11.05-.24-.08-.19-.19h0Z"/>
          <path class="cls-1" d="M39.07,109.01c3.08-4.2,6.62-7.98,10.53-11.39,1.99-1.66,4.15-3.13,6.07-4.85,3.89-3.42,6.96-7.65,10.63-11.28,5.37-5.63,11.13-10.77,17.58-15.21.06-.04.15-.03.19.04-2.88,4.3-6.73,8.06-10.32,11.77-1.84,1.81-3.78,3.51-5.72,5.22-3.8,3.5-8.18,6.36-11.78,10.08-1.81,1.84-3.38,3.93-5.13,5.84-1.75,1.9-3.69,3.61-5.65,5.29-1.99,1.65-4.01,3.28-6.23,4.69-.11.08-.27-.08-.18-.19h0Z"/>
          <path class="cls-1" d="M27.64,92.11c1.57-2.88,3.67-5.36,6.19-7.41,1.29-.97,2.76-1.74,4-2.76,1.9-1.48,3.37-3.46,5-5.24,1.69-1.72,3.44-3.39,5.34-4.88,2.58-1.91,5.32-3.64,8.4-4.86.12-.05.25.11.16.21-4.56,5.79-10.47,9.82-16.52,13.82-1.98,1.43-3.33,3.45-4.85,5.32-1.04,1.22-2.26,2.24-3.5,3.25-1.27,1.01-2.57,1.97-4.03,2.73-.11.06-.26-.07-.19-.19h0Z"/>
          <path class="cls-1" d="M125.65,44.09c2.02.54,3.72,1.69,4.99,3.29.57.83.94,1.83,1.55,2.61,1.18,1.61,3.15,2.47,4.45,3.99,1.43,1.42,2.55,3.07,3.27,4.96.36.94.67,1.92.78,2.99,0,.08-.05.15-.13.16-.51-.22-.92-.65-1.32-.98-1.84-1.6-3.39-3.46-4.59-5.58-1.11-1.56-1.6-3.64-3.09-4.95-.72-.66-1.69-1.06-2.49-1.62-1.18-.87-2.07-2.04-2.87-3.26-.26-.43-.52-.88-.72-1.4-.04-.11.06-.23.17-.2h0Z"/>
          <path class="cls-1" d="M110.93,54.11c3.21,1.83,5.99,4.26,8.3,7.12,1.6,2.23,2.92,4.65,4.89,6.59,6,5.63,11.41,12.05,14.06,20,.05.13-.13.25-.23.14-3.9-3.94-7.13-8.15-10.11-12.72-2.1-2.91-3.63-6.32-6.14-8.92-1.25-1.31-2.76-2.38-4.1-3.59-1.99-1.84-3.7-3.94-5.32-6.12-.54-.73-1.07-1.48-1.53-2.31-.07-.11.07-.26.18-.19h0Z"/>
          <path class="cls-1" d="M89.21,61.75c4.57,3.04,8.7,6.66,12.39,10.7,1.79,2.06,3.38,4.32,5.2,6.34,3.61,4.1,7.97,7.47,11.66,11.49,5.7,5.91,10.77,12.38,14.83,19.56.07.12-.1.27-.21.16-4.04-3.74-7.7-7.75-11.31-11.8-1.55-1.74-3.7-4.43-5.2-6.26-3.52-4.13-6.49-8.77-10.4-12.57-1.95-1.9-4.13-3.57-6.16-5.37-2.03-1.81-3.88-3.79-5.72-5.79-1.85-2.02-3.65-4.06-5.27-6.28-.09-.11.06-.28.18-.19h0Z"/>
          <path class="cls-1" d="M62.26,66.05c5.5,4.1,10.56,8.71,15.21,13.72,2.28,2.55,4.37,5.28,6.7,7.77,4.62,5.03,10.02,9.28,14.8,14.17,7.33,7.19,14.1,14.87,20.05,23.28.09.12-.09.29-.2.18-7.78-6.74-14.9-14.03-21.68-21.72-4.62-5-8.67-10.57-13.58-15.3-2.44-2.38-5.14-4.51-7.66-6.81-2.52-2.3-4.86-4.78-7.17-7.28-2.32-2.52-4.58-5.08-6.65-7.82-.09-.11.07-.29.19-.19h0Z"/>
          <path class="cls-1" d="M41.29,73.73c5.57,4.37,10.75,9.15,15.58,14.31,2.37,2.61,4.57,5.39,7.02,7.92,4.87,5.1,10.57,9.34,15.69,14.17,2.6,2.38,5.21,4.74,7.72,7.21,4.89,5.04,10.29,10.08,14.43,15.66-8.67-6.02-16.49-13.5-23.91-21.06-5-4.97-9.38-10.57-14.55-15.37-2.56-2.42-5.37-4.6-7.99-6.96-2.61-2.37-5.03-4.94-7.41-7.54-2.36-2.62-4.68-5.28-6.79-8.15-.09-.11.07-.29.19-.19h.02Z"/>
          <path class="cls-1" d="M27.93,85.54c4.71,2.73,9.02,6.06,12.91,9.84,1.89,1.94,3.6,4.08,5.52,5.97,3.81,3.84,8.33,6.92,12.22,10.69,5.99,5.51,11.37,11.62,15.8,18.51.08.12-.09.28-.2.18-4.21-3.47-8.07-7.22-11.88-11.02-1.63-1.63-3.91-4.17-5.51-5.89-3.73-3.88-6.93-8.3-11.02-11.83-2.04-1.77-4.3-3.28-6.42-4.95-2.12-1.66-4.07-3.52-6.01-5.39-1.95-1.88-3.85-3.8-5.59-5.9-.09-.1.04-.28.17-.21h0Z"/>
        </g>
        <g>
          <path class="cls-1" d="M55.01,195.34c-.12-1.63,1-2.77,2.53-2.88,1.56-.11,2.81.85,2.92,2.48.12,1.58-.98,2.79-2.53,2.9-1.53.11-2.81-.93-2.93-2.51h0Z"/>
          <path class="cls-1" d="M174.63,150.18c-.12-1.63,1-2.77,2.53-2.88,1.56-.11,2.81.85,2.92,2.48.12,1.58-.98,2.79-2.53,2.9-1.53.11-2.81-.93-2.93-2.51h0Z"/>
          <g>
            <path class="cls-1" d="M87.03,188.57l-9.58,15.57-4.63-.68-4.64-17.67,5.08.75,2.91,11.5,6.21-10.15,4.65.69h0Z"/>
            <path class="cls-1" d="M87.47,188.27l4.75.21-.73,16.78-4.75-.21.73-16.78Z"/>
            <path class="cls-1" d="M107.17,201.4l-7.08.54-1.07,3.36-4.83.37,6.11-17.32,4.67-.36,8.7,16.18-4.93.38-1.56-3.15h-.01ZM105.51,198.01l-2.56-5.2-1.74,5.53,4.31-.33h-.01Z"/>
            <path class="cls-1" d="M127.99,183.02l4.47,16.2-3.77,1.04-9.53-6.66,2.38,8.63-4.49,1.24-4.47-16.2,3.77-1.04,9.53,6.66-2.38-8.63,4.49-1.24Z"/>
            <path class="cls-1" d="M129.88,182.31l6.99-3.78c4.9-2.65,9.79-1.61,12.25,2.93,2.45,4.54.64,9.2-4.26,11.85l-6.99,3.78-7.99-14.78ZM142.88,190.07c2.51-1.36,3.39-3.77,2.01-6.32-1.38-2.55-3.88-3.14-6.39-1.78l-2.64,1.43,4.38,8.11,2.64-1.43h0Z"/>
            <path class="cls-1" d="M164.74,174.22l2.41,2.77-10.17,8.86-11.04-12.67,9.94-8.66,2.41,2.77-6.39,5.57,1.86,2.13,5.63-4.9,2.33,2.68-5.63,4.9,2.02,2.32,6.63-5.77h0Z"/>
            <path class="cls-1" d="M168.59,173.29l-1.9-3.33c1.67-.62,3.47-1.92,4.62-3.48,1.17-1.58,1.18-2.53.52-3.01-2.15-1.58-6.24,7.26-11.26,3.57-2.42-1.78-2.94-5.2.02-9.22,1.29-1.76,3.04-3.28,4.79-4.04l1.97,3.27c-1.65.78-2.94,1.8-3.8,2.98-1.18,1.6-1.07,2.58-.39,3.08,2.07,1.52,6.17-7.29,11.15-3.62,2.36,1.74,2.92,5.19-.04,9.21-1.64,2.22-3.86,3.98-5.68,4.61v-.02Z"/>
          </g>
        </g>
      </g>
    </g>
  </g>
</svg>