<svg width="171" height="18" viewBox="0 0 171 18" fill="none" xmlns="http://www.w3.org/2000/svg">
<path d="M169.132 16.3805C168.813 16.4198 168.526 16.4395 168.372 16.4591C166.977 16.695 165.582 16.5967 164.186 16.5181C162.791 16.4395 161.663 16.7146 160.349 17.2257C157.59 18.3067 154.768 17.9529 151.895 17.9136C145.914 17.8153 139.984 15.8891 134.003 15.8891C129.509 15.8891 124.8 16.5771 120.306 17.2453C114.438 18.1102 108.662 16.8326 102.845 16.3215C96.0528 15.7319 89.2917 16.066 82.4999 16.066C73.6767 16.066 64.7509 17.4222 55.938 15.9284C52.4805 15.3388 49.0128 15.044 45.7092 16.3215C41.8414 17.8153 37.3374 17.6777 33.3772 17.6777C29.099 17.6777 24.9952 17.5795 20.758 17.1077C18.07 16.8129 15.4128 15.6336 12.7145 15.5157C10.4882 15.4174 8.20032 16.066 5.93296 16.066C4.34273 16.066 1.76759 16.5574 0.926304 13.3733C0.515923 11.8402 0.464625 9.67814 0.546701 7.90919C0.639037 6.02231 0.782671 4.01749 1.37772 2.42543C2.39342 -0.286961 4.72233 0.204415 6.19971 0.322345C8.75434 0.53855 11.2782 0.774411 13.8225 1.3051C17.7622 2.11095 21.825 1.28544 25.7852 1.65889C34.3724 2.4844 42.8878 2.40578 51.4648 1.48199C57.2512 0.853031 62.9247 0.38131 68.7419 0.38131L79.658 0.38131C83.0232 0.38131 86.3883 0.479585 89.7534 0.38131C91.1077 0.342 92.2875 -0.208341 93.6623 0.0864844C95.1602 0.400965 96.6273 1.01027 98.1252 1.22648C100.803 1.59992 103.532 1.18717 106.189 0.813721C117.177 -0.719372 127.919 0.61717 138.856 2.40578C143.626 3.19198 148.459 2.83819 153.26 2.83819C155.671 2.83819 158.061 2.54336 160.462 2.32716C161.734 2.20923 163.027 2.36647 164.31 2.24854C165.592 2.13061 168.731 0.65648 169.46 3.34922C170.127 5.78644 170.014 8.97056 170.342 11.624C170.455 12.5674 170.958 14.7295 170.568 15.6533C170.363 16.125 169.696 16.3019 169.121 16.3805H169.132Z" fill="#E4BCAC"/>
</svg>
