<svg width="68" height="49" viewBox="0 0 68 49" fill="none" xmlns="http://www.w3.org/2000/svg">
<g id="Calque 1">
<g id="Group">
<g id="Group_2">
<path id="Vector" d="M43.2544 42.0051C42.7255 42.0176 42.1841 42.0302 41.6426 42.0302C40.9249 42.0302 40.0686 42.181 39.3508 42.0302C39.2123 41.9925 39.0738 41.9171 38.9856 41.7664C38.8849 41.603 38.8723 41.3769 38.8723 41.1758C38.8723 41.0502 38.8723 40.9246 38.8723 40.7989C38.8723 40.711 38.8723 40.623 38.8975 40.5351C38.9479 40.334 39.0864 40.1707 39.2375 40.0953C39.5397 39.9446 39.9427 40.0199 40.2701 40.0199H41.3782C41.7811 40.0199 42.1841 40.0199 42.587 40.0199C42.99 40.0199 43.3803 39.9194 43.7707 39.932C43.8337 39.932 43.8966 39.932 43.9596 39.9697C44.0351 40.0199 44.0981 40.1079 44.1611 40.1958C44.4003 40.5728 44.6648 40.9999 44.6648 41.5025C44.6648 41.603 44.6648 41.691 44.6144 41.7789C44.5388 41.9297 44.3625 41.9548 44.224 41.9674C43.9092 41.9925 43.5818 42.0051 43.2544 42.0176V42.0051Z" fill="#1D1D1D"/>
<path id="Vector_2" d="M49.8906 26.6642C49.8906 26.7522 49.8906 26.8401 49.8528 26.9155C49.815 26.9783 49.7646 27.0411 49.7017 27.0788C49.3239 27.3804 48.8958 27.4055 48.4173 27.4055H37.6131C36.8702 27.4055 36.1272 27.4055 35.3843 27.4055C34.5532 27.4055 33.7599 27.4055 32.9414 27.2924C32.8155 27.2799 32.6769 27.2547 32.551 27.2924C32.2488 27.4055 32.1732 27.8075 32.2362 28.1216C32.7525 30.3078 32.5384 32.3683 32.5384 34.5922C32.5384 36.5145 32.5384 38.4368 32.5384 40.3591C32.5384 40.8365 32.5762 41.3265 32.4629 41.7914C32.4377 41.8542 32.4251 41.917 32.3747 41.9547C32.3369 41.9799 32.2992 41.9924 32.2614 42.005C32.0599 42.0552 31.8584 42.0552 31.657 42.0552C31.6192 42.0552 31.5814 42.0552 31.5436 42.0552C31.2918 42.0552 31.0525 42.0301 30.8007 42.0175C30.7503 42.0175 30.6874 42.0175 30.637 41.9799C30.574 41.9296 30.5488 41.8416 30.5488 41.7537C30.5237 41.5527 30.5237 41.3516 30.5237 41.1506C30.5237 40.824 30.5363 40.5099 30.5363 40.1832V29.4032C30.5363 28.9383 30.5866 28.486 30.6118 28.0086C30.6118 27.9457 30.6118 27.8704 30.5992 27.795C30.5362 27.4432 30.2089 27.3929 29.9066 27.3678C29.5037 27.3427 29.1133 27.3678 28.7104 27.3678C28.3326 27.3678 27.9548 27.3678 27.5645 27.3678C26.8215 27.2799 26.0912 27.217 25.3482 27.1542C25.109 27.1416 24.8571 27.1291 24.6683 26.9909C24.3786 26.7773 24.3283 26.3878 24.3409 26.036C24.3409 25.7093 24.3786 25.3827 24.4542 25.056C24.4668 24.9555 24.492 24.855 24.5675 24.7796C24.706 24.6288 24.9579 24.6414 25.1594 24.6916C25.449 24.767 25.726 24.8801 26.0156 24.9806C27.6904 25.5586 28.5341 25.345 30.2718 25.345H45.9996C47.0573 25.345 48.1025 25.3701 49.1602 25.3827C49.3869 25.3827 49.6387 25.3952 49.7898 25.5711C49.8906 25.6842 49.9158 25.8475 49.9283 26.0109C49.9535 26.2119 49.9535 26.4129 49.9535 26.614L49.8906 26.6642Z" fill="#1D1D1D"/>
<g id="Group_3">
<path id="Vector_3" d="M32.2111 6.02145H33.3947C33.0044 5.99632 32.5888 5.97119 32.2111 6.02145Z" fill="#1D1D1D"/>
<path id="Vector_4" d="M32.2111 6.02145H33.3947C33.0044 5.99632 32.5888 5.97119 32.2111 6.02145Z" fill="#1D1D1D"/>
</g>
</g>
<path id="Vector_5" d="M27.9551 22.7695C27.8921 22.7821 27.8291 22.7947 27.7536 22.7947C27.2877 22.8324 26.9854 22.669 26.6706 22.3298C26.3558 21.9906 26.0284 21.6262 25.9655 21.1613C25.8899 20.5206 26.2677 19.8672 26.4314 19.2641C26.6455 18.46 26.784 17.6434 26.8847 16.8141C26.9477 16.3241 27.2625 10.3185 27.1869 10.3185C27.0358 10.3185 26.9477 10.4693 26.8847 10.5949C26.3936 11.6377 25.8647 12.668 25.2855 13.6731C24.7818 14.5526 24.4166 15.52 23.9003 16.3995C23.6485 16.8267 23.4092 17.6434 22.8804 17.8193C22.3011 18.0077 21.6463 16.9398 21.596 16.4624C21.533 15.7588 22.1248 15.2688 22.4774 14.7411C23.6989 12.9067 24.4544 10.7708 25.6255 8.89876C26.0158 8.27056 26.3936 7.65492 26.7336 6.98902C26.998 6.47389 27.5647 5.93364 28.2069 6.08441C28.4839 6.14723 28.7106 6.4362 28.8239 6.68748C28.975 7.00159 29.0002 7.35338 29.0128 7.70518C29.0128 8.24543 29.0128 8.78569 29.0002 9.32594C29.0002 9.56466 28.9372 9.80338 28.9624 10.0421C29.0002 10.4567 28.9624 10.8588 28.9624 11.2734V15.9221C28.9624 16.3116 28.9876 16.7136 28.9624 17.1031C28.9372 17.4549 28.8617 17.7941 28.8113 18.1459C28.7232 18.8872 28.6854 19.6411 28.6854 20.3949C28.6854 21.0231 28.7232 21.6765 28.4965 22.2544C28.4461 22.38 28.3958 22.4931 28.3076 22.5811C28.2069 22.6816 28.081 22.7318 27.9425 22.757L27.9551 22.7695Z" fill="#1D1D1D"/>
<path id="Vector_6" d="M19.4804 22.556C19.3167 22.7821 19.1656 23.0083 19.0396 23.247C18.1834 24.7924 17.6041 26.4885 17.3523 28.2475C17.239 29.0642 17.2264 29.8934 17.2012 30.7226C17.2012 30.999 17.3271 31.8785 16.9116 31.866C16.0427 31.8283 15.1612 31.7529 14.2924 31.7654C13.1717 31.7906 12.0006 31.7906 10.905 31.9413C10.0236 32.067 9.33101 32.7203 9.05398 33.5495C8.82732 34.2531 8.80213 35.0195 8.90287 35.7608C9.10435 37.2559 9.75915 38.6883 10.6028 39.9321C11.371 41.0754 12.605 41.6659 13.9398 41.9047C14.6072 42.0177 15.2997 42.0806 15.9797 42.068C16.6597 42.0554 17.4404 42.0052 18.1204 41.8795C18.3597 41.8293 18.5989 41.7665 18.8004 41.6283C19.367 41.2513 19.2663 40.598 19.2663 40.0075V34.4165C19.2663 32.8208 19.2285 31.2252 19.3167 29.6295C19.3922 28.1972 19.4552 26.476 20.1352 25.1693C20.3492 24.7672 20.6515 24.4154 21.0544 24.2144C21.3566 24.0636 21.7092 24.0008 21.9485 23.7747C22.2759 23.4606 22.2507 22.958 22.2885 22.5434C22.3388 22.0283 22.2633 21.5006 22.1248 20.9854C22.0618 20.7342 21.9107 20.4577 21.6588 20.4326C21.47 20.4326 21.3188 20.5583 21.1929 20.6839C20.6011 21.2744 19.9967 21.8649 19.5056 22.5434L19.4804 22.556ZM11.0687 35.9493C10.8799 34.8813 10.9428 33.9265 11.6228 33.9139C12.6302 33.9013 13.6502 33.8888 14.6575 33.8762C15.4509 33.8762 16.2442 33.8259 17.0375 33.7757C17.1256 33.7757 17.2264 33.7757 17.2767 33.8385C17.3145 33.8888 17.3145 33.9516 17.3271 34.0144C17.3523 34.718 17.3397 35.409 17.2893 36.1252C17.239 36.8288 17.239 37.5198 17.239 38.236C17.239 38.6631 17.239 39.0777 17.2138 39.5049C17.2138 39.6054 17.2012 39.7059 17.1508 39.7939C16.6723 40.5226 15.262 40.196 14.5694 40.0326C13.6502 39.819 12.6931 39.4798 12.0761 38.7636C11.7739 38.4244 11.2828 37.1303 11.0813 35.9618L11.0687 35.9493Z" fill="#1D1D1D"/>
<path id="Vector_7" d="M58.0887 41.7658C57.8872 41.8537 57.6732 41.9166 57.4591 41.9543C57.0436 42.0422 56.628 42.0925 56.1999 42.1301C55.2429 42.2055 54.2733 42.1804 53.3162 42.105C53.2659 42.105 53.2029 42.105 53.1651 42.0673C53.0644 42.0171 53.0266 41.904 53.0014 41.8035C52.9511 41.6527 52.9133 41.5019 52.8629 41.3386C52.8125 41.1753 52.7622 40.9994 52.7622 40.8235C52.7622 40.6476 52.8377 40.4717 52.9762 40.3712C53.2029 40.2204 53.5051 40.2832 53.757 40.2832C54.034 40.2832 54.3236 40.2958 54.6007 40.2958C55.3184 40.2958 56.3384 40.4591 56.905 39.944C57.7991 39.1148 57.3206 36.916 57.3206 35.8355C57.3206 34.9435 57.3206 34.064 57.3206 33.1719C57.3206 32.393 57.3206 31.6266 57.3206 30.8476C57.3206 30.5837 57.3206 30.3199 57.3206 30.056C57.3206 29.7545 57.3206 29.4655 57.3584 29.164C57.3584 29.1514 57.3584 29.1263 57.3584 29.1137C57.3584 29.0886 57.3332 29.076 57.308 29.076C57.2828 29.076 57.2576 29.076 57.245 29.076C57.1947 29.0886 57.1443 29.1263 57.1065 29.164C56.8547 29.3525 56.6784 29.6289 56.4517 29.8676L55.6836 30.6843C55.054 31.3627 54.4118 32.0412 53.7822 32.7196C53.5051 33.0086 53.2407 33.2976 52.9637 33.5866C52.8629 33.6996 52.7496 33.8127 52.6489 33.9258C52.4726 34.1143 52.334 34.3404 52.1452 34.5163C51.4022 35.245 49.9037 34.0137 49.2363 33.6494C48.783 33.6494 47.9016 32.9458 47.486 32.7322C46.9068 32.4307 46.2897 32.0035 45.6601 31.8276C45.7735 32.2548 45.7861 32.6694 45.7105 33.1091C45.6853 33.2096 45.6601 33.3101 45.6098 33.4107C45.5594 33.5112 45.4713 33.574 45.3705 33.6117C45.295 33.6368 45.2194 33.6243 45.1439 33.6117C45.0305 33.6117 44.9172 33.5866 44.8165 33.5614C44.5394 33.486 44.3002 33.3101 44.0735 33.1217C44.0231 33.084 43.9602 33.0337 43.9224 32.9709C43.8846 32.9207 43.872 32.8578 43.8469 32.8076C43.7587 32.5312 43.7461 32.2422 43.7461 31.9532C43.7461 31.6266 43.7461 31.2999 43.7461 30.9607V30.3953C43.7461 30.1566 43.6957 29.9178 43.7965 29.6917C43.8217 29.6289 43.8594 29.5786 43.8972 29.5284C43.9854 29.4153 44.0861 29.3022 44.2246 29.2394C44.4891 29.1137 44.8416 29.1389 45.1187 29.2017C45.4461 29.2771 45.7357 29.4404 46.0127 29.6037C46.4786 29.8425 46.932 30.1189 47.3979 30.3827C47.8512 30.634 48.3045 30.8978 48.7704 31.1366C49.1734 31.3376 49.5763 31.5512 49.9793 31.7648C50.1556 31.8527 50.3193 31.9281 50.4704 32.0663C50.6215 32.2045 50.7978 32.305 50.9993 32.3678C51.0874 32.393 51.1881 32.4181 51.2889 32.4055C51.4148 32.393 51.5281 32.3176 51.6289 32.2296C51.9437 31.9784 52.1829 31.6517 52.4222 31.3376C52.6363 31.0612 52.8377 30.7848 53.077 30.5209C53.2785 30.3073 53.4673 30.1063 53.6688 29.8927C54.0844 29.453 54.4873 29.0132 54.9029 28.5735C55.3184 28.1212 55.734 27.6814 56.1621 27.2291L56.7917 26.5507C56.905 26.4376 56.9806 26.2743 57.0813 26.1486C57.1947 25.9978 57.3206 25.8471 57.4465 25.7089C57.5346 25.6084 57.6228 25.5078 57.7487 25.4576C57.8872 25.3948 58.0383 25.3948 58.1894 25.3822C58.4665 25.3822 58.7435 25.3822 59.0079 25.3822C59.1465 25.3822 59.2724 25.3822 59.3731 25.4827C59.5368 25.646 59.5494 25.9099 59.5494 26.1486C59.5494 26.9401 59.4613 27.7317 59.3605 28.5107C59.2724 29.2645 59.3228 30.0309 59.3228 30.7973V35.4586C59.3228 36.1119 59.3228 36.7778 59.3102 37.4312C59.3102 37.7704 59.285 38.1096 59.2598 38.4489C59.2346 38.763 59.2598 39.0771 59.2598 39.3912C59.2346 39.7555 59.2346 40.145 59.1465 40.4968C59.0331 40.9366 58.7309 41.3512 58.3531 41.6025C58.265 41.6653 58.1769 41.703 58.0887 41.7532V41.7658Z" fill="#1D1D1D"/>
<path id="Vector_8" d="M28.1187 30.4335C28.1061 30.9989 28.1061 31.5517 28.0809 32.1171C28.0809 33.1976 28.0683 34.2907 28.0431 35.3963C28.0305 36.6025 28.0053 37.8212 27.9928 39.0274C27.9928 39.5551 28.1187 40.334 27.9424 40.8366C27.8039 41.2386 27.4765 41.5779 27.1617 41.8417C26.7839 42.1433 26.4187 42.0679 25.9402 42.0679C24.8447 42.0679 23.7618 42.0804 22.6536 42.0804C21.8225 42.0804 21.1803 41.3517 21.1426 40.5351C21.0922 39.6179 21.1426 38.6756 21.1426 37.7584V33.7881C21.1048 32.7956 21.067 31.803 21.0544 30.7979C21.0418 30.2827 20.8907 29.7551 21.3692 29.4158C21.7092 29.1897 22.1625 29.2022 22.5529 29.1897C22.6914 29.1897 22.8425 29.1897 22.9433 29.2651C23.1195 29.3656 23.1573 29.5792 23.1951 29.7802C23.2958 30.5969 23.1825 31.3884 23.1573 32.2176C23.1573 32.6574 23.1573 33.0971 23.1447 33.5494V36.703C23.1447 37.4945 23.107 38.3112 23.1447 39.1153C23.2203 40.1456 24.1143 40.334 25.0084 40.3215C25.1721 40.3215 25.3484 40.3215 25.4869 40.2712C25.8395 40.133 26.0032 39.7184 26.0661 39.354C26.2047 38.7133 26.2298 38.0474 26.2298 37.394C26.2424 36.0999 26.2424 34.831 26.2172 33.5369C26.2047 32.3307 26.0284 31.0743 26.2047 29.8933C26.2047 29.8053 26.2172 29.7174 26.255 29.642C26.3558 29.353 26.658 29.2022 26.9476 29.1771C27.2498 29.1645 27.5268 29.2525 27.8165 29.3404C28.2194 29.4661 28.1187 30.1697 28.1187 30.4586V30.4335Z" fill="#1D1D1D"/>
<path id="Vector_9" d="M49.337 42.0804C49.1482 42.0804 48.9593 42.0678 48.783 42.0301C48.7074 42.0176 48.6067 42.005 48.5437 41.9673C48.4682 41.917 48.3926 41.8417 48.3297 41.7788C48.103 41.5778 47.8763 41.3893 47.6371 41.1883L45.7357 39.5676C45.1312 39.0524 44.5142 38.5373 43.9098 38.0222C43.7839 37.9091 43.6579 37.8086 43.532 37.6955C43.4313 37.6076 43.3431 37.4819 43.2172 37.4191C43.0913 37.3563 42.9402 37.3437 42.8017 37.3311C42.3861 37.306 41.9706 37.3311 41.555 37.3311C40.3839 37.3311 39.2255 37.3311 38.0544 37.3311C37.9033 37.3311 37.7396 37.3311 37.6011 37.394C37.1729 37.5824 37.2988 38.0724 37.2988 38.4242C37.2988 38.8011 37.2988 39.1655 37.2988 39.5424C37.2988 40.1329 37.3492 40.7109 37.2988 41.3014C37.2862 41.4647 37.2611 41.6406 37.1729 41.7788C37.047 41.9673 36.8833 41.8919 36.707 41.9673C36.6566 41.9924 36.5937 42.0176 36.5433 42.0427C36.4803 42.0552 36.4174 42.0552 36.3544 42.0552C36.0522 42.0552 35.75 42.0552 35.4478 42.0427C35.3219 42.0427 35.1707 42.0176 35.1204 41.9045C35.0952 41.8542 35.1078 41.804 35.1204 41.7411C35.1707 41.3768 35.2337 41.025 35.2337 40.6606C35.2337 40.2963 35.2337 39.9193 35.2337 39.5424V30.8732C35.2337 30.6722 35.2337 30.4711 35.2337 30.2827C35.2337 30.0942 35.2463 29.9058 35.2715 29.7173C35.2715 29.6168 35.2967 29.5163 35.3344 29.4283C35.4478 29.2399 35.687 29.2022 35.9011 29.177C36.304 29.1393 36.7322 29.1268 37.0848 29.3404C37.324 29.4786 37.4877 29.7047 37.664 29.9058C38.2684 30.6093 39.0618 31.1245 39.7166 31.7904C40.044 32.117 40.4091 32.406 40.7617 32.7076C41.1143 33.0091 41.4669 33.2981 41.8195 33.5996C42.3861 34.077 42.9528 34.5545 43.5194 35.0445C43.7083 35.2078 43.9098 35.3711 44.1364 35.5722C44.3631 35.7606 44.5898 35.9617 44.829 36.1501C45.3579 36.6024 45.8994 37.0547 46.4282 37.507C47.0453 38.0222 47.6497 38.5499 48.2667 39.065C48.7326 39.467 49.1985 39.8565 49.6644 40.2586C49.7778 40.3465 49.8911 40.4345 49.9918 40.535C50.1304 40.6606 50.2437 40.8114 50.3318 40.9747C50.3822 41.0627 50.42 41.1506 50.4452 41.2386C50.4704 41.3265 50.4829 41.427 50.4704 41.5276C50.4704 41.6155 50.4704 41.6909 50.4452 41.7788C50.42 41.8668 50.3822 41.9296 50.3067 41.9799C50.2563 42.0176 50.2059 42.0427 50.143 42.0552C50.0296 42.0804 49.9163 42.0804 49.803 42.0804C49.6519 42.0804 49.5007 42.0804 49.3496 42.0804H49.337ZM37.324 35.2581C37.324 35.2581 37.324 35.2581 37.3366 35.2706C37.3492 35.2706 37.3618 35.2832 37.3744 35.2832C37.4499 35.3083 37.5381 35.3335 37.6136 35.3209C38.0922 35.2832 38.5833 35.2832 39.0618 35.2832C39.5151 35.2832 39.9684 35.2832 40.4217 35.2832C40.4469 35.2832 40.4595 35.2832 40.4847 35.2832C40.5099 35.2706 40.5225 35.2329 40.5351 35.1952C40.5351 34.9691 40.1825 34.7681 40.0314 34.6676C39.9558 34.6173 39.8928 34.5796 39.8173 34.5293C39.7417 34.4791 39.6914 34.4288 39.6284 34.366C39.4773 34.2404 39.3262 34.1022 39.1751 33.9765L39.1121 33.9263L38.3188 33.2478C38.2055 33.1473 38.0796 33.0468 37.9662 32.9463C37.8277 32.8332 37.7144 32.6699 37.5255 32.6447C37.387 32.6196 37.2485 32.6699 37.2485 32.8081C37.2485 32.9211 37.2485 33.0468 37.2485 33.1599V33.9514C37.2485 34.1399 37.2485 34.3283 37.2485 34.5168C37.2485 34.6801 37.2988 34.856 37.2988 35.0319C37.2988 35.0822 37.2988 35.145 37.2988 35.1952C37.2988 35.2078 37.2988 35.2329 37.324 35.2455V35.2581Z" fill="#1D1D1D"/>
<path id="Vector_10" d="M67.9857 21.9277V8.16996C67.9857 5.49381 66.3487 3.11919 64.1576 1.64919C62.7851 0.719448 61.3495 0.329961 59.8385 0.166628C58.9444 0.0661152 58.0252 0.0535511 57.0808 0.0535511H18.7625C14.7959 0.0535511 10.7664 -0.147475 6.81242 0.229449C5.57838 0.35509 4.57099 0.669192 3.62657 1.49842C2.66956 2.35278 1.77551 3.47099 1.23404 4.63945C0.705167 5.74509 0.415545 6.93868 0.415545 8.16996V22.8825C0.415545 28.373 0.0251845 33.8259 0 39.3038C0 40.8115 0.0377769 42.3569 0.679983 43.7138C1.72514 45.9879 4.20582 47.282 6.66131 47.7469C9.05384 48.1866 11.5345 48.0359 13.9522 48.0359C16.2944 48.0359 18.6492 48.0359 20.9913 48.0359C29.5163 48.0359 38.0287 48.0233 46.5536 48.1364C52.1698 48.1992 63.6162 50.5738 67.0413 44.3797C67.8346 42.9725 67.9353 41.4146 67.9479 39.8315C68.036 33.8761 67.9857 27.8956 67.9857 21.9277ZM66.0591 31.9036C65.9583 34.5797 65.9835 37.2307 65.6561 39.8818C65.6057 40.2964 65.5554 40.6984 65.4798 41.113C65.2532 42.5453 64.7243 44.0153 63.5784 44.92C61.6895 46.4151 59.1459 46.1764 56.9045 46.101C53.9201 46.013 50.9483 46.0633 47.964 46.0507C39.8168 46.0507 31.657 46.013 23.5098 46.013C18.5106 46.0005 11.8871 47.2443 7.13982 45.4979C5.83022 45.0205 4.59618 44.2792 3.70213 43.2112C1.61181 40.7612 2.4429 36.8412 2.4429 33.851V9.11227C2.4429 7.76791 2.35475 6.67483 3.07251 5.45612C4.34433 3.34535 6.48502 2.30253 8.89014 2.11406C10.3257 2.00099 11.7486 2.21458 13.1715 2.18945C14.6448 2.15176 16.1181 2.08894 17.5914 2.08894C30.5489 2.08894 43.5441 2.31509 56.5015 2.08894C58.6044 2.05124 60.5688 2.16432 62.4199 3.26996C65.165 4.91586 65.9457 7.4915 65.9457 10.4189C65.9457 14.452 65.8954 18.4474 66.1094 22.4679C66.2857 25.6089 66.1598 28.7625 66.0591 31.9036Z" fill="#1D1D1D"/>
<path id="Vector_11" d="M59.4355 20.1813V10.5195C59.4355 10.0169 59.3096 9.57719 59.1585 9.11232C59.0577 8.79822 58.957 8.47155 58.7681 8.19514C58.5666 7.91873 58.2896 7.70514 58.0126 7.49155C57.7859 7.31566 57.5592 7.13976 57.32 6.98899C56.5015 6.44873 55.6074 6.18489 54.6756 6.04668C53.3912 5.87078 52.0438 5.95873 50.7342 5.94617C44.8411 5.89591 38.9227 5.92104 33.0169 5.98386C32.7777 5.98386 32.488 5.98386 32.211 6.02155C32.5888 5.9713 33.0043 5.99642 33.3947 6.02155H32.211C31.9088 6.05925 31.6318 6.15976 31.4429 6.36078C31.3925 6.39848 31.3547 6.4613 31.317 6.49899C31.1658 6.70001 31.0651 6.92617 31.0021 7.17745C30.9518 7.31566 30.9266 7.45386 30.9014 7.60463C30.5992 9.27566 30.9014 10.9969 30.9896 12.6931C31.0021 12.8062 31.0021 12.9318 31.0021 13.0449C31.0021 14.0375 31.0273 15.03 31.0399 16.0226C31.0525 17.1031 31.1658 18.171 31.254 19.2516C31.2918 19.6913 31.3673 20.131 31.594 20.508C31.8332 20.91 32.1732 21.2744 32.5384 21.5885C33.1051 22.091 33.7976 22.4554 34.5406 22.6313C34.9309 22.7318 35.3339 22.7821 35.7368 22.7821C43.0529 22.7821 50.3565 22.7946 57.6726 22.7821C58.1007 22.7821 58.554 22.7695 58.9318 22.581C59.6873 22.179 59.4355 20.8974 59.4355 20.1813ZM57.3074 19.5782C57.2444 19.7918 57.1563 19.9803 57.0556 20.1436C56.4637 21.0608 55.2297 21.1613 54.0586 21.1236C51.0364 21.0231 47.9765 20.8095 44.9418 20.8723C42.0456 20.9477 39.1368 21.0608 36.2279 20.8974C35.548 20.8598 34.868 20.6964 34.3013 20.3321C34.2006 20.2567 34.0998 20.1813 34.0117 20.0933C33.6843 19.7667 33.5206 19.2641 33.3317 18.8495C33.1051 18.3469 33.1176 17.8695 33.1176 17.3418V12.5549C33.1176 11.5121 33.0925 10.4692 33.1302 9.42642C33.1428 9.11232 33.1554 8.76053 33.3821 8.52181C33.848 7.99412 35.2331 8.0695 35.8879 8.00668C37.0087 7.90617 38.142 7.84335 39.2627 7.80566C41.5167 7.73027 43.7707 7.7554 46.0247 7.81822C48.7572 7.8936 54.3986 7.02668 56.4133 9.0495C56.7156 9.3636 57.0052 9.72796 57.1689 10.1175C57.2948 10.4316 57.3074 10.7833 57.3074 11.11C57.2948 11.4492 57.3074 11.7759 57.3074 12.1151V12.8313C57.3074 13.8364 57.2193 14.8918 57.3074 15.8844C57.4081 17.078 57.6348 18.3972 57.3074 19.5782Z" fill="#1D1D1D"/>
</g>
</g>
</svg>
